<svg xmlns="http://www.w3.org/2000/svg" xmlns:xlink="http://www.w3.org/1999/xlink" width="500" zoomAndPan="magnify" viewBox="0 0 375 374.999991" height="500" preserveAspectRatio="xMidYMid meet" version="1.0"><defs><g/><clipPath id="f54d433b8e"><path d="M 253 127 L 262.5 127 L 262.5 159 L 253 159 Z M 253 127 " clip-rule="nonzero"/></clipPath><clipPath id="4c7d14b9f0"><path d="M 112.5 134 L 129 134 L 129 152 L 112.5 152 Z M 112.5 134 " clip-rule="nonzero"/></clipPath><clipPath id="3cea52ab59"><path d="M 162 203 L 190 203 L 190 229.609375 L 162 229.609375 Z M 162 203 " clip-rule="nonzero"/></clipPath><clipPath id="41464163c0"><path d="M 138 93.859375 L 150 93.859375 L 150 110 L 138 110 Z M 138 93.859375 " clip-rule="nonzero"/></clipPath></defs><path fill="#157a2c" d="M 245.6875 116.0625 C 246.136719 115.8125 246.566406 115.515625 246.933594 115.128906 C 249.433594 112.539062 248.871094 107.929688 245.667969 104.824219 C 244.199219 103.40625 242.445312 102.558594 240.71875 102.289062 C 240.863281 100.179688 239.425781 97.710938 236.894531 96.144531 C 233.632812 94.128906 229.828125 94.367188 228.398438 96.691406 L 228.339844 96.816406 C 228.179688 96.777344 228.023438 96.730469 227.851562 96.710938 C 224.859375 96.328125 222.183594 97.960938 221.867188 100.351562 C 221.851562 100.542969 221.859375 100.726562 221.867188 100.90625 C 219.914062 100.550781 218.101562 101.417969 217.792969 102.894531 C 217.476562 104.414062 218.847656 105.976562 220.863281 106.410156 C 222.675781 106.792969 224.371094 106.121094 224.9375 104.882812 C 225.492188 105.125 226.085938 105.304688 226.738281 105.394531 C 227.160156 105.449219 227.5625 105.449219 227.96875 105.429688 C 227.9375 106.621094 228.734375 107.964844 230.105469 108.8125 C 231.410156 109.617188 232.867188 109.753906 233.910156 109.28125 C 234.21875 111.011719 235.128906 112.769531 236.605469 114.199219 C 236.980469 114.5625 237.382812 114.890625 237.796875 115.179688 C 237.660156 116.070312 237.757812 117.050781 238.113281 118.019531 C 239.050781 120.566406 241.457031 122.007812 243.492188 121.257812 C 245.320312 120.574219 246.214844 118.347656 245.6875 116.0625 Z M 223.171875 101.351562 L 223.078125 101.042969 C 222.835938 99.738281 223.976562 98.421875 225.628906 98.105469 C 225.828125 98.066406 226.019531 98.046875 226.222656 98.035156 C 224.582031 98.421875 223.480469 99.910156 223.757812 101.425781 L 223.871094 101.773438 C 223.96875 102.050781 224.09375 102.308594 224.277344 102.539062 C 223.738281 102.261719 223.363281 101.847656 223.171875 101.351562 Z M 228.503906 100.515625 C 228.285156 99.332031 228.820312 98.160156 229.789062 97.277344 C 230.480469 96.652344 231.390625 96.171875 232.445312 95.972656 C 232.75 95.90625 233.058594 95.875 233.355469 95.867188 C 232.15625 96.144531 231.167969 96.808594 230.480469 97.664062 C 229.703125 98.632812 229.308594 99.851562 229.539062 101.101562 C 229.664062 101.753906 229.941406 102.339844 230.324219 102.839844 C 229.375 102.339844 228.695312 101.523438 228.503906 100.515625 Z M 229.023438 106.246094 C 228.953125 105.910156 228.984375 105.585938 229.078125 105.269531 C 229.300781 104.585938 229.882812 104.019531 230.679688 103.789062 L 231.007812 103.703125 C 231.167969 103.671875 231.332031 103.664062 231.496094 103.664062 C 231.253906 103.710938 231.042969 103.796875 230.84375 103.902344 C 230.355469 104.164062 229.960938 104.578125 229.742188 105.074219 C 229.539062 105.535156 229.472656 106.066406 229.585938 106.601562 C 229.664062 106.988281 229.828125 107.332031 230.046875 107.628906 C 229.53125 107.324219 229.144531 106.84375 229.023438 106.246094 Z M 236.855469 107.035156 C 236.261719 107.648438 235.859375 108.378906 235.609375 109.167969 C 235.464844 107.964844 235.742188 106.804688 236.433594 105.902344 C 236.53125 105.777344 236.605469 105.640625 236.722656 105.527344 C 237.566406 104.652344 238.734375 104.269531 239.980469 104.296875 C 241.457031 104.335938 243.03125 104.96875 244.304688 106.207031 C 244.59375 106.488281 244.84375 106.777344 245.074219 107.082031 C 242.628906 104.863281 238.992188 104.816406 236.855469 107.035156 Z M 240.632812 113.710938 C 240.277344 113.882812 239.980469 114.121094 239.75 114.402344 C 239.921875 113.824219 240.316406 113.335938 240.855469 113.066406 C 241.9375 112.546875 243.25 113.140625 243.789062 114.402344 C 243.855469 114.554688 243.902344 114.707031 243.941406 114.863281 C 243.355469 113.632812 241.898438 113.105469 240.632812 113.710938 Z M 237.144531 115.082031 L 237.152344 115.023438 C 233.625 114.765625 229.578125 116.636719 227.371094 118.941406 C 229.089844 116.484375 230.546875 113.125 230.757812 109.867188 C 230.421875 109.734375 230.078125 109.589844 229.761719 109.386719 C 229.328125 109.117188 228.953125 108.800781 228.628906 108.464844 C 227.8125 110.492188 226.921875 112.460938 225.953125 114.515625 C 226.480469 112.007812 225.695312 109.003906 224.535156 106.382812 C 224.09375 106.699219 223.585938 106.949219 223 107.074219 C 225.933594 112.921875 223.164062 120.074219 220.507812 122.179688 L 227.96875 126.796875 C 229.816406 122.792969 233.269531 119.222656 237.355469 117.769531 C 237.085938 116.878906 237.007812 115.964844 237.144531 115.082031 Z M 237.144531 115.082031 " fill-opacity="1" fill-rule="nonzero"/><path fill="#ba9874" d="M 188.589844 141.546875 C 183.382812 145.523438 181.703125 152.609375 183.851562 155.425781 C 186 158.238281 190.171875 155.472656 195.375 151.496094 C 200.582031 147.523438 204.851562 143.84375 202.703125 141.03125 C 200.554688 138.207031 193.792969 137.574219 188.589844 141.546875 Z M 186.375 147.984375 C 185.730469 150.230469 185.875 152.363281 186.8125 153.601562 C 187.082031 153.945312 187.378906 154.195312 187.707031 154.367188 C 188.289062 154.667969 188.023438 155.109375 186.929688 155.050781 C 186.257812 155.023438 185.691406 154.742188 185.242188 154.148438 C 183.535156 151.910156 184.867188 146.28125 189.011719 143.125 C 189.046875 143.09375 189.078125 143.074219 189.117188 143.046875 C 189.171875 143 187.246094 144.890625 186.375 147.984375 Z M 186.375 147.984375 " fill-opacity="1" fill-rule="nonzero"/><path fill="#ba9874" d="M 194.265625 153.359375 C 195.15625 157.296875 193.707031 162.378906 197.503906 162.828125 C 205.253906 163.730469 203.375 155.617188 200.382812 152.101562 C 199.757812 151.371094 199.105469 150.710938 198.433594 150.132812 C 197.640625 150.777344 196.804688 151.449219 195.875 152.160156 C 195.320312 152.574219 194.792969 152.976562 194.265625 153.359375 Z M 194.265625 153.359375 " fill-opacity="1" fill-rule="nonzero"/><path fill="#f64b31" d="M 151.234375 164.941406 C 150.542969 165.132812 149.667969 165.355469 148.796875 165.539062 C 149.554688 166.660156 150.167969 167.890625 150.195312 167.957031 L 150.886719 169.359375 L 149.429688 168.8125 C 149.34375 168.773438 147.542969 168.089844 146.074219 167.332031 C 145.546875 168.800781 144.769531 170.269531 144.722656 170.347656 L 144.175781 171.367188 L 143.628906 170.339844 C 143.582031 170.253906 142.699219 168.550781 142.179688 166.988281 C 140.714844 167.746094 138.921875 168.425781 138.835938 168.457031 L 137.378906 169.003906 L 138.058594 167.613281 C 138.085938 167.542969 138.699219 166.316406 139.457031 165.191406 C 137.820312 164.855469 136.140625 164.347656 135.824219 164.25 C 132.085938 166.285156 129.59375 169.878906 129.59375 173.976562 C 129.59375 180.335938 135.566406 185.503906 142.9375 185.503906 C 150.3125 185.503906 156.296875 180.355469 156.304688 173.996094 C 156.324219 170.320312 154.339844 167.054688 151.234375 164.941406 Z M 133.332031 168.054688 C 134.222656 166.691406 135.679688 165.835938 136.207031 165.863281 C 136.746094 165.902344 136.304688 166.738281 135.535156 167.929688 C 134.761719 169.128906 133.859375 170.253906 133.207031 170.367188 C 132.5625 170.503906 132.449219 169.40625 133.332031 168.054688 Z M 134.03125 180.671875 C 132.296875 178.90625 131.25 176.628906 131.25 174.132812 C 131.25 173.632812 131.296875 173.144531 131.386719 172.664062 C 131.527344 171.855469 132.316406 171.261719 132.996094 171.328125 C 133.675781 171.394531 133.917969 172.191406 133.722656 173.113281 C 133.617188 173.660156 133.550781 174.226562 133.550781 174.8125 C 133.550781 176.898438 134.28125 178.835938 135.535156 180.441406 C 137.617188 183.082031 136.859375 183.535156 134.03125 180.671875 Z M 134.03125 180.671875 " fill-opacity="1" fill-rule="nonzero"/><path fill="#157a2c" d="M 147.722656 165.105469 C 149.699219 164.796875 152.316406 163.992188 152.316406 163.992188 C 152.316406 163.992188 149.507812 163.308594 147.503906 163.125 C 148.5 161.945312 149.441406 160.167969 149.441406 160.167969 C 149.441406 160.167969 147.128906 160.984375 145.605469 161.792969 C 145.402344 160.601562 144.683594 159.015625 144.683594 159.015625 C 144.683594 159.015625 143.5625 160.535156 143.101562 161.6875 C 141.632812 160.804688 138.835938 159.824219 138.835938 159.824219 C 138.835938 159.824219 139.773438 161.601562 140.773438 162.78125 C 138.769531 162.964844 135.957031 163.644531 135.957031 163.644531 C 135.957031 163.644531 138.574219 164.453125 140.550781 164.757812 C 139.5625 165.960938 138.625 167.878906 138.625 167.878906 C 138.625 167.878906 141.089844 166.949219 142.566406 166.074219 C 142.957031 167.746094 144.175781 170.050781 144.175781 170.050781 C 144.175781 170.050781 145.25 168.054688 145.710938 166.429688 C 147.1875 167.304688 149.632812 168.226562 149.632812 168.226562 C 149.632812 168.226562 148.710938 166.316406 147.722656 165.105469 Z M 147.722656 165.105469 " fill-opacity="1" fill-rule="nonzero"/><path fill="#57a52c" d="M 252.484375 126.117188 C 254.125 127.277344 253.671875 129.246094 253.308594 130.054688 C 252.894531 130.984375 252.425781 131.351562 252.550781 131.511719 C 252.542969 131.582031 253.386719 131.332031 254 130.167969 C 254.601562 129.160156 254.96875 126.722656 253 125.394531 C 251.226562 124.261719 248.238281 124.445312 247.335938 126.902344 C 247.363281 128.230469 249.117188 129.046875 249.953125 128.105469 C 250.730469 127.402344 251.113281 126.40625 250.875 125.472656 C 249.070312 121.96875 245.742188 123.484375 246.070312 123.40625 C 245.761719 123.398438 249.136719 122.410156 250.441406 125.597656 C 250.921875 127.097656 248.378906 128.957031 248.074219 126.921875 C 248.503906 125.683594 251.277344 125.070312 252.484375 126.117188 Z M 252.484375 126.117188 " fill-opacity="1" fill-rule="nonzero"/><path fill="#57a52c" d="M 246.941406 142.066406 C 249.972656 136.46875 252.859375 130.378906 253.757812 128.410156 C 253.988281 128.863281 254.199219 129.332031 254.199219 129.84375 C 254.199219 130.082031 254.265625 130.3125 254.363281 130.515625 C 254.34375 130.570312 254.316406 130.621094 254.296875 130.6875 C 253.703125 132.933594 253.816406 135.304688 253.597656 137.609375 C 253.355469 140.195312 253.125 142.777344 252.933594 145.359375 C 252.894531 145.851562 253.117188 146.214844 253.421875 146.4375 C 250.738281 150.757812 246.433594 153.339844 243.175781 154.003906 C 239.722656 154.761719 237.632812 154.050781 237.660156 154.117188 C 237.976562 154.03125 243.355469 148.691406 246.941406 142.066406 Z M 246.941406 142.066406 " fill-opacity="1" fill-rule="nonzero"/><path fill="#57a52c" d="M 254.335938 128.46875 C 254.429688 128.113281 254.476562 127.882812 254.46875 127.835938 C 254.460938 127.804688 254.507812 127.824219 254.582031 127.863281 L 254.449219 128.496094 C 254.410156 128.496094 254.382812 128.480469 254.335938 128.46875 Z M 254.335938 128.46875 " fill-opacity="1" fill-rule="nonzero"/><path fill="#57a52c" d="M 254.125 133.355469 C 254.296875 134.316406 255.304688 134.960938 256.378906 134.796875 C 256.492188 134.777344 256.605469 134.75 256.710938 134.710938 C 256.800781 135 256.886719 135.289062 256.972656 135.585938 C 256.816406 135.574219 256.664062 135.585938 256.511719 135.605469 C 255.128906 135.816406 254.132812 136.976562 254.257812 138.214844 C 254.316406 139.453125 255.496094 140.464844 256.875 140.453125 C 257.25 140.453125 257.585938 140.367188 257.902344 140.214844 C 257.941406 140.539062 257.96875 140.867188 257.988281 141.191406 C 257.652344 141.019531 257.269531 140.925781 256.867188 140.925781 C 255.464844 140.945312 254.363281 141.972656 254.296875 143.230469 C 254.230469 144.488281 255.253906 145.628906 256.625 145.785156 C 257.058594 145.832031 257.460938 145.765625 257.824219 145.609375 C 257.777344 145.957031 257.71875 146.300781 257.652344 146.65625 C 257.335938 146.445312 256.972656 146.300781 256.570312 146.253906 C 255.1875 146.109375 253.96875 147.011719 253.75 148.25 C 253.558594 149.492188 254.402344 150.738281 255.773438 151.054688 C 255.972656 151.105469 256.175781 151.113281 256.367188 151.113281 C 256.28125 151.351562 256.183594 151.59375 256.097656 151.824219 C 255.957031 151.746094 255.800781 151.679688 255.640625 151.640625 C 254.574219 151.402344 253.546875 151.988281 253.28125 152.929688 C 253.011719 153.859375 253.566406 154.867188 254.546875 155.253906 C 254.027344 156.261719 253.558594 157.046875 253.210938 157.507812 C 253.175781 157.566406 253.136719 157.613281 253.097656 157.664062 L 253.050781 157.613281 C 252.722656 155.359375 251.21875 149.097656 251.410156 143.046875 C 251.910156 137.113281 253.691406 130.898438 254.277344 128.679688 C 254.535156 129.140625 254.957031 130.015625 255.429688 131.167969 C 254.476562 131.523438 253.902344 132.453125 254.125 133.355469 Z M 254.125 133.355469 " fill-opacity="1" fill-rule="nonzero"/><g clip-path="url(#f54d433b8e)"><path fill="#57a52c" d="M 254.46875 127.835938 C 254.277344 127.433594 262.792969 133.203125 262.214844 143.585938 C 261.757812 153.695312 253.136719 159.09375 253.058594 158.480469 L 253.058594 158.402344 C 253.585938 158.882812 258.726562 149.671875 258.542969 143.515625 C 259.1875 136.917969 254.652344 127.664062 254.441406 127.902344 Z M 254.46875 127.835938 " fill-opacity="1" fill-rule="nonzero"/></g><path fill="#57a52c" d="M 210.96875 115.023438 C 210.976562 115.023438 210.996094 115.015625 210.996094 114.996094 C 210.996094 114.984375 210.984375 114.976562 210.976562 114.96875 C 207.292969 114.46875 204.535156 114.851562 201.371094 115.523438 C 199.402344 115.945312 197.46875 116.464844 195.539062 117.023438 C 198.789062 113.738281 202.683594 111.460938 207.304688 111.433594 C 210.441406 111.414062 214.226562 113.085938 216.941406 114.660156 C 214.753906 116.65625 212.136719 118.175781 209.296875 119.019531 C 204.972656 120.304688 200.210938 120 196.058594 118.230469 C 197.851562 117.617188 199.664062 117.03125 201.492188 116.53125 C 204.570312 115.707031 207.746094 115.09375 210.96875 115.023438 Z M 210.96875 115.023438 " fill-opacity="1" fill-rule="nonzero"/><path fill="#a4c52c" d="M 239.175781 137.582031 C 239.183594 137.574219 239.195312 137.574219 239.214844 137.582031 C 239.222656 137.59375 239.234375 137.609375 239.222656 137.621094 C 237.707031 140.164062 235.65625 142.296875 233.414062 144.199219 C 232.023438 145.378906 230.554688 146.464844 229.050781 147.523438 C 233.816406 147.523438 237.976562 145.515625 240.328125 142 C 241.917969 139.617188 242.65625 136.566406 242.523438 133.300781 C 239.519531 133.453125 236.75 134.308594 234.515625 135.835938 C 231.113281 138.167969 229.003906 142.039062 228.601562 146.550781 C 230.09375 145.648438 231.5625 144.707031 232.953125 143.691406 C 235.3125 141.953125 237.496094 139.992188 239.175781 137.582031 Z M 239.175781 137.582031 " fill-opacity="1" fill-rule="nonzero"/><path fill="#a4c52c" d="M 201.550781 175.648438 C 201.542969 175.640625 201.550781 175.621094 201.5625 175.609375 C 201.570312 175.601562 201.589844 175.601562 201.597656 175.609375 C 203.554688 177.847656 204.9375 180.460938 206.058594 183.179688 C 206.75 184.867188 207.324219 186.605469 207.859375 188.355469 C 209.335938 183.8125 208.703125 179.230469 206.097656 175.910156 C 204.324219 173.652344 201.65625 172.007812 198.511719 171.136719 C 197.726562 174.046875 197.6875 176.945312 198.445312 179.539062 C 199.605469 183.503906 202.636719 186.710938 206.796875 188.488281 C 206.394531 186.789062 205.960938 185.097656 205.425781 183.457031 C 204.503906 180.679688 203.324219 177.992188 201.550781 175.648438 Z M 201.550781 175.648438 " fill-opacity="1" fill-rule="nonzero"/><path fill="#57a52c" d="M 136.667969 136.246094 C 136.660156 136.238281 136.667969 136.21875 136.675781 136.210938 C 136.6875 136.199219 136.707031 136.199219 136.714844 136.210938 C 138.671875 138.445312 140.050781 141.058594 141.175781 143.777344 C 141.863281 145.464844 142.441406 147.203125 142.976562 148.953125 C 144.453125 144.410156 143.820312 139.828125 141.210938 136.507812 C 139.4375 134.25 136.773438 132.609375 133.628906 131.734375 C 132.84375 134.644531 132.804688 137.542969 133.5625 140.136719 C 134.722656 144.101562 137.75 147.308594 141.914062 149.085938 C 141.511719 147.386719 141.078125 145.695312 140.542969 144.054688 C 139.628906 141.269531 138.441406 138.589844 136.667969 136.246094 Z M 136.667969 136.246094 " fill-opacity="1" fill-rule="nonzero"/><path fill="#157a2c" d="M 201.359375 105.375 C 201.371094 105.363281 201.378906 105.363281 201.386719 105.375 C 201.398438 105.382812 201.398438 105.394531 201.398438 105.402344 C 200.066406 107.871094 198.925781 109.292969 197.09375 110.855469 C 195.953125 111.828125 194.304688 112.691406 193.074219 113.566406 C 196.988281 113.554688 200.402344 111.894531 202.328125 109.003906 C 203.632812 107.042969 204.226562 104.539062 204.113281 101.847656 C 201.648438 101.984375 199.375 102.683594 197.542969 103.953125 C 194.753906 105.871094 193.027344 109.0625 192.703125 112.769531 C 193.929688 112.019531 195.128906 111.25 196.277344 110.40625 C 198.207031 108.976562 199.988281 107.359375 201.359375 105.375 Z M 201.359375 105.375 " fill-opacity="1" fill-rule="nonzero"/><path fill="#157a2c" d="M 250.363281 163.578125 C 250.363281 163.570312 250.363281 163.558594 250.355469 163.558594 C 250.347656 163.558594 250.335938 163.558594 250.335938 163.570312 C 249.320312 165.402344 248.886719 166.691406 248.640625 168.476562 C 248.484375 169.578125 248.609375 170.972656 248.554688 172.097656 C 246.988281 169.628906 246.664062 166.804688 247.710938 164.441406 C 248.417969 162.828125 249.75 161.445312 251.488281 160.449219 C 252.398438 162.050781 252.859375 163.769531 252.808594 165.429688 C 252.722656 167.964844 251.410156 170.328125 249.214844 172.019531 C 249.195312 170.945312 249.195312 169.878906 249.261719 168.820312 C 249.378906 167.015625 249.664062 165.25 250.363281 163.578125 Z M 250.363281 163.578125 " fill-opacity="1" fill-rule="nonzero"/><path fill="#157a2c" d="M 161.320312 97.539062 C 161.328125 97.539062 161.339844 97.539062 161.339844 97.519531 C 161.339844 97.507812 161.339844 97.5 161.328125 97.5 C 159.363281 96.789062 158.019531 96.558594 156.226562 96.597656 C 155.117188 96.617188 153.765625 96.953125 152.652344 97.078125 C 154.835938 95.136719 157.570312 94.378906 160.074219 95.039062 C 161.769531 95.492188 163.34375 96.597656 164.609375 98.152344 C 163.167969 99.304688 161.550781 100.035156 159.898438 100.234375 C 157.386719 100.542969 154.847656 99.621094 152.832031 97.710938 C 153.886719 97.519531 154.941406 97.355469 155.996094 97.257812 C 157.78125 97.09375 159.574219 97.113281 161.320312 97.539062 Z M 161.320312 97.539062 " fill-opacity="1" fill-rule="nonzero"/><path fill="#a4c52c" d="M 162.566406 178.953125 C 162.566406 178.941406 162.566406 178.933594 162.554688 178.933594 C 162.546875 178.933594 162.535156 178.933594 162.535156 178.933594 C 161.203125 180.546875 160.542969 181.726562 159.96875 183.4375 C 159.613281 184.492188 159.476562 185.886719 159.21875 186.972656 C 158.136719 184.253906 158.335938 181.421875 159.804688 179.289062 C 160.800781 177.839844 162.363281 176.726562 164.253906 176.0625 C 164.847656 177.808594 164.992188 179.585938 164.628906 181.199219 C 164.070312 183.667969 162.355469 185.75 159.871094 187.007812 C 160.042969 185.953125 160.246094 184.90625 160.515625 183.878906 C 160.953125 182.152344 161.578125 180.460938 162.566406 178.953125 Z M 162.566406 178.953125 " fill-opacity="1" fill-rule="nonzero"/><path fill="#a4c52c" d="M 123.167969 158.363281 C 123.167969 158.355469 123.160156 158.34375 123.140625 158.34375 C 123.128906 158.34375 123.121094 158.355469 123.121094 158.363281 C 122.984375 161.195312 123.234375 163.011719 124.003906 165.324219 C 124.480469 166.765625 125.460938 168.371094 126.0625 169.761719 C 122.6875 167.707031 120.609375 164.492188 120.453125 160.984375 C 120.347656 158.605469 121.144531 156.125 122.640625 153.871094 C 124.703125 155.269531 126.292969 157.078125 127.222656 159.121094 C 128.632812 162.242188 128.460938 165.902344 126.8125 169.273438 C 126.140625 167.984375 125.507812 166.691406 124.960938 165.363281 C 124.019531 163.125 123.320312 160.792969 123.167969 158.363281 Z M 123.167969 158.363281 " fill-opacity="1" fill-rule="nonzero"/><path fill="#f64b31" d="M 226.175781 135.460938 C 225.953125 133.492188 224.714844 132.050781 222.808594 131.675781 C 221.128906 131.351562 219.425781 132.339844 218.792969 133.886719 C 218.246094 135.210938 218.300781 136.6875 218.378906 138.109375 C 216.863281 136.804688 215.273438 135.449219 213.316406 135.046875 C 211.496094 134.671875 209.757812 135.5 209.03125 137.226562 C 208.101562 139.425781 209.125 140.914062 210.699219 142.421875 C 214.015625 145.601562 218.128906 147.90625 222.550781 149.171875 C 224.628906 145.1875 226.671875 139.933594 226.175781 135.460938 Z M 226.175781 135.460938 " fill-opacity="1" fill-rule="nonzero"/><g clip-path="url(#4c7d14b9f0)"><path fill="#f68820" d="M 126.761719 146.589844 C 128.085938 145.324219 128.441406 143.585938 127.644531 141.972656 C 126.9375 140.550781 125.25 139.859375 123.753906 140.261719 C 122.476562 140.605469 121.421875 141.492188 120.417969 142.34375 C 120.523438 140.492188 120.609375 138.550781 119.800781 136.882812 C 119.054688 135.324219 117.460938 134.519531 115.773438 134.960938 C 113.628906 135.519531 113.121094 137.113281 112.910156 139.128906 C 112.457031 143.375 113.089844 147.703125 114.652344 151.671875 C 118.746094 150.960938 123.761719 149.492188 126.761719 146.589844 Z M 126.761719 146.589844 " fill-opacity="1" fill-rule="nonzero"/></g><path fill="#f6c02b" d="M 175.75 146.761719 C 175.125 150.988281 171.214844 153.90625 166.996094 153.285156 C 162.785156 152.660156 159.871094 148.742188 160.484375 144.515625 C 160.6875 143.132812 161.253906 141.894531 162.046875 140.875 L 162.039062 140.875 C 165.585938 136.34375 165.480469 135.84375 165.59375 132.558594 C 165.605469 132.398438 165.613281 132.242188 165.632812 132.078125 C 165.988281 129.667969 168.222656 128 170.628906 128.355469 C 173.035156 128.710938 174.703125 130.945312 174.351562 133.355469 C 174.320312 133.519531 174.292969 133.675781 174.253906 133.828125 C 173.417969 137.015625 173.179688 137.457031 175.28125 142.816406 L 175.269531 142.816406 C 175.769531 144.035156 175.949219 145.378906 175.75 146.761719 Z M 175.75 146.761719 " fill-opacity="1" fill-rule="nonzero"/><path fill="#157a2c" d="M 161.414062 127.71875 L 161.347656 127.382812 C 161.300781 127.183594 161.253906 126.980469 161.183594 126.777344 C 160.214844 123.773438 156.984375 122.113281 153.984375 123.089844 C 150.984375 124.0625 149.324219 127.296875 150.292969 130.304688 C 150.359375 130.503906 150.4375 130.695312 150.511719 130.890625 L 150.65625 131.207031 C 151.816406 133.78125 151.960938 134.105469 150.917969 139.117188 C 150.589844 140.65625 150.675781 142.257812 151.15625 143.757812 C 152.25 147.148438 155.152344 149.433594 158.460938 149.914062 C 157.867188 148.816406 157.503906 147.628906 157.472656 146.398438 C 157.40625 143.035156 159.257812 140.722656 161.042969 138.476562 C 161.453125 137.957031 161.867188 137.449219 162.25 136.917969 C 162.929688 135.988281 163.074219 135.007812 163.246094 133.867188 C 163.332031 133.320312 163.417969 132.742188 163.574219 132.148438 C 161.992188 130.484375 161.835938 129.765625 161.414062 127.71875 Z M 153.8125 144.773438 C 153.9375 145.160156 154.082031 145.515625 154.253906 145.871094 C 154.53125 146.457031 154.042969 146.28125 153.371094 145.285156 C 152.976562 144.699219 152.652344 144.046875 152.421875 143.335938 C 151.988281 142.007812 151.953125 140.644531 152.210938 139.378906 C 153.390625 133.742188 153.074219 133.347656 151.730469 130.339844 C 151.664062 130.199219 151.605469 130.054688 151.558594 129.890625 C 151.234375 128.890625 151.289062 127.863281 151.636719 126.953125 C 152.230469 125.40625 152.84375 125.597656 152.632812 126.902344 C 152.507812 127.671875 152.566406 128.480469 152.816406 129.265625 C 152.871094 129.449219 152.9375 129.613281 153.015625 129.785156 C 154.570312 133.242188 154.933594 133.703125 153.582031 140.203125 C 153.265625 141.671875 153.3125 143.238281 153.8125 144.773438 Z M 153.8125 144.773438 " fill-opacity="1" fill-rule="nonzero"/><path fill="#157a2c" d="M 176.527344 142.335938 C 174.65625 137.574219 174.753906 137.21875 175.460938 134.5 L 175.546875 134.164062 C 175.605469 133.960938 175.644531 133.761719 175.671875 133.550781 C 176.132812 130.429688 173.964844 127.507812 170.839844 127.046875 C 167.722656 126.585938 164.808594 128.757812 164.347656 131.886719 C 164.320312 132.097656 164.300781 132.300781 164.292969 132.511719 L 164.28125 132.859375 C 164.1875 135.671875 164.175781 136.035156 161.023438 140.070312 C 160.054688 141.308594 159.421875 142.777344 159.191406 144.332031 C 158.472656 149.261719 161.886719 153.871094 166.8125 154.589844 C 171.742188 155.308594 176.335938 151.890625 177.054688 146.953125 C 177.273438 145.398438 177.09375 143.804688 176.527344 142.335938 Z M 175.75 146.761719 C 175.125 150.988281 171.214844 153.90625 166.996094 153.285156 C 162.785156 152.660156 159.871094 148.742188 160.484375 144.515625 C 160.6875 143.132812 161.253906 141.894531 162.046875 140.875 L 162.039062 140.875 C 165.585938 136.34375 165.480469 135.84375 165.59375 132.558594 C 165.605469 132.398438 165.613281 132.242188 165.632812 132.078125 C 165.988281 129.667969 168.222656 128 170.628906 128.355469 C 173.035156 128.710938 174.703125 130.945312 174.351562 133.355469 C 174.320312 133.519531 174.292969 133.675781 174.253906 133.828125 C 173.417969 137.015625 173.179688 137.457031 175.28125 142.816406 L 175.269531 142.816406 C 175.769531 144.035156 175.949219 145.378906 175.75 146.761719 Z M 175.75 146.761719 " fill-opacity="1" fill-rule="nonzero"/><path fill="#f68820" d="M 169.382812 138.976562 C 166.59375 138.5625 163.9375 140.945312 163.449219 144.285156 C 162.957031 147.628906 164.828125 150.671875 167.609375 151.074219 C 170.398438 151.488281 173.054688 149.105469 173.542969 145.765625 C 174.042969 142.421875 172.171875 139.378906 169.382812 138.976562 Z M 165.777344 143.179688 C 165.460938 143.777344 165.242188 144.457031 165.136719 145.1875 C 165.039062 145.8125 165.039062 146.425781 165.125 147.003906 C 165.269531 148 164.855469 147.945312 164.511719 146.6875 C 164.3125 145.957031 164.261719 145.160156 164.378906 144.332031 C 164.464844 143.71875 164.644531 143.152344 164.894531 142.632812 C 165.316406 141.75 166.210938 141.125 166.5625 141.164062 C 166.929688 141.203125 166.324219 142.152344 165.777344 143.179688 Z M 170.449219 140.445312 C 170.007812 140.375 169.574219 140.394531 169.152344 140.472656 C 168.445312 140.605469 167.675781 140.808594 167.359375 140.703125 C 167.042969 140.597656 167.265625 140.203125 167.964844 140.039062 C 168.375 139.953125 168.808594 139.925781 169.25 139.992188 C 169.480469 140.03125 169.710938 140.089844 169.921875 140.164062 C 170.273438 140.300781 170.523438 140.464844 170.496094 140.453125 C 170.476562 140.445312 170.457031 140.445312 170.449219 140.445312 Z M 170.449219 140.445312 " fill-opacity="1" fill-rule="nonzero"/><path fill="#157a2c" d="M 226.683594 173.59375 C 224.277344 171.386719 222.914062 166.421875 223.085938 163.261719 C 224.046875 163.058594 225.089844 162.925781 226.050781 162.925781 C 224.496094 166.230469 224.984375 170.722656 227.804688 173.230469 Z M 226.683594 173.59375 " fill-opacity="1" fill-rule="nonzero"/><path fill="#157a2c" d="M 219.75 167.910156 C 222.464844 168.214844 224.382812 171.050781 224.382812 171.050781 C 224.382812 171.050781 221.886719 173.402344 219.175781 173.09375 C 216.460938 172.789062 214.542969 169.945312 214.542969 169.945312 C 214.542969 169.945312 217.027344 167.601562 219.75 167.910156 Z M 219.75 167.910156 " fill-opacity="1" fill-rule="nonzero"/><path fill="#f64b31" d="M 231.410156 164.882812 C 228.707031 165.835938 226.386719 168.878906 226.050781 171.875 C 223.039062 172.125 219.941406 174.363281 218.914062 177.042969 C 217.59375 180.488281 220.402344 184.15625 222.835938 186.386719 C 226.460938 189.699219 232.023438 190.417969 236.011719 187.152344 C 236.902344 186.425781 237.679688 185.359375 238.015625 184.207031 C 239.167969 183.90625 240.257812 183.160156 241.007812 182.285156 C 244.382812 178.386719 243.824219 172.796875 240.613281 169.070312 C 238.476562 166.574219 234.898438 163.65625 231.410156 164.882812 Z M 238.09375 171.769531 C 237.285156 170.503906 236.585938 169.234375 235.195312 168.484375 C 234.046875 167.859375 231.542969 167.113281 229.960938 167.621094 C 233.183594 165.96875 240.625 167.535156 238.09375 171.769531 Z M 238.09375 171.769531 " fill-opacity="1" fill-rule="nonzero"/><path fill="#7f3068" d="M 166.046875 118.683594 C 168.972656 119.222656 171.722656 119.710938 174.378906 120.691406 C 175.75 121.191406 177.09375 121.8125 178.425781 122.640625 C 179.316406 123.195312 180.292969 123.820312 181.3125 124.378906 C 181.636719 124.097656 182.039062 123.820312 182.480469 123.570312 C 181.511719 123.089844 180.542969 122.496094 179.652344 121.9375 L 179.078125 121.582031 C 177.753906 120.757812 176.355469 120.085938 174.800781 119.519531 C 172.125 118.539062 169.410156 118.039062 166.535156 117.511719 L 166.265625 117.464844 C 160.015625 116.3125 159.652344 113.335938 159.917969 111.203125 C 160.160156 109.273438 160.695312 107.6875 161.519531 106.4375 C 161.242188 107.179688 161.003906 107.984375 160.832031 108.878906 C 160.410156 111.117188 160.601562 114.277344 167.109375 115.917969 L 167.390625 115.984375 C 170.390625 116.734375 173.226562 117.445312 175.980469 118.664062 C 177.582031 119.367188 179.007812 120.171875 180.351562 121.132812 L 180.925781 121.546875 C 181.675781 122.082031 182.488281 122.667969 183.316406 123.1875 C 183.457031 123.128906 183.59375 123.0625 183.738281 123.015625 C 183.246094 122.3125 182.910156 121.441406 182.738281 120.394531 L 182.605469 119.578125 L 183.4375 119.585938 C 183.476562 119.585938 186.125 119.664062 187.898438 120.25 C 187.859375 118.921875 188.203125 117.398438 189.105469 116.589844 C 187.332031 112.132812 183.066406 107.535156 179.957031 105.488281 C 173.59375 101.300781 160.285156 98.21875 158.671875 111.058594 C 158.070312 116.015625 161.875 117.90625 166.046875 118.683594 Z M 166.046875 118.683594 " fill-opacity="1" fill-rule="nonzero"/><path fill="#157a2c" d="M 181.320312 125.339844 C 183.402344 126.375 185.386719 127.210938 187.734375 126.972656 C 189.125 126.835938 190.304688 126.816406 191.015625 127.894531 L 192.289062 126.742188 C 190.851562 125.175781 191.273438 124.023438 191.3125 123.273438 C 191.359375 122.371094 191.4375 121.132812 191.148438 120.269531 C 190.792969 119.171875 190.191406 118.03125 189.632812 117.03125 C 188.539062 117.933594 188.425781 120.304688 188.800781 121.546875 C 188.53125 120.671875 184.265625 120.277344 183.4375 120.269531 C 183.667969 121.660156 184.253906 123.003906 185.566406 123.714844 C 184.320312 123.035156 182.117188 124.40625 181.320312 125.339844 Z M 181.320312 125.339844 " fill-opacity="1" fill-rule="nonzero"/><path fill="#157a2c" d="M 166.125 209.558594 C 166.019531 209.421875 165.894531 209.289062 165.777344 209.164062 C 163.1875 206.4375 156.4375 206.359375 152.96875 207.761719 L 152.324219 206.101562 C 156.402344 204.582031 163.390625 204.402344 167.035156 207.898438 C 167.207031 208.058594 167.359375 208.242188 167.511719 208.425781 Z M 166.125 209.558594 " fill-opacity="1" fill-rule="nonzero"/><path fill="#157a2c" d="M 167.496094 207.082031 C 165.941406 205.515625 164.980469 202.96875 164.578125 200.347656 C 164.195312 197.71875 164.367188 195.007812 165.507812 193.058594 L 167.035156 193.972656 C 166.21875 195.308594 165.96875 197.738281 166.335938 200.089844 C 166.667969 202.441406 167.617188 204.726562 168.742188 205.832031 C 168.75 205.839844 168.761719 205.851562 168.777344 205.871094 L 167.5625 207.167969 C 167.5625 207.136719 167.53125 207.109375 167.496094 207.082031 Z M 167.496094 207.082031 " fill-opacity="1" fill-rule="nonzero"/><path fill="#157a2c" d="M 166.035156 206.582031 C 163.015625 203.507812 161.011719 198.199219 160.878906 194.882812 L 162.652344 194.828125 C 162.699219 197.507812 164.695312 202.777344 167.292969 205.3125 C 167.925781 205.945312 168.578125 206.40625 169.210938 206.667969 L 168.539062 208.320312 C 167.628906 207.945312 166.792969 207.328125 166.035156 206.582031 Z M 166.035156 206.582031 " fill-opacity="1" fill-rule="nonzero"/><path fill="#157a2c" d="M 166.871094 206.53125 C 165.949219 205.964844 165.03125 205.21875 164.148438 204.332031 C 161.558594 201.75 159.316406 198.179688 158.050781 195.785156 L 156.476562 196.621094 C 157.808594 199.121094 160.09375 202.796875 162.890625 205.59375 C 163.746094 206.4375 164.644531 207.207031 165.59375 207.828125 C 165.980469 207.367188 166.410156 206.9375 166.871094 206.53125 Z M 166.871094 206.53125 " fill-opacity="1" fill-rule="nonzero"/><path fill="#157a2c" d="M 153.851562 202.328125 L 153.992188 200.550781 C 158.511719 200.972656 162.519531 204.863281 165.730469 207.03125 L 164.722656 208.5 C 161.386719 206.160156 157.398438 202.578125 153.851562 202.328125 Z M 153.851562 202.328125 " fill-opacity="1" fill-rule="nonzero"/><g clip-path="url(#3cea52ab59)"><path fill="#f68820" d="M 164.1875 204.535156 C 162.132812 206.601562 161.933594 209.808594 165.125 213.734375 C 164.867188 213.417969 164.628906 213.101562 164.40625 212.785156 C 166.046875 211.171875 167.800781 209.75 169.976562 208.761719 C 168.75 210.027344 166.449219 211.890625 165.125 213.734375 C 165.546875 214.253906 166.027344 214.78125 166.5625 215.328125 C 166.351562 215.117188 166.171875 214.917969 165.980469 214.707031 C 167.636719 213.0625 169.421875 211.613281 171.625 210.59375 C 170.410156 211.851562 168.128906 213.714844 166.792969 215.539062 C 167.082031 215.820312 167.390625 216.117188 167.742188 216.433594 C 169.375 214.828125 171.117188 213.429688 173.277344 212.4375 C 172.105469 213.648438 169.9375 215.425781 168.585938 217.191406 C 169.144531 217.671875 169.746094 218.191406 170.390625 218.71875 C 170.121094 218.5 169.851562 218.277344 169.605469 218.066406 C 171.167969 216.558594 172.863281 215.222656 174.925781 214.28125 C 173.8125 215.433594 171.800781 217.085938 170.449219 218.765625 C 170.792969 219.054688 171.15625 219.34375 171.53125 219.640625 C 173.027344 218.238281 174.628906 217.011719 176.574219 216.117188 C 175.527344 217.191406 173.6875 218.71875 172.347656 220.292969 C 172.117188 220.113281 171.886719 219.929688 171.65625 219.757812 C 172.25 220.226562 172.863281 220.707031 173.488281 221.195312 C 174.886719 219.917969 176.402344 218.796875 178.214844 217.96875 C 177.246094 218.96875 175.597656 220.351562 174.292969 221.800781 C 180.351562 226.371094 187.496094 230.828125 189.011719 229.300781 C 191.332031 226.96875 179.632812 211.527344 174.964844 206.867188 C 170.304688 202.222656 166.507812 202.203125 164.1875 204.535156 Z M 182.625 227.429688 C 182.402344 227.304688 182.183594 227.171875 181.960938 227.046875 C 182.84375 226.402344 183.773438 225.824219 184.808594 225.355469 C 184.253906 225.929688 183.449219 226.652344 182.625 227.429688 Z M 180.4375 226.105469 C 180.199219 225.960938 179.96875 225.796875 179.71875 225.644531 C 180.765625 224.816406 181.894531 224.085938 183.160156 223.511719 C 182.480469 224.210938 181.445312 225.113281 180.4375 226.105469 Z M 178.339844 224.710938 C 178.089844 224.539062 177.839844 224.367188 177.589844 224.191406 C 178.769531 223.203125 180.046875 222.332031 181.523438 221.65625 C 180.726562 222.484375 179.480469 223.558594 178.339844 224.710938 Z M 176.296875 223.28125 C 176.039062 223.097656 175.777344 222.90625 175.519531 222.714844 C 176.824219 221.570312 178.222656 220.574219 179.871094 219.824219 C 178.980469 220.734375 177.53125 221.964844 176.296875 223.28125 Z M 176.296875 223.28125 " fill-opacity="1" fill-rule="nonzero"/></g><path fill="#57a52c" d="M 146.3125 112.605469 C 147.972656 110.847656 149.527344 110.5 151.828125 110.605469 C 148.71875 109.222656 145.699219 108.636719 142.601562 110.097656 C 140.351562 111.15625 137.769531 112.875 136.957031 115.359375 C 136.476562 116.839844 136.4375 118.980469 138.363281 119.144531 C 141.414062 119.382812 143.753906 115.3125 146.3125 112.605469 Z M 146.3125 112.605469 " fill-opacity="1" fill-rule="nonzero"/><path fill="#57a52c" d="M 134.046875 120.695312 L 136.605469 115.492188 L 139.183594 116.761719 L 136.628906 121.96875 Z M 134.046875 120.695312 " fill-opacity="1" fill-rule="nonzero"/><path fill="#57a52c" d="M 140.109375 100.082031 C 139.238281 98.832031 138.183594 97.691406 137.386719 96.882812 C 137.925781 98.390625 137.933594 99.59375 137.714844 100.890625 C 138.085938 101.226562 138.421875 101.582031 138.738281 101.933594 C 139.179688 101.300781 139.628906 100.6875 140.109375 100.082031 Z M 140.109375 100.082031 " fill-opacity="1" fill-rule="nonzero"/><path fill="#57a52c" d="M 148.546875 109.082031 C 149.546875 108.234375 150.65625 107.542969 152.007812 107.484375 C 150.925781 106.890625 149.59375 106.554688 148.230469 106.4375 C 147.972656 107.285156 147.683594 108.109375 147.386719 108.898438 C 147.761719 108.9375 148.15625 108.992188 148.546875 109.082031 Z M 148.546875 109.082031 " fill-opacity="1" fill-rule="nonzero"/><path fill="#57a52c" d="M 140.722656 111.414062 C 141.195312 108.832031 141.175781 106.707031 140.226562 104.921875 C 138.816406 102.28125 137.28125 100.410156 132.898438 98.371094 C 138.910156 103.828125 130.359375 111.75 134.492188 116.898438 C 138.308594 121.652344 140.253906 114.007812 140.722656 111.414062 Z M 135.605469 116.773438 C 135.46875 116.636719 135.34375 116.492188 135.210938 116.320312 C 133.589844 114.304688 134.28125 111.722656 135.085938 108.734375 C 135.21875 108.234375 135.5 107.417969 135.691406 106.601562 C 135.96875 105.410156 135.796875 104.539062 135.863281 104.691406 C 135.902344 104.789062 135.929688 104.875 135.957031 104.96875 C 136.726562 107.226562 135.84375 109.222656 135.660156 111.585938 C 135.410156 114.679688 135.832031 117.011719 135.605469 116.773438 Z M 135.605469 116.773438 " fill-opacity="1" fill-rule="nonzero"/><path fill="#157a2c" d="M 184.523438 174.304688 C 185.546875 173.824219 189.210938 173.019531 188.414062 171.546875 C 187.398438 169.65625 182.980469 172.335938 182.078125 173.25 C 180.773438 170.644531 182.558594 168.234375 181.789062 165.785156 C 180.621094 162.042969 176.765625 164.277344 176.851562 167.582031 C 173.160156 162.320312 165.960938 167.21875 171.089844 170.550781 C 173.851562 172.335938 175.347656 171.289062 178.203125 172.46875 C 180.523438 173.429688 181.136719 174.917969 181.328125 176.753906 C 181.425781 176.742188 181.53125 176.753906 181.636719 176.78125 C 182.5 177.023438 183.382812 177.1875 184.035156 177.753906 C 185.019531 177.492188 186.179688 177.511719 187.390625 177.417969 C 193.152344 176.964844 187.972656 174.027344 184.523438 174.304688 Z M 184.523438 174.304688 " fill-opacity="1" fill-rule="nonzero"/><path fill="#7f3068" d="M 182.117188 176.417969 C 178.078125 175.21875 173.929688 177.214844 172.84375 180.882812 C 171.292969 186.136719 177.285156 187.894531 176.441406 194.75 C 179.316406 188.804688 185.703125 191.140625 187.457031 185.222656 C 188.539062 181.566406 186.152344 177.617188 182.117188 176.417969 Z M 173.839844 182.246094 C 173.707031 182.6875 173.660156 183.101562 173.628906 183.496094 C 173.476562 182.785156 173.488281 182.027344 173.746094 181.152344 C 174.683594 177.992188 178.320312 176.273438 181.847656 177.320312 C 182.355469 177.472656 182.824219 177.675781 183.265625 177.914062 C 179.066406 176.832031 174.886719 178.722656 173.839844 182.246094 Z M 173.839844 182.246094 " fill-opacity="1" fill-rule="nonzero"/><path fill="#f64b31" d="M 129.496094 118.941406 C 129.304688 118.855469 129.101562 118.769531 128.902344 118.671875 C 128.929688 119.441406 128.863281 120.164062 128.855469 120.199219 L 128.75 121.316406 L 128.078125 120.421875 C 128.039062 120.375 127.273438 119.347656 126.726562 118.414062 C 125.949219 118.902344 125.046875 119.289062 125 119.308594 L 124.355469 119.578125 L 124.394531 118.875 C 124.40625 118.816406 124.472656 117.695312 124.710938 116.753906 C 123.65625 116.542969 122.4375 116.167969 122.382812 116.148438 L 121.316406 115.8125 L 122.324219 115.339844 C 122.363281 115.324219 123.015625 115.015625 123.742188 114.785156 C 123.628906 114.667969 123.511719 114.542969 123.398438 114.417969 C 121.085938 114.027344 118.824219 114.738281 117.578125 116.492188 C 115.71875 119.132812 114.796875 126.019531 118.039062 128.316406 C 121.277344 130.609375 127.453125 127.441406 129.3125 124.789062 C 130.492188 123.128906 130.484375 120.921875 129.496094 118.941406 Z M 123.042969 118.480469 C 123.167969 118.566406 123.109375 118.867188 122.910156 119.144531 C 122.71875 119.421875 122.457031 119.578125 122.332031 119.488281 C 122.210938 119.402344 122.265625 119.105469 122.46875 118.828125 C 122.667969 118.550781 122.929688 118.394531 123.042969 118.480469 Z M 119.734375 123.175781 C 119.859375 123.265625 119.800781 123.5625 119.601562 123.839844 C 119.398438 124.117188 119.140625 124.273438 119.027344 124.1875 C 118.902344 124.097656 118.957031 123.800781 119.160156 123.523438 C 119.351562 123.253906 119.609375 123.089844 119.734375 123.175781 Z M 119.925781 119.730469 C 120.050781 119.816406 119.992188 120.113281 119.792969 120.394531 C 119.589844 120.671875 119.332031 120.824219 119.21875 120.738281 C 119.09375 120.652344 119.148438 120.355469 119.351562 120.074219 C 119.542969 119.796875 119.800781 119.644531 119.925781 119.730469 Z M 117.433594 122.535156 C 117.183594 122.515625 116.992188 122.285156 116.886719 121.871094 C 116.550781 120.480469 117.519531 118.183594 118.304688 117.070312 C 119.101562 115.9375 120.195312 115.570312 120.925781 115.464844 C 119.410156 116.367188 118.796875 118.492188 118.527344 120.125 C 118.429688 120.738281 118.546875 121.8125 118.019531 122.273438 C 117.808594 122.46875 117.605469 122.554688 117.433594 122.535156 Z M 118.652344 127.394531 C 118.527344 127.308594 118.585938 127.007812 118.785156 126.730469 C 118.976562 126.453125 119.238281 126.296875 119.359375 126.386719 C 119.484375 126.472656 119.417969 126.769531 119.226562 127.046875 C 119.035156 127.328125 118.777344 127.480469 118.652344 127.394531 Z M 121.96875 122.6875 C 121.84375 122.601562 121.902344 122.304688 122.105469 122.023438 C 122.304688 121.746094 122.554688 121.59375 122.679688 121.679688 C 122.804688 121.765625 122.746094 122.0625 122.542969 122.34375 C 122.351562 122.621094 122.09375 122.773438 121.96875 122.6875 Z M 121.777344 126.144531 C 121.652344 126.058594 121.710938 125.761719 121.910156 125.484375 C 122.105469 125.203125 122.363281 125.050781 122.488281 125.136719 C 122.613281 125.222656 122.542969 125.519531 122.351562 125.800781 C 122.160156 126.066406 121.902344 126.230469 121.777344 126.144531 Z M 125.09375 121.441406 C 124.96875 121.351562 125.027344 121.054688 125.230469 120.777344 C 125.429688 120.5 125.691406 120.34375 125.804688 120.429688 C 125.929688 120.519531 125.871094 120.816406 125.671875 121.09375 C 125.480469 121.371094 125.21875 121.527344 125.09375 121.441406 Z M 124.730469 124.636719 C 124.605469 124.550781 124.664062 124.253906 124.863281 123.976562 C 125.066406 123.695312 125.316406 123.542969 125.441406 123.628906 C 125.566406 123.714844 125.507812 124.011719 125.304688 124.292969 C 125.113281 124.570312 124.855469 124.722656 124.730469 124.636719 Z M 127.855469 123.390625 C 127.730469 123.300781 127.789062 123.003906 127.992188 122.726562 C 128.191406 122.449219 128.441406 122.292969 128.566406 122.378906 C 128.691406 122.46875 128.632812 122.765625 128.433594 123.042969 C 128.230469 123.320312 127.972656 123.476562 127.855469 123.390625 Z M 127.855469 123.390625 " fill-opacity="1" fill-rule="nonzero"/><path fill="#157a2c" d="M 128.414062 117.953125 C 129.59375 118.566406 131.296875 119.203125 131.296875 119.203125 C 131.296875 119.203125 129.984375 117.800781 128.949219 116.9375 C 129.890625 116.761719 130.992188 116.292969 130.992188 116.292969 C 130.992188 116.292969 129.457031 115.785156 128.34375 115.570312 C 128.625 114.9375 128.757812 113.910156 128.757812 113.910156 C 128.757812 113.910156 127.644531 114.1875 127.003906 114.554688 C 126.484375 113.566406 125.285156 112.027344 125.285156 112.027344 C 125.285156 112.027344 125.210938 113.230469 125.363281 114.171875 C 124.203125 113.488281 122.4375 112.710938 122.4375 112.710938 C 122.4375 112.710938 123.609375 114.113281 124.585938 115.015625 C 123.648438 115.199219 122.496094 115.734375 122.496094 115.734375 C 122.496094 115.734375 124.15625 116.253906 125.257812 116.417969 C 124.921875 117.347656 124.828125 118.902344 124.828125 118.902344 C 124.828125 118.902344 126.074219 118.375 126.867188 117.800781 C 127.386719 118.78125 128.421875 120.164062 128.421875 120.164062 C 128.421875 120.164062 128.554688 118.894531 128.414062 117.953125 Z M 128.414062 117.953125 " fill-opacity="1" fill-rule="nonzero"/><path fill="#57a52c" d="M 210.21875 155.359375 C 208.753906 157.5 208.550781 160.324219 209.632812 163.039062 C 209.894531 161.945312 210.027344 160.5625 210.382812 159.507812 C 210.957031 157.796875 211.621094 156.617188 212.953125 155.003906 C 212.953125 154.992188 212.972656 154.992188 212.972656 155.003906 C 212.980469 155.011719 212.980469 155.011719 212.980469 155.023438 C 211.992188 156.53125 211.371094 158.21875 210.917969 159.949219 C 210.652344 160.976562 210.457031 162.023438 210.277344 163.078125 C 212.75 161.820312 214.476562 159.746094 215.03125 157.269531 C 215.398438 155.644531 215.253906 153.878906 214.660156 152.132812 C 212.78125 152.792969 211.207031 153.90625 210.21875 155.359375 Z M 210.21875 155.359375 " fill-opacity="1" fill-rule="nonzero"/><path fill="#f6c02b" d="M 189.507812 203.230469 C 189.585938 203.191406 189.664062 203.179688 189.730469 203.179688 C 192.664062 202.59375 196.308594 201.886719 199.894531 199.917969 C 202.789062 198.464844 205.242188 196.59375 207.292969 194.953125 C 205.289062 195.988281 202.585938 197.679688 198.953125 198.101562 C 192.902344 199.1875 189.046875 196.988281 187.234375 197.699219 C 186.363281 198.121094 186.410156 200.464844 188.867188 202.683594 C 189.058594 202.882812 189.289062 203.039062 189.507812 203.230469 Z M 189.507812 203.230469 " fill-opacity="1" fill-rule="nonzero"/><path fill="#f6c02b" d="M 204.8125 205.304688 C 208.121094 202.132812 212.183594 197.574219 212.769531 192.15625 C 210.210938 193.464844 206.152344 197.9375 200.390625 200.828125 C 193.230469 204.765625 185.796875 203.871094 184.933594 206.195312 C 184.589844 207.242188 186.21875 209.058594 189.855469 210.171875 C 192.117188 210.882812 195.214844 211.074219 198.511719 210.449219 C 200.476562 209.066406 202.769531 207.378906 204.8125 205.304688 Z M 204.8125 205.304688 " fill-opacity="1" fill-rule="nonzero"/><path fill="#f6c02b" d="M 216.691406 188.46875 C 215.359375 188.507812 214.90625 188.277344 213.625 188.25 C 215.148438 195.785156 209.730469 202.019531 205.550781 206.035156 C 200.226562 211.480469 193.496094 214.015625 193.863281 216.300781 C 193.851562 218.335938 203.21875 219.441406 211.199219 211.652344 C 214.179688 208.644531 216.507812 204.488281 216.757812 200.167969 C 216.875 198.417969 216.566406 196.804688 216.269531 195.09375 C 216.183594 194.492188 215.875 188.488281 216.691406 188.46875 Z M 216.691406 188.46875 " fill-opacity="1" fill-rule="nonzero"/><path fill="#f6c02b" d="M 132.890625 98.371094 C 132.890625 98.371094 132.898438 98.371094 132.898438 98.382812 C 132.898438 98.363281 132.890625 98.363281 132.890625 98.371094 C 132.8125 98.324219 132.8125 98.324219 132.890625 98.371094 Z M 132.890625 98.371094 " fill-opacity="1" fill-rule="nonzero"/><g clip-path="url(#41464163c0)"><path fill="#f6c02b" d="M 146.917969 108.839844 C 147.03125 108.851562 147.167969 108.867188 147.28125 108.878906 C 147.320312 108.878906 147.347656 108.886719 147.386719 108.886719 C 147.683594 108.101562 147.972656 107.273438 148.230469 106.429688 C 149.878906 101.070312 150.601562 95.050781 148.5 94.011719 C 147.320312 93.4375 145.449219 94.503906 143.464844 96.367188 C 143.707031 96.210938 144.078125 96.222656 144.433594 96.394531 C 144.914062 96.625 145.164062 97.085938 145 97.414062 C 144.835938 97.738281 144.320312 97.816406 143.851562 97.585938 C 143.371094 97.355469 143.121094 96.894531 143.285156 96.566406 C 143.324219 96.492188 143.390625 96.421875 143.464844 96.367188 C 142.355469 97.402344 141.203125 98.699219 140.109375 100.082031 C 139.640625 100.6875 139.179688 101.300781 138.738281 101.925781 C 138.757812 101.945312 138.769531 101.964844 138.785156 101.984375 C 138.824219 102.023438 138.855469 102.070312 138.890625 102.109375 C 139.296875 101.898438 139.910156 101.90625 140.484375 102.183594 C 141.300781 102.589844 141.730469 103.367188 141.453125 103.933594 C 141.289062 104.269531 140.90625 104.441406 140.457031 104.453125 C 140.503906 104.539062 140.550781 104.632812 140.597656 104.71875 C 140.808594 105.125 140.984375 105.546875 141.117188 105.996094 C 141.519531 105.824219 142.085938 105.863281 142.613281 106.121094 C 143.429688 106.527344 143.859375 107.304688 143.582031 107.859375 C 143.304688 108.425781 142.421875 108.550781 141.617188 108.160156 C 141.546875 108.128906 141.492188 108.089844 141.433594 108.054688 C 141.441406 108.175781 141.441406 108.300781 141.453125 108.4375 C 141.460938 108.445312 141.472656 108.445312 141.480469 108.445312 C 142.066406 108.734375 142.449219 109.222656 142.515625 109.683594 C 143.042969 109.4375 143.582031 109.261719 144.128906 109.117188 C 143.878906 108.761719 143.800781 108.371094 143.957031 108.054688 C 144.234375 107.484375 145.117188 107.359375 145.929688 107.765625 C 146.4375 108.015625 146.792969 108.425781 146.917969 108.839844 Z M 148.480469 104.289062 C 148.210938 104.835938 147.445312 105.019531 146.785156 104.683594 C 146.113281 104.355469 145.785156 103.636719 146.066406 103.089844 C 146.332031 102.539062 147.101562 102.359375 147.761719 102.695312 C 148.433594 103.03125 148.757812 103.742188 148.480469 104.289062 Z M 149.152344 101.898438 C 148.96875 102.28125 148.367188 102.367188 147.820312 102.097656 C 147.273438 101.820312 146.976562 101.292969 147.167969 100.917969 C 147.347656 100.535156 147.953125 100.445312 148.5 100.714844 C 149.046875 100.984375 149.335938 101.511719 149.152344 101.898438 Z M 149.613281 99.6875 C 149.449219 100.015625 148.929688 100.089844 148.453125 99.859375 C 147.972656 99.628906 147.722656 99.167969 147.886719 98.84375 C 148.050781 98.515625 148.566406 98.441406 149.035156 98.671875 C 149.515625 98.902344 149.773438 99.363281 149.613281 99.6875 Z M 149.621094 97.875 C 149.496094 98.125 149.113281 98.179688 148.757812 98 C 148.402344 97.824219 148.210938 97.480469 148.335938 97.238281 C 148.460938 96.988281 148.84375 96.941406 149.199219 97.113281 C 149.554688 97.277344 149.746094 97.625 149.621094 97.875 Z M 147.589844 94.328125 C 147.714844 94.082031 148.097656 94.023438 148.453125 94.203125 C 148.808594 94.378906 149 94.722656 148.875 94.964844 C 148.75 95.214844 148.367188 95.269531 148.011719 95.089844 C 147.65625 94.914062 147.464844 94.570312 147.589844 94.328125 Z M 146.515625 95.625 C 146.707031 95.234375 147.332031 95.136719 147.90625 95.425781 C 148.480469 95.703125 148.789062 96.25 148.585938 96.652344 C 148.394531 97.046875 147.769531 97.144531 147.195312 96.855469 C 146.628906 96.578125 146.324219 96.03125 146.515625 95.625 Z M 147.070312 97.152344 C 147.78125 97.5 148.15625 98.179688 147.914062 98.671875 C 147.675781 99.160156 146.910156 99.277344 146.199219 98.929688 C 145.488281 98.574219 145.117188 97.902344 145.355469 97.402344 C 145.59375 96.914062 146.363281 96.808594 147.070312 97.152344 Z M 144.710938 95.445312 C 144.835938 95.195312 145.222656 95.136719 145.574219 95.320312 C 145.929688 95.492188 146.121094 95.835938 145.996094 96.078125 C 145.871094 96.328125 145.488281 96.386719 145.132812 96.203125 C 144.78125 96.039062 144.589844 95.695312 144.710938 95.445312 Z M 144.0625 99.457031 C 144.339844 98.890625 145.222656 98.765625 146.035156 99.160156 C 146.851562 99.5625 147.28125 100.339844 147.003906 100.90625 C 146.726562 101.464844 145.84375 101.597656 145.039062 101.195312 C 144.214844 100.792969 143.78125 100.015625 144.0625 99.457031 Z M 145.863281 103.222656 C 145.585938 103.789062 144.703125 103.914062 143.898438 103.511719 C 143.082031 103.105469 142.652344 102.328125 142.929688 101.773438 C 143.207031 101.207031 144.089844 101.082031 144.90625 101.472656 C 145.699219 101.886719 146.132812 102.664062 145.863281 103.222656 Z M 141.816406 98.277344 C 142.007812 97.894531 142.601562 97.804688 143.148438 98.074219 C 143.695312 98.34375 143.992188 98.871094 143.800781 99.257812 C 143.609375 99.640625 143.023438 99.726562 142.46875 99.457031 C 141.921875 99.1875 141.625 98.660156 141.816406 98.277344 Z M 141.050781 101.859375 C 140.417969 101.550781 140.101562 100.890625 140.292969 100.359375 C 140.292969 100.359375 140.300781 100.351562 140.300781 100.351562 C 140.300781 100.351562 140.300781 100.339844 140.300781 100.339844 C 140.3125 100.320312 140.3125 100.292969 140.332031 100.265625 C 140.597656 99.71875 141.367188 99.535156 142.027344 99.871094 C 142.699219 100.199219 143.023438 100.917969 142.746094 101.464844 C 142.476562 102.011719 141.710938 102.195312 141.050781 101.859375 Z M 144.722656 105.546875 C 144.445312 106.113281 143.5625 106.238281 142.757812 105.835938 C 141.941406 105.429688 141.511719 104.652344 141.789062 104.097656 C 142.066406 103.53125 142.949219 103.40625 143.761719 103.796875 C 144.558594 104.203125 144.992188 104.988281 144.722656 105.546875 Z M 145.871094 107.378906 C 145.058594 106.976562 144.625 106.199219 144.90625 105.640625 C 145.183594 105.074219 146.066406 104.949219 146.878906 105.355469 C 147.695312 105.757812 148.125 106.535156 147.847656 107.101562 C 147.558594 107.648438 146.679688 107.785156 145.871094 107.378906 Z M 145.871094 107.378906 " fill-opacity="1" fill-rule="nonzero"/></g><path fill="#f64b31" d="M 210.527344 101.839844 C 211.953125 101.839844 213.113281 100.675781 213.113281 99.246094 C 213.113281 97.816406 211.953125 96.652344 210.527344 96.652344 C 209.097656 96.652344 207.9375 97.816406 207.9375 99.246094 C 207.9375 100.675781 209.097656 101.839844 210.527344 101.839844 Z M 210.527344 101.839844 " fill-opacity="1" fill-rule="nonzero"/><path fill="#f68820" d="M 211.160156 108.839844 C 211.859375 108.839844 212.433594 108.273438 212.433594 107.5625 C 212.433594 106.863281 211.859375 106.285156 211.160156 106.285156 C 210.457031 106.285156 209.882812 106.851562 209.882812 107.5625 C 209.882812 108.273438 210.449219 108.839844 211.160156 108.839844 Z M 211.160156 108.839844 " fill-opacity="1" fill-rule="nonzero"/><path fill="#f64b31" d="M 255.601562 114.871094 C 254.191406 114.871094 253.058594 116.015625 253.058594 117.414062 C 253.058594 118.828125 254.199219 119.960938 255.601562 119.960938 C 257 119.960938 258.140625 118.816406 258.140625 117.414062 C 258.152344 116.015625 257.011719 114.871094 255.601562 114.871094 Z M 255.601562 114.871094 " fill-opacity="1" fill-rule="nonzero"/><path fill="#f68820" d="M 259.40625 123.042969 C 258.707031 123.042969 258.140625 123.609375 258.140625 124.3125 C 258.140625 125.011719 258.707031 125.578125 259.40625 125.578125 C 260.105469 125.578125 260.671875 125.011719 260.671875 124.3125 C 260.671875 123.609375 260.105469 123.042969 259.40625 123.042969 Z M 259.40625 123.042969 " fill-opacity="1" fill-rule="nonzero"/><path fill="#f6c02b" d="M 229.40625 153.359375 C 228.523438 153.359375 227.804688 154.082031 227.804688 154.964844 C 227.804688 155.847656 228.523438 156.566406 229.40625 156.566406 C 230.289062 156.566406 231.007812 155.847656 231.007812 154.964844 C 231.007812 154.082031 230.296875 153.359375 229.40625 153.359375 Z M 229.40625 153.359375 " fill-opacity="1" fill-rule="nonzero"/><path fill="#f68820" d="M 224.371094 194.578125 C 223.066406 194.578125 222.003906 195.632812 222.003906 196.949219 C 222.003906 198.265625 223.058594 199.320312 224.371094 199.320312 C 225.675781 199.320312 226.738281 198.265625 226.738281 196.949219 C 226.738281 195.632812 225.675781 194.578125 224.371094 194.578125 Z M 224.371094 194.578125 " fill-opacity="1" fill-rule="nonzero"/><path fill="#f6c02b" d="M 178.222656 200.289062 C 178.222656 200.449219 178.191406 200.601562 178.132812 200.75 C 178.070312 200.898438 177.984375 201.027344 177.871094 201.140625 C 177.761719 201.253906 177.628906 201.339844 177.484375 201.398438 C 177.335938 201.460938 177.183594 201.492188 177.023438 201.492188 C 176.867188 201.492188 176.714844 201.460938 176.566406 201.398438 C 176.417969 201.339844 176.289062 201.253906 176.175781 201.140625 C 176.066406 201.027344 175.976562 200.898438 175.917969 200.75 C 175.855469 200.601562 175.828125 200.449219 175.828125 200.289062 C 175.828125 200.132812 175.855469 199.980469 175.917969 199.832031 C 175.976562 199.683594 176.066406 199.554688 176.175781 199.441406 C 176.289062 199.328125 176.417969 199.242188 176.566406 199.183594 C 176.714844 199.121094 176.867188 199.089844 177.023438 199.089844 C 177.183594 199.089844 177.335938 199.121094 177.484375 199.183594 C 177.628906 199.242188 177.761719 199.328125 177.871094 199.441406 C 177.984375 199.554688 178.070312 199.683594 178.132812 199.832031 C 178.191406 199.980469 178.222656 200.132812 178.222656 200.289062 Z M 178.222656 200.289062 " fill-opacity="1" fill-rule="nonzero"/><path fill="#57a52c" d="M 148.664062 190.035156 C 147.359375 190.035156 146.304688 191.089844 146.304688 192.398438 C 146.304688 193.703125 147.359375 194.757812 148.664062 194.757812 C 149.96875 194.757812 151.023438 193.703125 151.023438 192.398438 C 151.023438 191.089844 149.96875 190.035156 148.664062 190.035156 Z M 148.664062 190.035156 " fill-opacity="1" fill-rule="nonzero"/><path fill="#f68820" d="M 166.601562 160.976562 C 166.601562 161.238281 166.550781 161.488281 166.453125 161.730469 C 166.351562 161.96875 166.210938 162.183594 166.027344 162.367188 C 165.84375 162.550781 165.628906 162.695312 165.390625 162.792969 C 165.148438 162.894531 164.898438 162.945312 164.636719 162.945312 C 164.375 162.945312 164.125 162.894531 163.882812 162.792969 C 163.644531 162.695312 163.429688 162.550781 163.246094 162.367188 C 163.0625 162.183594 162.921875 161.96875 162.820312 161.730469 C 162.722656 161.488281 162.671875 161.238281 162.671875 160.976562 C 162.671875 160.714844 162.722656 160.464844 162.820312 160.222656 C 162.921875 159.980469 163.0625 159.769531 163.246094 159.582031 C 163.429688 159.398438 163.644531 159.257812 163.882812 159.15625 C 164.125 159.058594 164.375 159.007812 164.636719 159.007812 C 164.898438 159.007812 165.148438 159.058594 165.390625 159.15625 C 165.628906 159.257812 165.84375 159.398438 166.027344 159.582031 C 166.210938 159.769531 166.351562 159.980469 166.453125 160.222656 C 166.550781 160.464844 166.601562 160.714844 166.601562 160.976562 Z M 166.601562 160.976562 " fill-opacity="1" fill-rule="nonzero"/><path fill="#f6c02b" d="M 147.273438 150.902344 C 147.273438 151.335938 147.617188 151.679688 148.050781 151.679688 C 148.480469 151.679688 148.824219 151.335938 148.824219 150.902344 C 148.824219 150.46875 148.480469 150.125 148.050781 150.125 C 147.617188 150.125 147.273438 150.46875 147.273438 150.902344 Z M 147.273438 150.902344 " fill-opacity="1" fill-rule="nonzero"/><path fill="#f68820" d="M 142.96875 127 C 142.96875 127.25 142.917969 127.492188 142.824219 127.722656 C 142.726562 127.957031 142.589844 128.160156 142.414062 128.335938 C 142.238281 128.515625 142.03125 128.652344 141.800781 128.746094 C 141.570312 128.84375 141.328125 128.890625 141.078125 128.890625 C 140.828125 128.890625 140.585938 128.84375 140.355469 128.746094 C 140.125 128.652344 139.921875 128.515625 139.742188 128.335938 C 139.566406 128.160156 139.429688 127.957031 139.332031 127.722656 C 139.238281 127.492188 139.191406 127.25 139.191406 127 C 139.191406 126.75 139.238281 126.507812 139.332031 126.277344 C 139.429688 126.042969 139.566406 125.839844 139.742188 125.660156 C 139.921875 125.484375 140.125 125.347656 140.355469 125.25 C 140.585938 125.15625 140.828125 125.109375 141.078125 125.109375 C 141.328125 125.109375 141.570312 125.15625 141.800781 125.25 C 142.03125 125.347656 142.238281 125.484375 142.414062 125.660156 C 142.589844 125.839844 142.726562 126.042969 142.824219 126.277344 C 142.917969 126.507812 142.96875 126.75 142.96875 127 Z M 142.96875 127 " fill-opacity="1" fill-rule="nonzero"/><path fill="#f68820" d="M 191.550781 134.671875 C 191.550781 134.890625 191.472656 135.074219 191.320312 135.230469 C 191.167969 135.382812 190.980469 135.460938 190.765625 135.460938 C 190.546875 135.460938 190.363281 135.382812 190.207031 135.230469 C 190.054688 135.074219 189.980469 134.890625 189.980469 134.671875 C 189.980469 134.457031 190.054688 134.269531 190.207031 134.117188 C 190.363281 133.960938 190.546875 133.886719 190.765625 133.886719 C 190.980469 133.886719 191.167969 133.960938 191.320312 134.117188 C 191.472656 134.269531 191.550781 134.457031 191.550781 134.671875 Z M 191.550781 134.671875 " fill-opacity="1" fill-rule="nonzero"/><path fill="#f6c02b" d="M 206.835938 128.777344 C 206.835938 129.011719 206.789062 129.242188 206.699219 129.460938 C 206.609375 129.679688 206.480469 129.871094 206.3125 130.039062 C 206.144531 130.207031 205.953125 130.335938 205.734375 130.425781 C 205.515625 130.515625 205.289062 130.5625 205.050781 130.5625 C 204.816406 130.5625 204.585938 130.515625 204.367188 130.425781 C 204.148438 130.335938 203.957031 130.207031 203.789062 130.039062 C 203.621094 129.871094 203.492188 129.679688 203.402344 129.460938 C 203.3125 129.242188 203.269531 129.011719 203.269531 128.777344 C 203.269531 128.539062 203.3125 128.3125 203.402344 128.09375 C 203.492188 127.875 203.621094 127.679688 203.789062 127.511719 C 203.957031 127.347656 204.148438 127.214844 204.367188 127.125 C 204.585938 127.035156 204.816406 126.988281 205.050781 126.988281 C 205.289062 126.988281 205.515625 127.035156 205.734375 127.125 C 205.953125 127.214844 206.144531 127.347656 206.3125 127.511719 C 206.480469 127.679688 206.609375 127.875 206.699219 128.09375 C 206.789062 128.3125 206.835938 128.539062 206.835938 128.777344 Z M 206.835938 128.777344 " fill-opacity="1" fill-rule="nonzero"/><g fill="#e65c28" fill-opacity="1"><g transform="translate(111.247959, 273.540671)"><g><path d="M 5.421875 -10.609375 L 11.578125 -10.609375 L 11.578125 -9.515625 L 5.421875 -9.515625 L 5.421875 0 L 2.609375 0 L 2.609375 -19.203125 L 13.953125 -19.203125 L 13.953125 -17.25 L 8.578125 -18.15625 C 7.617188 -18.15625 6.566406 -17.988281 5.421875 -17.65625 Z M 5.421875 -10.609375 "/></g></g></g><g fill="#e65c28" fill-opacity="1"><g transform="translate(125.193191, 273.540671)"><g><path d="M 11.34375 -19.546875 C 13.851562 -19.546875 15.925781 -18.71875 17.5625 -17.0625 C 19.207031 -15.414062 20.03125 -13.117188 20.03125 -10.171875 C 20.03125 -8.285156 19.703125 -6.628906 19.046875 -5.203125 C 18.390625 -3.785156 17.53125 -2.6875 16.46875 -1.90625 C 14.40625 -0.40625 12.125 0.34375 9.625 0.34375 C 7.132812 0.34375 5.070312 -0.488281 3.4375 -2.15625 C 1.800781 -3.832031 0.984375 -6.140625 0.984375 -9.078125 C 0.984375 -10.609375 1.203125 -11.984375 1.640625 -13.203125 C 2.078125 -14.429688 2.644531 -15.429688 3.34375 -16.203125 C 4.050781 -16.984375 4.867188 -17.632812 5.796875 -18.15625 C 7.503906 -19.082031 9.351562 -19.546875 11.34375 -19.546875 Z M 5.515625 -3.3125 C 6.015625 -2.457031 6.6875 -1.789062 7.53125 -1.3125 C 8.382812 -0.84375 9.367188 -0.609375 10.484375 -0.609375 C 11.597656 -0.609375 12.585938 -0.890625 13.453125 -1.453125 C 14.328125 -2.015625 15.003906 -2.75 15.484375 -3.65625 C 16.472656 -5.46875 16.96875 -7.421875 16.96875 -9.515625 C 16.96875 -12.085938 16.453125 -14.15625 15.421875 -15.71875 C 14.285156 -17.476562 12.398438 -18.359375 9.765625 -18.359375 C 7.890625 -17.703125 6.46875 -16.570312 5.5 -14.96875 C 4.539062 -13.363281 4.0625 -11.546875 4.0625 -9.515625 C 4.0625 -7.035156 4.546875 -4.96875 5.515625 -3.3125 Z M 5.515625 -3.3125 "/></g></g></g><g fill="#e65c28" fill-opacity="1"><g transform="translate(146.212518, 273.540671)"><g><path d="M 11.34375 -19.546875 C 13.851562 -19.546875 15.925781 -18.71875 17.5625 -17.0625 C 19.207031 -15.414062 20.03125 -13.117188 20.03125 -10.171875 C 20.03125 -8.285156 19.703125 -6.628906 19.046875 -5.203125 C 18.390625 -3.785156 17.53125 -2.6875 16.46875 -1.90625 C 14.40625 -0.40625 12.125 0.34375 9.625 0.34375 C 7.132812 0.34375 5.070312 -0.488281 3.4375 -2.15625 C 1.800781 -3.832031 0.984375 -6.140625 0.984375 -9.078125 C 0.984375 -10.609375 1.203125 -11.984375 1.640625 -13.203125 C 2.078125 -14.429688 2.644531 -15.429688 3.34375 -16.203125 C 4.050781 -16.984375 4.867188 -17.632812 5.796875 -18.15625 C 7.503906 -19.082031 9.351562 -19.546875 11.34375 -19.546875 Z M 5.515625 -3.3125 C 6.015625 -2.457031 6.6875 -1.789062 7.53125 -1.3125 C 8.382812 -0.84375 9.367188 -0.609375 10.484375 -0.609375 C 11.597656 -0.609375 12.585938 -0.890625 13.453125 -1.453125 C 14.328125 -2.015625 15.003906 -2.75 15.484375 -3.65625 C 16.472656 -5.46875 16.96875 -7.421875 16.96875 -9.515625 C 16.96875 -12.085938 16.453125 -14.15625 15.421875 -15.71875 C 14.285156 -17.476562 12.398438 -18.359375 9.765625 -18.359375 C 7.890625 -17.703125 6.46875 -16.570312 5.5 -14.96875 C 4.539062 -13.363281 4.0625 -11.546875 4.0625 -9.515625 C 4.0625 -7.035156 4.546875 -4.96875 5.515625 -3.3125 Z M 5.515625 -3.3125 "/></g></g></g><g fill="#e65c28" fill-opacity="1"><g transform="translate(167.231846, 273.540671)"><g><path d="M 2.609375 0 L 2.609375 -19.203125 L 8.09375 -19.203125 C 10.375 -19.203125 12.429688 -18.71875 14.265625 -17.75 C 15.253906 -17.25 16.113281 -16.617188 16.84375 -15.859375 C 17.582031 -15.109375 18.171875 -14.144531 18.609375 -12.96875 C 19.054688 -11.800781 19.28125 -10.503906 19.28125 -9.078125 C 19.28125 -7.023438 18.769531 -5.296875 17.75 -3.890625 C 15.875 -1.296875 12.835938 0 8.640625 0 Z M 8.0625 -0.984375 C 10.519531 -0.984375 12.492188 -1.707031 13.984375 -3.15625 C 15.472656 -4.613281 16.21875 -6.742188 16.21875 -9.546875 C 16.21875 -11.703125 15.625 -13.550781 14.4375 -15.09375 C 13.257812 -16.632812 11.734375 -17.65625 9.859375 -18.15625 C 8.179688 -18.15625 6.710938 -17.953125 5.453125 -17.546875 L 5.453125 -1.25 C 6.066406 -1.070312 6.9375 -0.984375 8.0625 -0.984375 Z M 8.0625 -0.984375 "/></g></g></g><g fill="#e65c28" fill-opacity="1"><g transform="translate(187.758311, 273.540671)"><g/></g></g><g fill="#e65c28" fill-opacity="1"><g transform="translate(195.006358, 273.540671)"><g><path d="M 2.609375 0 L 2.609375 -19.203125 L 5.453125 -19.203125 L 5.453125 -1.5625 C 6.628906 -1.21875 7.578125 -1.046875 8.296875 -1.046875 L 13.546875 -1.9375 L 13.1875 0 Z M 2.609375 0 "/></g></g></g><g fill="#e65c28" fill-opacity="1"><g transform="translate(209.125551, 273.540671)"><g><path d="M 11.34375 -19.546875 C 13.851562 -19.546875 15.925781 -18.71875 17.5625 -17.0625 C 19.207031 -15.414062 20.03125 -13.117188 20.03125 -10.171875 C 20.03125 -8.285156 19.703125 -6.628906 19.046875 -5.203125 C 18.390625 -3.785156 17.53125 -2.6875 16.46875 -1.90625 C 14.40625 -0.40625 12.125 0.34375 9.625 0.34375 C 7.132812 0.34375 5.070312 -0.488281 3.4375 -2.15625 C 1.800781 -3.832031 0.984375 -6.140625 0.984375 -9.078125 C 0.984375 -10.609375 1.203125 -11.984375 1.640625 -13.203125 C 2.078125 -14.429688 2.644531 -15.429688 3.34375 -16.203125 C 4.050781 -16.984375 4.867188 -17.632812 5.796875 -18.15625 C 7.503906 -19.082031 9.351562 -19.546875 11.34375 -19.546875 Z M 5.515625 -3.3125 C 6.015625 -2.457031 6.6875 -1.789062 7.53125 -1.3125 C 8.382812 -0.84375 9.367188 -0.609375 10.484375 -0.609375 C 11.597656 -0.609375 12.585938 -0.890625 13.453125 -1.453125 C 14.328125 -2.015625 15.003906 -2.75 15.484375 -3.65625 C 16.472656 -5.46875 16.96875 -7.421875 16.96875 -9.515625 C 16.96875 -12.085938 16.453125 -14.15625 15.421875 -15.71875 C 14.285156 -17.476562 12.398438 -18.359375 9.765625 -18.359375 C 7.890625 -17.703125 6.46875 -16.570312 5.5 -14.96875 C 4.539062 -13.363281 4.0625 -11.546875 4.0625 -9.515625 C 4.0625 -7.035156 4.546875 -4.96875 5.515625 -3.3125 Z M 5.515625 -3.3125 "/></g></g></g><g fill="#e65c28" fill-opacity="1"><g transform="translate(230.144878, 273.540671)"><g><path d="M 8.90625 0.46875 L 0.296875 -19.203125 L 3.453125 -19.203125 L 9.828125 -3.484375 L 15.578125 -19.203125 L 17.015625 -19.203125 L 9.359375 0.46875 Z M 8.90625 0.46875 "/></g></g></g><g fill="#e65c28" fill-opacity="1"><g transform="translate(247.453208, 273.540671)"><g><path d="M 2.609375 0 L 2.609375 -19.203125 L 14.234375 -19.203125 L 13.953125 -17.25 L 8.5625 -18.15625 C 7.613281 -18.15625 6.566406 -17.988281 5.421875 -17.65625 L 5.421875 -10.609375 L 11.859375 -10.609375 L 11.859375 -9.515625 L 5.421875 -9.515625 L 5.421875 -1.046875 L 14.40625 -1.9375 L 14.125 0 Z M 2.609375 0 "/></g></g></g></svg>