<svg xmlns="http://www.w3.org/2000/svg" xmlns:xlink="http://www.w3.org/1999/xlink" width="500" zoomAndPan="magnify" viewBox="0 0 375 374.999991" height="500" preserveAspectRatio="xMidYMid meet" version="1.0"><defs><g/><clipPath id="84e982962b"><path d="M 290 90 L 305.550781 90 L 305.550781 140 L 290 140 Z M 290 90 " clip-rule="nonzero"/></clipPath><clipPath id="ad752140a1"><path d="M 69.300781 102 L 94 102 L 94 129 L 69.300781 129 Z M 69.300781 102 " clip-rule="nonzero"/></clipPath><clipPath id="0e5fb8da7f"><path d="M 148 209 L 191 209 L 191 251.25 L 148 251.25 Z M 148 209 " clip-rule="nonzero"/></clipPath><clipPath id="6d3957aca4"><path d="M 110 37.5 L 129 37.5 L 129 63 L 110 63 Z M 110 37.5 " clip-rule="nonzero"/></clipPath></defs><path fill="#157a2c" d="M 279.070312 72.460938 C 279.78125 72.066406 280.460938 71.597656 281.035156 70.992188 C 284.976562 66.910156 284.085938 59.652344 279.042969 54.769531 C 276.730469 52.53125 273.96875 51.199219 271.25 50.777344 C 271.476562 47.449219 269.210938 43.5625 265.222656 41.097656 C 260.089844 37.921875 254.09375 38.300781 251.84375 41.960938 L 251.753906 42.15625 C 251.496094 42.097656 251.253906 42.019531 250.980469 41.992188 C 246.269531 41.386719 242.054688 43.957031 241.558594 47.722656 C 241.527344 48.023438 241.542969 48.3125 241.558594 48.597656 C 238.476562 48.039062 235.621094 49.398438 235.140625 51.730469 C 234.640625 54.117188 236.800781 56.582031 239.972656 57.261719 C 242.828125 57.867188 245.5 56.808594 246.390625 54.859375 C 247.265625 55.238281 248.203125 55.523438 249.230469 55.660156 C 249.894531 55.75 250.527344 55.75 251.164062 55.722656 C 251.117188 57.597656 252.371094 59.710938 254.53125 61.042969 C 256.585938 62.3125 258.878906 62.523438 260.527344 61.785156 C 261.007812 64.507812 262.445312 67.273438 264.769531 69.527344 C 265.359375 70.101562 265.992188 70.613281 266.640625 71.070312 C 266.429688 72.476562 266.582031 74.015625 267.140625 75.542969 C 268.621094 79.550781 272.410156 81.820312 275.613281 80.640625 C 278.496094 79.566406 279.902344 76.058594 279.070312 72.460938 Z M 243.613281 49.292969 L 243.460938 48.808594 C 243.082031 46.753906 244.878906 44.683594 247.476562 44.183594 C 247.796875 44.121094 248.097656 44.09375 248.414062 44.078125 C 245.832031 44.683594 244.09375 47.027344 244.535156 49.414062 L 244.714844 49.960938 C 244.867188 50.398438 245.0625 50.804688 245.347656 51.167969 C 244.503906 50.730469 243.914062 50.082031 243.613281 49.292969 Z M 252.007812 47.980469 C 251.660156 46.117188 252.507812 44.273438 254.03125 42.882812 C 255.121094 41.898438 256.554688 41.144531 258.214844 40.828125 C 258.699219 40.722656 259.183594 40.675781 259.648438 40.660156 C 257.761719 41.097656 256.207031 42.140625 255.121094 43.488281 C 253.894531 45.015625 253.277344 46.933594 253.640625 48.902344 C 253.835938 49.929688 254.273438 50.851562 254.878906 51.636719 C 253.382812 50.851562 252.3125 49.566406 252.007812 47.980469 Z M 252.824219 57.007812 C 252.71875 56.476562 252.765625 55.960938 252.914062 55.464844 C 253.261719 54.390625 254.183594 53.496094 255.4375 53.136719 L 255.949219 53 C 256.207031 52.953125 256.464844 52.9375 256.71875 52.9375 C 256.34375 53.015625 256.011719 53.148438 255.695312 53.316406 C 254.921875 53.726562 254.304688 54.375 253.957031 55.160156 C 253.640625 55.886719 253.535156 56.71875 253.714844 57.566406 C 253.835938 58.171875 254.09375 58.714844 254.441406 59.183594 C 253.625 58.699219 253.019531 57.945312 252.824219 57.007812 Z M 265.164062 58.246094 C 264.226562 59.214844 263.59375 60.363281 263.199219 61.601562 C 262.972656 59.710938 263.410156 57.882812 264.5 56.460938 C 264.648438 56.265625 264.769531 56.054688 264.949219 55.871094 C 266.28125 54.496094 268.121094 53.890625 270.085938 53.9375 C 272.410156 53.996094 274.886719 54.996094 276.898438 56.945312 C 277.351562 57.382812 277.742188 57.835938 278.105469 58.320312 C 274.253906 54.828125 268.53125 54.753906 265.164062 58.246094 Z M 271.113281 68.753906 C 270.554688 69.027344 270.085938 69.40625 269.722656 69.84375 C 269.996094 68.9375 270.613281 68.164062 271.460938 67.742188 C 273.167969 66.925781 275.234375 67.863281 276.082031 69.84375 C 276.1875 70.085938 276.261719 70.328125 276.324219 70.570312 C 275.402344 68.632812 273.105469 67.800781 271.113281 68.753906 Z M 265.617188 70.917969 L 265.628906 70.828125 C 260.074219 70.417969 253.699219 73.367188 250.226562 76.996094 C 252.929688 73.125 255.226562 67.832031 255.558594 62.707031 C 255.027344 62.496094 254.484375 62.269531 253.988281 61.949219 C 253.308594 61.527344 252.71875 61.027344 252.203125 60.5 C 250.921875 63.691406 249.515625 66.789062 247.992188 70.023438 C 248.820312 66.078125 247.582031 61.347656 245.757812 57.21875 C 245.0625 57.714844 244.261719 58.109375 243.339844 58.304688 C 247.960938 67.515625 243.597656 78.78125 239.414062 82.089844 L 251.164062 89.363281 C 254.078125 83.058594 259.515625 77.433594 265.949219 75.152344 C 265.523438 73.746094 265.402344 72.308594 265.617188 70.917969 Z M 265.617188 70.917969 " fill-opacity="1" fill-rule="nonzero"/><path fill="#ba9874" d="M 189.140625 112.589844 C 180.9375 118.851562 178.296875 130.011719 181.679688 134.441406 C 185.0625 138.871094 191.628906 134.515625 199.832031 128.257812 C 208.03125 121.996094 214.753906 116.203125 211.371094 111.773438 C 207.984375 107.328125 197.339844 106.332031 189.140625 112.589844 Z M 185.652344 122.722656 C 184.636719 126.261719 184.863281 129.617188 186.34375 131.566406 C 186.769531 132.113281 187.234375 132.503906 187.75 132.777344 C 188.671875 133.246094 188.246094 133.941406 186.527344 133.851562 C 185.46875 133.804688 184.578125 133.367188 183.867188 132.429688 C 181.179688 128.90625 183.28125 120.046875 189.804688 115.070312 C 189.863281 115.023438 189.910156 114.996094 189.96875 114.949219 C 190.058594 114.875 187.023438 117.851562 185.652344 122.722656 Z M 185.652344 122.722656 " fill-opacity="1" fill-rule="nonzero"/><path fill="#ba9874" d="M 198.078125 131.191406 C 199.484375 137.390625 197.203125 145.386719 203.183594 146.097656 C 215.386719 147.519531 212.425781 134.742188 207.714844 129.207031 C 206.734375 128.058594 205.707031 127.015625 204.648438 126.109375 C 203.394531 127.121094 202.082031 128.179688 200.617188 129.300781 C 199.742188 129.949219 198.910156 130.585938 198.078125 131.191406 Z M 198.078125 131.191406 " fill-opacity="1" fill-rule="nonzero"/><path fill="#f64b31" d="M 130.300781 149.425781 C 129.214844 149.726562 127.839844 150.074219 126.464844 150.363281 C 127.660156 152.132812 128.625 154.066406 128.671875 154.171875 L 129.757812 156.382812 L 127.460938 155.519531 C 127.328125 155.457031 124.488281 154.386719 122.175781 153.191406 C 121.347656 155.503906 120.121094 157.816406 120.046875 157.9375 L 119.1875 159.542969 L 118.324219 157.921875 C 118.25 157.789062 116.859375 155.109375 116.046875 152.644531 C 113.734375 153.839844 110.910156 154.914062 110.773438 154.960938 L 108.480469 155.820312 L 109.550781 153.628906 C 109.597656 153.523438 110.5625 151.585938 111.757812 149.820312 C 109.171875 149.289062 106.53125 148.488281 106.03125 148.335938 C 100.144531 151.542969 96.214844 157.199219 96.214844 163.652344 C 96.214844 173.664062 105.625 181.800781 117.238281 181.800781 C 128.851562 181.800781 138.273438 173.695312 138.289062 163.683594 C 138.320312 157.894531 135.195312 152.753906 130.300781 149.425781 Z M 102.105469 154.324219 C 103.511719 152.175781 105.804688 150.832031 106.636719 150.878906 C 107.480469 150.9375 106.789062 152.253906 105.578125 154.128906 C 104.355469 156.019531 102.9375 157.789062 101.910156 157.96875 C 100.898438 158.179688 100.714844 156.457031 102.105469 154.324219 Z M 103.207031 174.195312 C 100.476562 171.410156 98.828125 167.828125 98.828125 163.894531 C 98.828125 163.109375 98.90625 162.339844 99.039062 161.582031 C 99.265625 160.3125 100.503906 159.375 101.578125 159.480469 C 102.648438 159.585938 103.027344 160.839844 102.726562 162.292969 C 102.558594 163.15625 102.453125 164.046875 102.453125 164.96875 C 102.453125 168.25 103.601562 171.304688 105.578125 173.832031 C 108.855469 177.988281 107.664062 178.699219 103.207031 174.195312 Z M 103.207031 174.195312 " fill-opacity="1" fill-rule="nonzero"/><path fill="#157a2c" d="M 124.773438 149.683594 C 127.886719 149.199219 132.007812 147.929688 132.007812 147.929688 C 132.007812 147.929688 127.582031 146.855469 124.425781 146.566406 C 125.996094 144.707031 127.476562 141.910156 127.476562 141.910156 C 127.476562 141.910156 123.835938 143.195312 121.4375 144.464844 C 121.121094 142.589844 119.988281 140.097656 119.988281 140.097656 C 119.988281 140.097656 118.21875 142.484375 117.496094 144.300781 C 115.183594 142.910156 110.773438 141.367188 110.773438 141.367188 C 110.773438 141.367188 112.253906 144.164062 113.824219 146.023438 C 110.667969 146.308594 106.242188 147.382812 106.242188 147.382812 C 106.242188 147.382812 110.367188 148.652344 113.476562 149.136719 C 111.921875 151.027344 110.441406 154.050781 110.441406 154.050781 C 110.441406 154.050781 114.324219 152.585938 116.648438 151.210938 C 117.269531 153.839844 119.1875 157.46875 119.1875 157.46875 C 119.1875 157.46875 120.878906 154.324219 121.601562 151.769531 C 123.929688 153.144531 127.78125 154.597656 127.78125 154.597656 C 127.78125 154.597656 126.328125 151.585938 124.773438 149.683594 Z M 124.773438 149.683594 " fill-opacity="1" fill-rule="nonzero"/><path fill="#57a52c" d="M 289.777344 88.292969 C 292.363281 90.121094 291.652344 93.222656 291.078125 94.492188 C 290.429688 95.957031 289.6875 96.53125 289.882812 96.789062 C 289.871094 96.894531 291.199219 96.503906 292.164062 94.671875 C 293.117188 93.085938 293.691406 89.242188 290.59375 87.15625 C 287.800781 85.371094 283.089844 85.660156 281.667969 89.53125 C 281.714844 91.617188 284.476562 92.902344 285.792969 91.421875 C 287.015625 90.316406 287.621094 88.746094 287.242188 87.277344 C 284.402344 81.757812 279.164062 84.148438 279.675781 84.027344 C 279.191406 84.011719 284.507812 82.453125 286.5625 87.476562 C 287.316406 89.832031 283.316406 92.765625 282.832031 89.5625 C 283.511719 87.609375 287.875 86.644531 289.777344 88.292969 Z M 289.777344 88.292969 " fill-opacity="1" fill-rule="nonzero"/><path fill="#57a52c" d="M 281.050781 113.40625 C 285.820312 104.589844 290.367188 95.003906 291.789062 91.90625 C 292.148438 92.617188 292.480469 93.355469 292.480469 94.160156 C 292.480469 94.535156 292.585938 94.898438 292.738281 95.214844 C 292.707031 95.308594 292.664062 95.382812 292.632812 95.488281 C 291.695312 99.027344 291.878906 102.761719 291.53125 106.390625 C 291.152344 110.457031 290.789062 114.527344 290.488281 118.59375 C 290.429688 119.363281 290.777344 119.941406 291.257812 120.289062 C 287.03125 127.089844 280.25 131.160156 275.113281 132.203125 C 269.679688 133.398438 266.386719 132.277344 266.429688 132.382812 C 266.929688 132.246094 275.402344 123.839844 281.050781 113.40625 Z M 281.050781 113.40625 " fill-opacity="1" fill-rule="nonzero"/><path fill="#57a52c" d="M 292.695312 91.996094 C 292.84375 91.4375 292.921875 91.074219 292.90625 90.996094 C 292.890625 90.953125 292.964844 90.984375 293.085938 91.042969 L 292.875 92.042969 C 292.8125 92.042969 292.769531 92.011719 292.695312 91.996094 Z M 292.695312 91.996094 " fill-opacity="1" fill-rule="nonzero"/><path fill="#57a52c" d="M 292.363281 99.691406 C 292.632812 101.203125 294.21875 102.21875 295.910156 101.960938 C 296.089844 101.929688 296.273438 101.886719 296.4375 101.824219 C 296.574219 102.277344 296.710938 102.730469 296.847656 103.199219 C 296.605469 103.183594 296.363281 103.199219 296.121094 103.230469 C 293.945312 103.5625 292.375 105.394531 292.574219 107.34375 C 292.664062 109.292969 294.519531 110.882812 296.695312 110.867188 C 297.285156 110.867188 297.8125 110.730469 298.3125 110.488281 C 298.371094 111.003906 298.417969 111.515625 298.449219 112.03125 C 297.917969 111.757812 297.316406 111.609375 296.679688 111.609375 C 294.476562 111.636719 292.738281 113.257812 292.632812 115.238281 C 292.527344 117.21875 294.144531 119.015625 296.304688 119.257812 C 296.984375 119.335938 297.617188 119.230469 298.191406 118.988281 C 298.117188 119.53125 298.023438 120.074219 297.917969 120.636719 C 297.421875 120.300781 296.847656 120.074219 296.210938 120 C 294.039062 119.773438 292.121094 121.195312 291.773438 123.144531 C 291.46875 125.097656 292.800781 127.0625 294.957031 127.558594 C 295.277344 127.636719 295.59375 127.652344 295.894531 127.652344 C 295.757812 128.027344 295.609375 128.40625 295.472656 128.769531 C 295.246094 128.648438 295.003906 128.542969 294.746094 128.484375 C 293.070312 128.105469 291.457031 129.027344 291.03125 130.507812 C 290.609375 131.976562 291.484375 133.5625 293.027344 134.167969 C 292.210938 135.757812 291.46875 136.996094 290.925781 137.722656 C 290.867188 137.8125 290.804688 137.886719 290.746094 137.964844 L 290.671875 137.886719 C 290.15625 134.335938 287.785156 124.476562 288.085938 114.949219 C 288.871094 105.605469 291.683594 95.820312 292.601562 92.328125 C 293.011719 93.054688 293.675781 94.429688 294.414062 96.246094 C 292.921875 96.804688 292.015625 98.269531 292.363281 99.691406 Z M 292.363281 99.691406 " fill-opacity="1" fill-rule="nonzero"/><g clip-path="url(#84e982962b)"><path fill="#57a52c" d="M 292.90625 90.996094 C 292.601562 90.363281 306.011719 99.449219 305.109375 115.796875 C 304.382812 131.71875 290.804688 140.214844 290.683594 139.25 L 290.683594 139.128906 C 291.515625 139.882812 299.609375 125.382812 299.324219 115.691406 C 300.335938 105.300781 293.191406 90.726562 292.859375 91.105469 Z M 292.90625 90.996094 " fill-opacity="1" fill-rule="nonzero"/></g><path fill="#57a52c" d="M 224.386719 70.828125 C 224.402344 70.828125 224.433594 70.8125 224.433594 70.78125 C 224.433594 70.765625 224.417969 70.75 224.402344 70.734375 C 218.601562 69.949219 214.253906 70.554688 209.269531 71.613281 C 206.175781 72.277344 203.125 73.09375 200.089844 73.972656 C 205.207031 68.800781 211.339844 65.214844 218.617188 65.171875 C 223.554688 65.140625 229.523438 67.773438 233.796875 70.253906 C 230.351562 73.398438 226.230469 75.785156 221.757812 77.117188 C 214.949219 79.144531 207.441406 78.660156 200.902344 75.878906 C 203.726562 74.910156 206.582031 73.988281 209.464844 73.199219 C 214.3125 71.898438 219.3125 70.933594 224.386719 70.828125 Z M 224.386719 70.828125 " fill-opacity="1" fill-rule="nonzero"/><path fill="#a4c52c" d="M 268.816406 106.347656 C 268.832031 106.332031 268.847656 106.332031 268.878906 106.347656 C 268.894531 106.359375 268.90625 106.390625 268.894531 106.40625 C 266.507812 110.414062 263.273438 113.769531 259.742188 116.765625 C 257.550781 118.625 255.242188 120.332031 252.871094 121.996094 C 260.375 121.996094 266.929688 118.835938 270.628906 113.300781 C 273.136719 109.550781 274.300781 104.742188 274.085938 99.601562 C 269.359375 99.84375 264.996094 101.191406 261.476562 103.59375 C 256.117188 107.269531 252.792969 113.363281 252.160156 120.46875 C 254.515625 119.046875 256.828125 117.566406 259.015625 115.960938 C 262.730469 113.226562 266.175781 110.140625 268.816406 106.347656 Z M 268.816406 106.347656 " fill-opacity="1" fill-rule="nonzero"/><path fill="#a4c52c" d="M 209.558594 166.285156 C 209.542969 166.269531 209.558594 166.238281 209.570312 166.226562 C 209.585938 166.210938 209.617188 166.210938 209.632812 166.226562 C 212.714844 169.746094 214.886719 173.859375 216.65625 178.140625 C 217.742188 180.800781 218.648438 183.539062 219.492188 186.289062 C 221.820312 179.136719 220.824219 171.925781 216.714844 166.695312 C 213.921875 163.140625 209.722656 160.554688 204.769531 159.179688 C 203.53125 163.761719 203.472656 168.328125 204.664062 172.410156 C 206.492188 178.652344 211.261719 183.703125 217.816406 186.503906 C 217.183594 183.824219 216.503906 181.164062 215.65625 178.578125 C 214.207031 174.207031 212.351562 169.976562 209.558594 166.285156 Z M 209.558594 166.285156 " fill-opacity="1" fill-rule="nonzero"/><path fill="#57a52c" d="M 107.363281 104.242188 C 107.347656 104.230469 107.363281 104.199219 107.375 104.183594 C 107.390625 104.167969 107.421875 104.167969 107.4375 104.183594 C 110.519531 107.707031 112.691406 111.820312 114.460938 116.097656 C 115.546875 118.761719 116.453125 121.496094 117.296875 124.25 C 119.625 117.097656 118.628906 109.882812 114.519531 104.652344 C 111.726562 101.097656 107.527344 98.511719 102.574219 97.136719 C 101.335938 101.71875 101.273438 106.285156 102.46875 110.367188 C 104.296875 116.613281 109.066406 121.664062 115.621094 124.460938 C 114.988281 121.785156 114.308594 119.121094 113.460938 116.539062 C 112.027344 112.152344 110.15625 107.933594 107.363281 104.242188 Z M 107.363281 104.242188 " fill-opacity="1" fill-rule="nonzero"/><path fill="#157a2c" d="M 209.253906 55.628906 C 209.269531 55.613281 209.285156 55.613281 209.300781 55.628906 C 209.316406 55.644531 209.316406 55.660156 209.316406 55.675781 C 207.214844 59.5625 205.417969 61.800781 202.535156 64.265625 C 200.738281 65.792969 198.140625 67.152344 196.207031 68.527344 C 202.367188 68.511719 207.746094 65.898438 210.78125 61.347656 C 212.835938 58.261719 213.769531 54.316406 213.589844 50.082031 C 209.707031 50.292969 206.128906 51.394531 203.246094 53.390625 C 198.847656 56.417969 196.132812 61.4375 195.617188 67.273438 C 197.550781 66.09375 199.4375 64.882812 201.25 63.554688 C 204.285156 61.300781 207.09375 58.761719 209.253906 55.628906 Z M 209.253906 55.628906 " fill-opacity="1" fill-rule="nonzero"/><path fill="#157a2c" d="M 286.441406 147.277344 C 286.441406 147.261719 286.441406 147.246094 286.425781 147.246094 C 286.410156 147.246094 286.394531 147.246094 286.394531 147.261719 C 284.796875 150.152344 284.117188 152.175781 283.722656 154.988281 C 283.480469 156.730469 283.675781 158.921875 283.585938 160.691406 C 281.125 156.804688 280.613281 152.359375 282.257812 148.640625 C 283.375 146.097656 285.476562 143.921875 288.207031 142.347656 C 289.644531 144.875 290.367188 147.582031 290.292969 150.195312 C 290.15625 154.1875 288.085938 157.910156 284.628906 160.570312 C 284.597656 158.875 284.597656 157.199219 284.703125 155.535156 C 284.886719 152.691406 285.339844 149.910156 286.441406 147.277344 Z M 286.441406 147.277344 " fill-opacity="1" fill-rule="nonzero"/><path fill="#157a2c" d="M 146.1875 43.292969 C 146.203125 43.292969 146.21875 43.292969 146.21875 43.261719 C 146.21875 43.246094 146.21875 43.230469 146.203125 43.230469 C 143.109375 42.113281 140.992188 41.75 138.167969 41.808594 C 136.417969 41.839844 134.289062 42.367188 132.535156 42.566406 C 135.980469 39.511719 140.285156 38.316406 144.226562 39.359375 C 146.898438 40.070312 149.375 41.808594 151.367188 44.257812 C 149.101562 46.074219 146.550781 47.222656 143.953125 47.539062 C 139.996094 48.023438 135.996094 46.574219 132.824219 43.5625 C 134.484375 43.261719 136.144531 43.003906 137.808594 42.851562 C 140.617188 42.597656 143.441406 42.625 146.1875 43.292969 Z M 146.1875 43.292969 " fill-opacity="1" fill-rule="nonzero"/><path fill="#a4c52c" d="M 148.152344 171.488281 C 148.152344 171.472656 148.152344 171.457031 148.136719 171.457031 C 148.121094 171.457031 148.105469 171.457031 148.105469 171.457031 C 146.007812 173.996094 144.964844 175.855469 144.058594 178.546875 C 143.5 180.210938 143.289062 182.402344 142.882812 184.113281 C 141.175781 179.832031 141.492188 175.371094 143.800781 172.015625 C 145.375 169.734375 147.835938 167.980469 150.808594 166.933594 C 151.746094 169.6875 151.972656 172.484375 151.398438 175.023438 C 150.523438 178.910156 147.820312 182.191406 143.910156 184.171875 C 144.179688 182.511719 144.496094 180.863281 144.921875 179.242188 C 145.613281 176.523438 146.597656 173.859375 148.152344 171.488281 Z M 148.152344 171.488281 " fill-opacity="1" fill-rule="nonzero"/><path fill="#a4c52c" d="M 86.097656 139.066406 C 86.097656 139.050781 86.082031 139.039062 86.050781 139.039062 C 86.039062 139.039062 86.023438 139.050781 86.023438 139.066406 C 85.8125 143.527344 86.203125 146.386719 87.410156 150.03125 C 88.167969 152.296875 89.707031 154.824219 90.660156 157.015625 C 85.34375 153.78125 82.066406 148.714844 81.824219 143.195312 C 81.65625 139.445312 82.910156 135.542969 85.265625 131.992188 C 88.515625 134.199219 91.019531 137.042969 92.484375 140.261719 C 94.707031 145.175781 94.433594 150.9375 91.835938 156.246094 C 90.78125 154.21875 89.78125 152.175781 88.921875 150.089844 C 87.441406 146.566406 86.339844 142.894531 86.097656 139.066406 Z M 86.097656 139.066406 " fill-opacity="1" fill-rule="nonzero"/><path fill="#f64b31" d="M 248.339844 103.003906 C 247.992188 99.902344 246.042969 97.636719 243.039062 97.046875 C 240.394531 96.53125 237.707031 98.089844 236.710938 100.523438 C 235.847656 102.609375 235.941406 104.941406 236.0625 107.175781 C 233.675781 105.121094 231.167969 102.988281 228.085938 102.355469 C 225.21875 101.765625 222.484375 103.066406 221.335938 105.785156 C 219.871094 109.25 221.488281 111.59375 223.964844 113.964844 C 229.191406 118.972656 235.667969 122.601562 242.628906 124.597656 C 245.90625 118.320312 249.125 110.050781 248.339844 103.003906 Z M 248.339844 103.003906 " fill-opacity="1" fill-rule="nonzero"/><g clip-path="url(#ad752140a1)"><path fill="#f68820" d="M 91.761719 120.527344 C 93.84375 118.535156 94.402344 115.796875 93.152344 113.257812 C 92.03125 111.019531 89.375 109.929688 87.019531 110.566406 C 85.011719 111.109375 83.347656 112.5 81.761719 113.847656 C 81.929688 110.925781 82.066406 107.871094 80.796875 105.242188 C 79.617188 102.792969 77.113281 101.523438 74.453125 102.21875 C 71.070312 103.09375 70.269531 105.605469 69.9375 108.78125 C 69.230469 115.464844 70.226562 122.285156 72.6875 128.527344 C 79.136719 127.410156 87.035156 125.097656 91.761719 120.527344 Z M 91.761719 120.527344 " fill-opacity="1" fill-rule="nonzero"/></g><path fill="#f6c02b" d="M 168.917969 120.800781 C 167.9375 127.453125 161.773438 132.050781 155.128906 131.070312 C 148.5 130.085938 143.910156 123.917969 144.875 117.261719 C 145.191406 115.085938 146.082031 113.136719 147.335938 111.53125 L 147.320312 111.53125 C 152.910156 104.394531 152.742188 103.609375 152.925781 98.4375 C 152.9375 98.179688 152.953125 97.9375 152.984375 97.679688 C 153.542969 93.886719 157.0625 91.253906 160.851562 91.816406 C 164.644531 92.375 167.269531 95.898438 166.710938 99.691406 C 166.667969 99.949219 166.621094 100.191406 166.5625 100.433594 C 165.246094 105.453125 164.871094 106.148438 168.175781 114.585938 L 168.164062 114.585938 C 168.949219 116.507812 169.234375 118.625 168.917969 120.800781 Z M 168.917969 120.800781 " fill-opacity="1" fill-rule="nonzero"/><path fill="#157a2c" d="M 146.339844 90.816406 L 146.234375 90.289062 C 146.160156 89.96875 146.082031 89.652344 145.976562 89.335938 C 144.453125 84.601562 139.363281 81.984375 134.636719 83.527344 C 129.910156 85.054688 127.296875 90.152344 128.820312 94.882812 C 128.925781 95.203125 129.046875 95.503906 129.167969 95.804688 L 129.394531 96.304688 C 131.222656 100.359375 131.449219 100.871094 129.804688 108.765625 C 129.289062 111.183594 129.425781 113.710938 130.179688 116.070312 C 131.902344 121.40625 136.476562 125.003906 141.6875 125.761719 C 140.753906 124.039062 140.179688 122.164062 140.132812 120.226562 C 140.027344 114.933594 142.941406 111.289062 145.75 107.753906 C 146.398438 106.933594 147.050781 106.132812 147.652344 105.300781 C 148.726562 103.835938 148.953125 102.292969 149.222656 100.492188 C 149.359375 99.632812 149.496094 98.726562 149.738281 97.789062 C 147.246094 95.171875 147.003906 94.039062 146.339844 90.816406 Z M 134.363281 117.671875 C 134.558594 118.277344 134.785156 118.835938 135.058594 119.394531 C 135.496094 120.316406 134.726562 120.046875 133.667969 118.472656 C 133.050781 117.550781 132.535156 116.523438 132.175781 115.402344 C 131.496094 113.316406 131.433594 111.167969 131.84375 109.171875 C 133.699219 100.296875 133.199219 99.675781 131.085938 94.945312 C 130.980469 94.71875 130.890625 94.492188 130.816406 94.234375 C 130.300781 92.660156 130.390625 91.042969 130.9375 89.605469 C 131.871094 87.171875 132.839844 87.476562 132.507812 89.53125 C 132.308594 90.742188 132.402344 92.011719 132.792969 93.25 C 132.882812 93.539062 132.988281 93.796875 133.109375 94.066406 C 135.558594 99.511719 136.128906 100.238281 134 110.472656 C 133.503906 112.789062 133.578125 115.253906 134.363281 117.671875 Z M 134.363281 117.671875 " fill-opacity="1" fill-rule="nonzero"/><path fill="#157a2c" d="M 170.140625 113.832031 C 167.195312 106.332031 167.347656 105.769531 168.464844 101.492188 L 168.601562 100.960938 C 168.691406 100.644531 168.75 100.328125 168.796875 99.996094 C 169.519531 95.082031 166.109375 90.484375 161.183594 89.757812 C 156.277344 89.03125 151.6875 92.449219 150.960938 97.378906 C 150.914062 97.710938 150.886719 98.027344 150.871094 98.363281 L 150.855469 98.90625 C 150.703125 103.335938 150.6875 103.910156 145.71875 110.261719 C 144.195312 112.210938 143.199219 114.527344 142.835938 116.976562 C 141.703125 124.734375 147.078125 131.992188 154.84375 133.125 C 162.605469 134.257812 169.839844 128.875 170.972656 121.105469 C 171.320312 118.652344 171.03125 116.144531 170.140625 113.832031 Z M 168.917969 120.800781 C 167.9375 127.453125 161.773438 132.050781 155.128906 131.070312 C 148.5 130.085938 143.910156 123.917969 144.875 117.261719 C 145.191406 115.085938 146.082031 113.136719 147.335938 111.53125 L 147.320312 111.53125 C 152.910156 104.394531 152.742188 103.609375 152.925781 98.4375 C 152.9375 98.179688 152.953125 97.9375 152.984375 97.679688 C 153.542969 93.886719 157.0625 91.253906 160.851562 91.816406 C 164.644531 92.375 167.269531 95.898438 166.710938 99.691406 C 166.667969 99.949219 166.621094 100.191406 166.5625 100.433594 C 165.246094 105.453125 164.871094 106.148438 168.175781 114.585938 L 168.164062 114.585938 C 168.949219 116.507812 169.234375 118.625 168.917969 120.800781 Z M 168.917969 120.800781 " fill-opacity="1" fill-rule="nonzero"/><path fill="#f68820" d="M 158.890625 108.539062 C 154.496094 107.886719 150.3125 111.636719 149.542969 116.898438 C 148.769531 122.164062 151.714844 126.957031 156.097656 127.589844 C 160.492188 128.242188 164.671875 124.492188 165.445312 119.230469 C 166.230469 113.964844 163.285156 109.171875 158.890625 108.539062 Z M 153.210938 115.160156 C 152.710938 116.097656 152.367188 117.171875 152.199219 118.320312 C 152.046875 119.304688 152.046875 120.273438 152.183594 121.179688 C 152.410156 122.753906 151.761719 122.660156 151.21875 120.679688 C 150.902344 119.53125 150.824219 118.277344 151.007812 116.976562 C 151.140625 116.007812 151.429688 115.117188 151.820312 114.300781 C 152.488281 112.910156 153.890625 111.925781 154.449219 111.984375 C 155.023438 112.046875 154.070312 113.542969 153.210938 115.160156 Z M 160.566406 110.851562 C 159.871094 110.746094 159.191406 110.777344 158.527344 110.898438 C 157.410156 111.109375 156.203125 111.425781 155.703125 111.261719 C 155.203125 111.09375 155.550781 110.472656 156.65625 110.214844 C 157.304688 110.082031 157.984375 110.035156 158.679688 110.140625 C 159.039062 110.203125 159.402344 110.292969 159.734375 110.414062 C 160.292969 110.625 160.6875 110.882812 160.640625 110.867188 C 160.609375 110.851562 160.582031 110.851562 160.566406 110.851562 Z M 160.566406 110.851562 " fill-opacity="1" fill-rule="nonzero"/><path fill="#157a2c" d="M 249.140625 163.050781 C 245.347656 159.570312 243.203125 151.753906 243.476562 146.777344 C 244.984375 146.460938 246.632812 146.25 248.144531 146.25 C 245.695312 151.453125 246.464844 158.527344 250.90625 162.476562 Z M 249.140625 163.050781 " fill-opacity="1" fill-rule="nonzero"/><path fill="#157a2c" d="M 238.21875 154.097656 C 242.496094 154.582031 245.515625 159.042969 245.515625 159.042969 C 245.515625 159.042969 241.589844 162.746094 237.3125 162.261719 C 233.039062 161.777344 230.019531 157.304688 230.019531 157.304688 C 230.019531 157.304688 233.929688 153.613281 238.21875 154.097656 Z M 238.21875 154.097656 " fill-opacity="1" fill-rule="nonzero"/><path fill="#f64b31" d="M 256.585938 149.335938 C 252.324219 150.832031 248.671875 155.625 248.144531 160.34375 C 243.402344 160.734375 238.523438 164.257812 236.90625 168.476562 C 234.824219 173.90625 239.246094 179.683594 243.082031 183.191406 C 248.792969 188.40625 257.550781 189.542969 263.832031 184.398438 C 265.238281 183.25 266.460938 181.574219 266.988281 179.757812 C 268.800781 179.289062 270.523438 178.109375 271.703125 176.734375 C 277.019531 170.59375 276.140625 161.792969 271.082031 155.925781 C 267.714844 151.996094 262.082031 147.398438 256.585938 149.335938 Z M 267.109375 160.175781 C 265.84375 158.179688 264.738281 156.183594 262.550781 155.003906 C 260.738281 154.023438 256.796875 152.84375 254.304688 153.644531 C 259.378906 151.042969 271.097656 153.507812 267.109375 160.175781 Z M 267.109375 160.175781 " fill-opacity="1" fill-rule="nonzero"/><path fill="#7f3068" d="M 153.632812 76.585938 C 158.238281 77.433594 162.574219 78.207031 166.757812 79.746094 C 168.917969 80.535156 171.03125 81.515625 173.128906 82.816406 C 174.535156 83.695312 176.074219 84.675781 177.675781 85.554688 C 178.191406 85.117188 178.824219 84.675781 179.519531 84.285156 C 177.992188 83.527344 176.46875 82.589844 175.0625 81.714844 L 174.15625 81.152344 C 172.074219 79.855469 169.867188 78.796875 167.421875 77.902344 C 163.207031 76.359375 158.933594 75.574219 154.40625 74.742188 L 153.980469 74.667969 C 144.136719 72.851562 143.5625 68.164062 143.984375 64.808594 C 144.363281 61.769531 145.207031 59.273438 146.507812 57.308594 C 146.066406 58.472656 145.691406 59.742188 145.417969 61.148438 C 144.753906 64.671875 145.054688 69.648438 155.308594 72.234375 L 155.75 72.339844 C 160.476562 73.519531 164.945312 74.636719 169.28125 76.558594 C 171.800781 77.660156 174.050781 78.929688 176.167969 80.445312 L 177.074219 81.09375 C 178.25 81.941406 179.535156 82.863281 180.832031 83.679688 C 181.058594 83.589844 181.269531 83.484375 181.496094 83.40625 C 180.726562 82.304688 180.199219 80.925781 179.925781 79.277344 L 179.714844 77.992188 L 181.027344 78.007812 C 181.089844 78.007812 185.257812 78.128906 188.050781 79.050781 C 187.992188 76.964844 188.535156 74.5625 189.953125 73.292969 C 187.160156 66.273438 180.441406 59.03125 175.546875 55.8125 C 165.519531 49.21875 144.558594 44.363281 142.019531 64.582031 C 141.070312 72.382812 147.066406 75.363281 153.632812 76.585938 Z M 153.632812 76.585938 " fill-opacity="1" fill-rule="nonzero"/><path fill="#157a2c" d="M 177.691406 87.066406 C 180.96875 88.699219 184.09375 90.015625 187.792969 89.636719 C 189.984375 89.425781 191.84375 89.394531 192.960938 91.089844 L 194.96875 89.273438 C 192.703125 86.808594 193.367188 84.996094 193.429688 83.816406 C 193.503906 82.394531 193.625 80.445312 193.171875 79.082031 C 192.613281 77.359375 191.660156 75.558594 190.785156 73.988281 C 189.0625 75.410156 188.882812 79.144531 189.472656 81.09375 C 189.046875 79.71875 182.328125 79.097656 181.027344 79.082031 C 181.390625 81.273438 182.3125 83.390625 184.382812 84.511719 C 182.417969 83.4375 178.945312 85.601562 177.691406 87.066406 Z M 177.691406 87.066406 " fill-opacity="1" fill-rule="nonzero"/><path fill="#157a2c" d="M 153.753906 219.675781 C 153.589844 219.464844 153.390625 219.253906 153.210938 219.058594 C 149.132812 214.761719 138.5 214.640625 133.035156 216.851562 L 132.023438 214.234375 C 138.441406 211.84375 149.449219 211.558594 155.191406 217.0625 C 155.460938 217.320312 155.703125 217.605469 155.945312 217.894531 Z M 153.753906 219.675781 " fill-opacity="1" fill-rule="nonzero"/><path fill="#157a2c" d="M 155.914062 215.777344 C 153.46875 213.3125 151.957031 209.304688 151.324219 205.175781 C 150.71875 201.035156 150.992188 196.769531 152.789062 193.699219 L 155.191406 195.136719 C 153.90625 197.238281 153.511719 201.0625 154.085938 204.769531 C 154.617188 208.472656 156.109375 212.070312 157.878906 213.808594 C 157.894531 213.824219 157.90625 213.839844 157.9375 213.871094 L 156.019531 215.914062 C 156.019531 215.867188 155.976562 215.820312 155.914062 215.777344 Z M 155.914062 215.777344 " fill-opacity="1" fill-rule="nonzero"/><path fill="#157a2c" d="M 153.617188 214.988281 C 148.863281 210.152344 145.707031 201.789062 145.492188 196.574219 L 148.289062 196.480469 C 148.363281 200.699219 151.503906 209.003906 155.597656 212.992188 C 156.59375 213.992188 157.621094 214.71875 158.617188 215.125 L 157.5625 217.726562 C 156.125 217.136719 154.8125 216.167969 153.617188 214.988281 Z M 153.617188 214.988281 " fill-opacity="1" fill-rule="nonzero"/><path fill="#157a2c" d="M 154.933594 214.914062 C 153.484375 214.023438 152.035156 212.84375 150.644531 211.453125 C 146.566406 207.382812 143.03125 201.757812 141.039062 197.992188 L 138.5625 199.308594 C 140.660156 203.242188 144.253906 209.03125 148.664062 213.433594 C 150.007812 214.761719 151.429688 215.972656 152.925781 216.957031 C 153.527344 216.230469 154.207031 215.550781 154.933594 214.914062 Z M 154.933594 214.914062 " fill-opacity="1" fill-rule="nonzero"/><path fill="#157a2c" d="M 134.425781 208.292969 L 134.652344 205.492188 C 141.765625 206.160156 148.078125 212.285156 153.136719 215.699219 L 151.550781 218.015625 C 146.292969 214.324219 140.011719 208.683594 134.425781 208.292969 Z M 134.425781 208.292969 " fill-opacity="1" fill-rule="nonzero"/><g clip-path="url(#0e5fb8da7f)"><path fill="#f68820" d="M 150.703125 211.769531 C 147.472656 215.019531 147.15625 220.070312 152.183594 226.253906 C 151.777344 225.757812 151.398438 225.257812 151.050781 224.757812 C 153.632812 222.21875 156.398438 219.980469 159.824219 218.421875 C 157.894531 220.417969 154.269531 223.351562 152.183594 226.253906 C 152.847656 227.070312 153.605469 227.902344 154.449219 228.765625 C 154.117188 228.433594 153.832031 228.113281 153.527344 227.78125 C 156.140625 225.195312 158.949219 222.914062 162.421875 221.308594 C 160.503906 223.292969 156.910156 226.226562 154.8125 229.097656 C 155.265625 229.535156 155.75 230.003906 156.308594 230.503906 C 158.875 227.980469 161.625 225.769531 165.019531 224.214844 C 163.179688 226.117188 159.765625 228.917969 157.636719 231.699219 C 158.511719 232.453125 159.464844 233.269531 160.476562 234.101562 C 160.050781 233.753906 159.628906 233.40625 159.238281 233.074219 C 161.699219 230.699219 164.371094 228.597656 167.617188 227.117188 C 165.867188 228.929688 162.695312 231.53125 160.566406 234.179688 C 161.109375 234.632812 161.683594 235.085938 162.273438 235.554688 C 164.628906 233.347656 167.152344 231.410156 170.214844 230.003906 C 168.570312 231.699219 165.671875 234.101562 163.554688 236.582031 C 163.195312 236.296875 162.832031 236.007812 162.46875 235.734375 C 163.40625 236.476562 164.371094 237.234375 165.351562 238.003906 C 167.558594 235.992188 169.945312 234.222656 172.796875 232.921875 C 171.273438 234.496094 168.675781 236.671875 166.621094 238.957031 C 176.167969 246.152344 187.417969 253.171875 189.804688 250.765625 C 193.457031 247.089844 175.035156 222.777344 167.679688 215.445312 C 160.339844 208.125 154.359375 208.09375 150.703125 211.769531 Z M 179.746094 247.816406 C 179.398438 247.621094 179.050781 247.410156 178.703125 247.210938 C 180.09375 246.199219 181.558594 245.292969 183.1875 244.550781 C 182.3125 245.457031 181.042969 246.59375 179.746094 247.816406 Z M 176.300781 245.730469 C 175.925781 245.503906 175.5625 245.246094 175.167969 245.003906 C 176.816406 243.703125 178.597656 242.554688 180.589844 241.648438 C 179.519531 242.753906 177.886719 244.171875 176.300781 245.730469 Z M 172.996094 243.539062 C 172.601562 243.265625 172.210938 242.992188 171.816406 242.722656 C 173.675781 241.164062 175.683594 239.789062 178.007812 238.730469 C 176.753906 240.03125 174.792969 241.722656 172.996094 243.539062 Z M 169.777344 241.285156 C 169.371094 240.996094 168.960938 240.695312 168.554688 240.394531 C 170.609375 238.59375 172.8125 237.019531 175.410156 235.839844 C 174.007812 237.277344 171.726562 239.214844 169.777344 241.285156 Z M 169.777344 241.285156 " fill-opacity="1" fill-rule="nonzero"/></g><path fill="#57a52c" d="M 122.554688 67.015625 C 125.167969 64.25 127.613281 63.703125 131.238281 63.871094 C 126.34375 61.695312 121.585938 60.769531 116.710938 63.070312 C 113.160156 64.734375 109.097656 67.441406 107.816406 71.355469 C 107.058594 73.683594 107 77.054688 110.035156 77.3125 C 114.835938 77.691406 118.523438 71.28125 122.554688 67.015625 Z M 122.554688 67.015625 " fill-opacity="1" fill-rule="nonzero"/><path fill="#57a52c" d="M 103.234375 79.753906 L 107.261719 71.5625 L 111.328125 73.5625 L 107.296875 81.757812 Z M 103.234375 79.753906 " fill-opacity="1" fill-rule="nonzero"/><path fill="#57a52c" d="M 112.78125 47.296875 C 111.410156 45.332031 109.746094 43.535156 108.492188 42.261719 C 109.339844 44.636719 109.355469 46.527344 109.007812 48.570312 C 109.597656 49.097656 110.125 49.65625 110.625 50.214844 C 111.316406 49.21875 112.027344 48.25 112.78125 47.296875 Z M 112.78125 47.296875 " fill-opacity="1" fill-rule="nonzero"/><path fill="#57a52c" d="M 126.074219 61.464844 C 127.644531 60.136719 129.394531 59.046875 131.523438 58.957031 C 129.816406 58.019531 127.71875 57.488281 125.574219 57.308594 C 125.167969 58.640625 124.714844 59.941406 124.246094 61.179688 C 124.835938 61.238281 125.453125 61.332031 126.074219 61.464844 Z M 126.074219 61.464844 " fill-opacity="1" fill-rule="nonzero"/><path fill="#57a52c" d="M 113.75 65.140625 C 114.488281 61.074219 114.460938 57.730469 112.964844 54.917969 C 110.746094 50.761719 108.328125 47.8125 101.425781 44.605469 C 110.894531 53.195312 97.425781 65.671875 103.933594 73.773438 C 109.945312 81.261719 113.007812 69.222656 113.75 65.140625 Z M 105.683594 73.578125 C 105.472656 73.367188 105.277344 73.140625 105.066406 72.867188 C 102.515625 69.691406 103.601562 65.625 104.871094 60.921875 C 105.082031 60.136719 105.519531 58.851562 105.820312 57.566406 C 106.257812 55.691406 105.988281 54.316406 106.09375 54.554688 C 106.152344 54.707031 106.199219 54.84375 106.242188 54.996094 C 107.453125 58.546875 106.0625 61.695312 105.777344 65.414062 C 105.382812 70.28125 106.046875 73.957031 105.683594 73.578125 Z M 105.683594 73.578125 " fill-opacity="1" fill-rule="nonzero"/><path fill="#157a2c" d="M 182.734375 164.167969 C 184.351562 163.414062 190.121094 162.140625 188.867188 159.828125 C 187.265625 156.851562 180.304688 161.070312 178.882812 162.503906 C 176.832031 158.40625 179.640625 154.613281 178.429688 150.757812 C 176.589844 144.859375 170.519531 148.382812 170.652344 153.582031 C 164.839844 145.296875 153.5 153.007812 161.578125 158.257812 C 165.925781 161.070312 168.28125 159.421875 172.785156 161.28125 C 176.4375 162.792969 177.40625 165.136719 177.707031 168.023438 C 177.859375 168.007812 178.023438 168.023438 178.191406 168.070312 C 179.550781 168.449219 180.9375 168.703125 181.964844 169.597656 C 183.519531 169.1875 185.347656 169.21875 187.25 169.066406 C 196.328125 168.355469 188.171875 163.730469 182.734375 164.167969 Z M 182.734375 164.167969 " fill-opacity="1" fill-rule="nonzero"/><path fill="#7f3068" d="M 178.945312 167.496094 C 172.585938 165.605469 166.046875 168.75 164.339844 174.527344 C 161.894531 182.796875 171.332031 185.566406 170.003906 196.359375 C 174.535156 187 184.59375 190.675781 187.355469 181.359375 C 189.0625 175.601562 185.304688 169.386719 178.945312 167.496094 Z M 165.910156 176.671875 C 165.699219 177.367188 165.625 178.019531 165.578125 178.640625 C 165.339844 177.519531 165.351562 176.324219 165.761719 174.949219 C 167.242188 169.976562 172.964844 167.269531 178.523438 168.917969 C 179.324219 169.160156 180.0625 169.476562 180.757812 169.855469 C 174.144531 168.144531 167.558594 171.125 165.910156 176.671875 Z M 165.910156 176.671875 " fill-opacity="1" fill-rule="nonzero"/><path fill="#f64b31" d="M 96.066406 76.996094 C 95.761719 76.859375 95.445312 76.722656 95.128906 76.574219 C 95.175781 77.78125 95.070312 78.917969 95.054688 78.976562 L 94.886719 80.730469 L 93.828125 79.324219 C 93.769531 79.25 92.5625 77.632812 91.699219 76.164062 C 90.476562 76.933594 89.058594 77.539062 88.980469 77.570312 L 87.96875 77.992188 L 88.03125 76.890625 C 88.046875 76.800781 88.152344 75.03125 88.527344 73.546875 C 86.867188 73.214844 84.949219 72.625 84.859375 72.597656 L 83.183594 72.066406 L 84.769531 71.324219 C 84.828125 71.296875 85.855469 70.8125 87.003906 70.449219 C 86.824219 70.265625 86.640625 70.070312 86.460938 69.875 C 82.820312 69.253906 79.257812 70.371094 77.292969 73.140625 C 74.363281 77.296875 72.914062 88.140625 78.019531 91.753906 C 83.121094 95.367188 92.847656 90.378906 95.777344 86.203125 C 97.636719 83.589844 97.621094 80.109375 96.066406 76.996094 Z M 85.902344 76.269531 C 86.097656 76.40625 86.007812 76.875 85.691406 77.3125 C 85.386719 77.753906 84.980469 77.992188 84.785156 77.859375 C 84.585938 77.722656 84.679688 77.253906 84.996094 76.816406 C 85.3125 76.375 85.71875 76.132812 85.902344 76.269531 Z M 80.691406 83.664062 C 80.886719 83.800781 80.796875 84.269531 80.480469 84.707031 C 80.164062 85.144531 79.753906 85.386719 79.574219 85.253906 C 79.378906 85.117188 79.46875 84.648438 79.785156 84.207031 C 80.085938 83.785156 80.496094 83.527344 80.691406 83.664062 Z M 80.992188 78.234375 C 81.191406 78.371094 81.097656 78.839844 80.78125 79.277344 C 80.464844 79.71875 80.058594 79.960938 79.875 79.824219 C 79.679688 79.6875 79.769531 79.21875 80.085938 78.78125 C 80.390625 78.339844 80.796875 78.101562 80.992188 78.234375 Z M 77.066406 82.652344 C 76.675781 82.621094 76.371094 82.257812 76.207031 81.609375 C 75.675781 79.414062 77.203125 75.800781 78.441406 74.046875 C 79.695312 72.261719 81.417969 71.6875 82.5625 71.523438 C 80.179688 72.945312 79.210938 76.285156 78.789062 78.855469 C 78.636719 79.824219 78.820312 81.515625 77.988281 82.242188 C 77.65625 82.546875 77.339844 82.679688 77.066406 82.652344 Z M 78.984375 90.300781 C 78.789062 90.167969 78.878906 89.699219 79.195312 89.257812 C 79.5 88.820312 79.90625 88.578125 80.101562 88.714844 C 80.296875 88.851562 80.191406 89.320312 79.890625 89.757812 C 79.589844 90.195312 79.179688 90.4375 78.984375 90.300781 Z M 84.210938 82.894531 C 84.015625 82.757812 84.105469 82.289062 84.421875 81.851562 C 84.738281 81.410156 85.132812 81.167969 85.328125 81.304688 C 85.523438 81.441406 85.433594 81.910156 85.117188 82.347656 C 84.8125 82.789062 84.40625 83.027344 84.210938 82.894531 Z M 83.90625 88.335938 C 83.710938 88.199219 83.800781 87.730469 84.121094 87.292969 C 84.421875 86.855469 84.828125 86.613281 85.027344 86.75 C 85.222656 86.886719 85.117188 87.355469 84.8125 87.792969 C 84.511719 88.214844 84.105469 88.472656 83.90625 88.335938 Z M 89.132812 80.925781 C 88.9375 80.792969 89.027344 80.324219 89.34375 79.882812 C 89.660156 79.445312 90.070312 79.203125 90.25 79.339844 C 90.445312 79.476562 90.355469 79.945312 90.039062 80.382812 C 89.738281 80.820312 89.328125 81.0625 89.132812 80.925781 Z M 88.558594 85.960938 C 88.363281 85.828125 88.453125 85.359375 88.769531 84.917969 C 89.089844 84.480469 89.480469 84.238281 89.675781 84.375 C 89.875 84.511719 89.78125 84.980469 89.464844 85.417969 C 89.164062 85.855469 88.753906 86.097656 88.558594 85.960938 Z M 93.484375 83.996094 C 93.285156 83.859375 93.378906 83.390625 93.695312 82.953125 C 94.011719 82.515625 94.402344 82.273438 94.601562 82.410156 C 94.796875 82.546875 94.707031 83.015625 94.390625 83.453125 C 94.070312 83.890625 93.664062 84.132812 93.484375 83.996094 Z M 93.484375 83.996094 " fill-opacity="1" fill-rule="nonzero"/><path fill="#157a2c" d="M 94.359375 75.4375 C 96.214844 76.40625 98.90625 77.402344 98.90625 77.402344 C 98.90625 77.402344 96.835938 75.195312 95.203125 73.835938 C 96.683594 73.5625 98.421875 72.824219 98.421875 72.824219 C 98.421875 72.824219 96.003906 72.019531 94.253906 71.6875 C 94.691406 70.691406 94.902344 69.074219 94.902344 69.074219 C 94.902344 69.074219 93.152344 69.511719 92.136719 70.085938 C 91.324219 68.527344 89.433594 66.109375 89.433594 66.109375 C 89.433594 66.109375 89.316406 68 89.554688 69.480469 C 87.730469 68.40625 84.949219 67.183594 84.949219 67.183594 C 84.949219 67.183594 86.792969 69.390625 88.332031 70.8125 C 86.851562 71.097656 85.039062 71.945312 85.039062 71.945312 C 85.039062 71.945312 87.652344 72.761719 89.390625 73.019531 C 88.863281 74.484375 88.710938 76.933594 88.710938 76.933594 C 88.710938 76.933594 90.671875 76.105469 91.925781 75.195312 C 92.742188 76.738281 94.375 78.917969 94.375 78.917969 C 94.375 78.917969 94.585938 76.921875 94.359375 75.4375 Z M 94.359375 75.4375 " fill-opacity="1" fill-rule="nonzero"/><path fill="#57a52c" d="M 223.210938 134.335938 C 220.898438 137.707031 220.582031 142.152344 222.289062 146.429688 C 222.695312 144.707031 222.90625 142.53125 223.464844 140.867188 C 224.371094 138.175781 225.414062 136.316406 227.511719 133.773438 C 227.511719 133.761719 227.542969 133.761719 227.542969 133.773438 C 227.558594 133.789062 227.558594 133.789062 227.558594 133.804688 C 226.003906 136.179688 225.019531 138.839844 224.3125 141.5625 C 223.890625 143.179688 223.585938 144.828125 223.300781 146.492188 C 227.195312 144.511719 229.914062 141.246094 230.789062 137.34375 C 231.363281 134.789062 231.136719 132.007812 230.203125 129.253906 C 227.242188 130.296875 224.765625 132.050781 223.210938 134.335938 Z M 223.210938 134.335938 " fill-opacity="1" fill-rule="nonzero"/><path fill="#f6c02b" d="M 190.589844 209.710938 C 190.710938 209.652344 190.832031 209.636719 190.9375 209.636719 C 195.558594 208.714844 201.296875 207.597656 206.945312 204.496094 C 211.503906 202.210938 215.371094 199.265625 218.601562 196.679688 C 215.445312 198.3125 211.1875 200.972656 205.464844 201.636719 C 195.933594 203.347656 189.863281 199.882812 187.007812 201.003906 C 185.636719 201.667969 185.710938 205.359375 189.578125 208.851562 C 189.878906 209.167969 190.242188 209.410156 190.589844 209.710938 Z M 190.589844 209.710938 " fill-opacity="1" fill-rule="nonzero"/><path fill="#f6c02b" d="M 214.691406 212.980469 C 219.902344 207.988281 226.304688 200.804688 227.226562 192.277344 C 223.195312 194.335938 216.804688 201.382812 207.730469 205.933594 C 196.449219 212.132812 184.746094 210.726562 183.386719 214.386719 C 182.839844 216.035156 185.410156 218.890625 191.132812 220.644531 C 194.695312 221.765625 199.574219 222.066406 204.769531 221.082031 C 207.867188 218.90625 211.476562 216.246094 214.691406 212.980469 Z M 214.691406 212.980469 " fill-opacity="1" fill-rule="nonzero"/><path fill="#f6c02b" d="M 233.402344 186.472656 C 231.304688 186.53125 230.59375 186.167969 228.570312 186.125 C 230.972656 197.992188 222.4375 207.808594 215.855469 214.128906 C 207.472656 222.703125 196.871094 226.695312 197.445312 230.292969 C 197.429688 233.496094 212.183594 235.238281 224.75 222.972656 C 229.445312 218.242188 233.117188 211.695312 233.507812 204.890625 C 233.691406 202.136719 233.207031 199.597656 232.738281 196.90625 C 232.601562 195.953125 232.121094 186.503906 233.402344 186.472656 Z M 233.402344 186.472656 " fill-opacity="1" fill-rule="nonzero"/><path fill="#f6c02b" d="M 101.410156 44.605469 C 101.410156 44.605469 101.425781 44.605469 101.425781 44.621094 C 101.425781 44.589844 101.410156 44.589844 101.410156 44.605469 C 101.289062 44.53125 101.289062 44.53125 101.410156 44.605469 Z M 101.410156 44.605469 " fill-opacity="1" fill-rule="nonzero"/><g clip-path="url(#6d3957aca4)"><path fill="#f6c02b" d="M 123.503906 61.089844 C 123.6875 61.105469 123.898438 61.132812 124.078125 61.148438 C 124.140625 61.148438 124.183594 61.164062 124.246094 61.164062 C 124.714844 59.925781 125.167969 58.625 125.574219 57.292969 C 128.171875 48.855469 129.304688 39.375 125.996094 37.742188 C 124.140625 36.835938 121.195312 38.511719 118.070312 41.445312 C 118.445312 41.203125 119.035156 41.21875 119.59375 41.492188 C 120.347656 41.855469 120.742188 42.582031 120.484375 43.09375 C 120.226562 43.609375 119.414062 43.730469 118.671875 43.367188 C 117.917969 43.003906 117.523438 42.277344 117.78125 41.765625 C 117.84375 41.644531 117.949219 41.539062 118.070312 41.445312 C 116.316406 43.078125 114.503906 45.121094 112.78125 47.296875 C 112.042969 48.25 111.316406 49.21875 110.625 50.203125 C 110.652344 50.230469 110.667969 50.261719 110.699219 50.292969 C 110.757812 50.351562 110.804688 50.429688 110.863281 50.488281 C 111.5 50.15625 112.464844 50.171875 113.371094 50.609375 C 114.65625 51.246094 115.335938 52.46875 114.898438 53.363281 C 114.640625 53.890625 114.035156 54.164062 113.328125 54.179688 C 113.402344 54.316406 113.476562 54.464844 113.554688 54.601562 C 113.886719 55.238281 114.15625 55.902344 114.367188 56.613281 C 115.003906 56.339844 115.894531 56.402344 116.726562 56.808594 C 118.007812 57.445312 118.6875 58.667969 118.25 59.546875 C 117.8125 60.4375 116.421875 60.636719 115.152344 60.015625 C 115.046875 59.96875 114.957031 59.910156 114.867188 59.847656 C 114.882812 60.046875 114.882812 60.242188 114.898438 60.453125 C 114.914062 60.46875 114.925781 60.46875 114.941406 60.46875 C 115.863281 60.921875 116.46875 61.695312 116.574219 62.417969 C 117.40625 62.027344 118.25 61.753906 119.109375 61.527344 C 118.71875 60.96875 118.597656 60.347656 118.839844 59.847656 C 119.277344 58.957031 120.667969 58.761719 121.949219 59.394531 C 122.75 59.789062 123.308594 60.4375 123.503906 61.089844 Z M 125.96875 53.921875 C 125.542969 54.785156 124.335938 55.070312 123.292969 54.542969 C 122.238281 54.027344 121.722656 52.894531 122.160156 52.03125 C 122.585938 51.167969 123.792969 50.882812 124.835938 51.410156 C 125.890625 51.941406 126.40625 53.058594 125.96875 53.921875 Z M 127.023438 50.15625 C 126.738281 50.761719 125.785156 50.898438 124.925781 50.472656 C 124.0625 50.035156 123.597656 49.203125 123.898438 48.613281 C 124.183594 48.007812 125.136719 47.871094 125.996094 48.296875 C 126.859375 48.71875 127.3125 49.550781 127.023438 50.15625 Z M 127.75 46.679688 C 127.492188 47.191406 126.675781 47.3125 125.921875 46.949219 C 125.167969 46.585938 124.773438 45.863281 125.03125 45.347656 C 125.289062 44.832031 126.101562 44.710938 126.84375 45.074219 C 127.597656 45.4375 128.007812 46.164062 127.75 46.679688 Z M 127.765625 43.820312 C 127.566406 44.214844 126.964844 44.304688 126.40625 44.015625 C 125.847656 43.746094 125.542969 43.199219 125.742188 42.824219 C 125.9375 42.429688 126.542969 42.355469 127.101562 42.625 C 127.660156 42.882812 127.960938 43.425781 127.765625 43.820312 Z M 124.5625 38.242188 C 124.757812 37.847656 125.363281 37.757812 125.921875 38.042969 C 126.480469 38.316406 126.78125 38.859375 126.585938 39.238281 C 126.390625 39.632812 125.785156 39.722656 125.226562 39.433594 C 124.667969 39.164062 124.367188 38.617188 124.5625 38.242188 Z M 122.871094 40.28125 C 123.171875 39.664062 124.15625 39.511719 125.0625 39.964844 C 125.96875 40.402344 126.449219 41.265625 126.132812 41.898438 C 125.832031 42.519531 124.851562 42.671875 123.945312 42.21875 C 123.050781 41.777344 122.570312 40.917969 122.871094 40.28125 Z M 123.746094 42.6875 C 124.863281 43.230469 125.453125 44.304688 125.074219 45.074219 C 124.699219 45.847656 123.492188 46.027344 122.371094 45.484375 C 121.253906 44.925781 120.667969 43.867188 121.042969 43.078125 C 121.421875 42.308594 122.628906 42.140625 123.746094 42.6875 Z M 120.03125 39.996094 C 120.226562 39.601562 120.832031 39.511719 121.390625 39.796875 C 121.949219 40.070312 122.253906 40.613281 122.054688 40.992188 C 121.859375 41.386719 121.253906 41.476562 120.695312 41.191406 C 120.136719 40.933594 119.835938 40.386719 120.03125 39.996094 Z M 119.003906 46.316406 C 119.441406 45.421875 120.832031 45.226562 122.117188 45.847656 C 123.398438 46.480469 124.078125 47.707031 123.640625 48.597656 C 123.203125 49.476562 121.8125 49.6875 120.546875 49.050781 C 119.246094 48.417969 118.566406 47.191406 119.003906 46.316406 Z M 121.84375 52.242188 C 121.40625 53.136719 120.015625 53.332031 118.75 52.695312 C 117.464844 52.0625 116.785156 50.835938 117.222656 49.960938 C 117.660156 49.066406 119.050781 48.871094 120.335938 49.492188 C 121.585938 50.140625 122.265625 51.367188 121.84375 52.242188 Z M 115.472656 44.457031 C 115.773438 43.851562 116.710938 43.714844 117.570312 44.136719 C 118.429688 44.5625 118.898438 45.394531 118.597656 45.996094 C 118.296875 46.601562 117.375 46.738281 116.5 46.316406 C 115.636719 45.890625 115.167969 45.058594 115.472656 44.457031 Z M 114.261719 50.097656 C 113.265625 49.613281 112.769531 48.570312 113.070312 47.738281 C 113.070312 47.738281 113.085938 47.722656 113.085938 47.722656 C 113.085938 47.722656 113.085938 47.707031 113.085938 47.707031 C 113.101562 47.675781 113.101562 47.632812 113.128906 47.585938 C 113.554688 46.722656 114.761719 46.4375 115.804688 46.964844 C 116.859375 47.480469 117.375 48.613281 116.9375 49.476562 C 116.511719 50.335938 115.304688 50.625 114.261719 50.097656 Z M 120.046875 55.902344 C 119.609375 56.792969 118.21875 56.992188 116.953125 56.355469 C 115.667969 55.722656 114.988281 54.496094 115.425781 53.617188 C 115.863281 52.726562 117.253906 52.53125 118.535156 53.148438 C 119.789062 53.785156 120.46875 55.023438 120.046875 55.902344 Z M 121.859375 58.789062 C 120.574219 58.15625 119.894531 56.929688 120.335938 56.054688 C 120.773438 55.160156 122.160156 54.964844 123.445312 55.601562 C 124.730469 56.234375 125.410156 57.460938 124.96875 58.351562 C 124.515625 59.214844 123.128906 59.425781 121.859375 58.789062 Z M 121.859375 58.789062 " fill-opacity="1" fill-rule="nonzero"/></g><path fill="#f64b31" d="M 223.691406 50.066406 C 225.941406 50.066406 227.769531 48.234375 227.769531 45.984375 C 227.769531 43.730469 225.941406 41.898438 223.691406 41.898438 C 221.441406 41.898438 219.613281 43.730469 219.613281 45.984375 C 219.613281 48.234375 221.441406 50.066406 223.691406 50.066406 Z M 223.691406 50.066406 " fill-opacity="1" fill-rule="nonzero"/><path fill="#f68820" d="M 224.6875 61.089844 C 225.792969 61.089844 226.699219 60.195312 226.699219 59.078125 C 226.699219 57.972656 225.792969 57.066406 224.6875 57.066406 C 223.585938 57.066406 222.679688 57.957031 222.679688 59.078125 C 222.679688 60.195312 223.570312 61.089844 224.6875 61.089844 Z M 224.6875 61.089844 " fill-opacity="1" fill-rule="nonzero"/><path fill="#f64b31" d="M 294.6875 70.585938 C 292.46875 70.585938 290.683594 72.382812 290.683594 74.589844 C 290.683594 76.816406 292.480469 78.597656 294.6875 78.597656 C 296.890625 78.597656 298.6875 76.800781 298.6875 74.589844 C 298.703125 72.382812 296.90625 70.585938 294.6875 70.585938 Z M 294.6875 70.585938 " fill-opacity="1" fill-rule="nonzero"/><path fill="#f68820" d="M 300.683594 83.453125 C 299.582031 83.453125 298.6875 84.34375 298.6875 85.449219 C 298.6875 86.550781 299.582031 87.445312 300.683594 87.445312 C 301.785156 87.445312 302.675781 86.550781 302.675781 85.449219 C 302.675781 84.34375 301.785156 83.453125 300.683594 83.453125 Z M 300.683594 83.453125 " fill-opacity="1" fill-rule="nonzero"/><path fill="#f6c02b" d="M 253.429688 131.191406 C 252.039062 131.191406 250.90625 132.324219 250.90625 133.714844 C 250.90625 135.105469 252.039062 136.238281 253.429688 136.238281 C 254.816406 136.238281 255.949219 135.105469 255.949219 133.714844 C 255.949219 132.324219 254.832031 131.191406 253.429688 131.191406 Z M 253.429688 131.191406 " fill-opacity="1" fill-rule="nonzero"/><path fill="#f68820" d="M 245.5 196.089844 C 243.445312 196.089844 241.769531 197.753906 241.769531 199.824219 C 241.769531 201.894531 243.429688 203.558594 245.5 203.558594 C 247.554688 203.558594 249.230469 201.894531 249.230469 199.824219 C 249.230469 197.753906 247.554688 196.089844 245.5 196.089844 Z M 245.5 196.089844 " fill-opacity="1" fill-rule="nonzero"/><path fill="#f6c02b" d="M 172.8125 205.085938 C 172.8125 205.335938 172.765625 205.578125 172.671875 205.808594 C 172.574219 206.039062 172.4375 206.246094 172.261719 206.421875 C 172.082031 206.597656 171.878906 206.734375 171.648438 206.832031 C 171.417969 206.929688 171.175781 206.976562 170.925781 206.976562 C 170.675781 206.976562 170.433594 206.929688 170.203125 206.832031 C 169.972656 206.734375 169.769531 206.597656 169.589844 206.421875 C 169.414062 206.246094 169.277344 206.039062 169.183594 205.808594 C 169.085938 205.578125 169.039062 205.335938 169.039062 205.085938 C 169.039062 204.835938 169.085938 204.59375 169.183594 204.363281 C 169.277344 204.128906 169.414062 203.925781 169.589844 203.75 C 169.769531 203.570312 169.972656 203.433594 170.203125 203.339844 C 170.433594 203.242188 170.675781 203.195312 170.925781 203.195312 C 171.175781 203.195312 171.417969 203.242188 171.648438 203.339844 C 171.878906 203.433594 172.082031 203.570312 172.261719 203.75 C 172.4375 203.925781 172.574219 204.128906 172.671875 204.363281 C 172.765625 204.59375 172.8125 204.835938 172.8125 205.085938 Z M 172.8125 205.085938 " fill-opacity="1" fill-rule="nonzero"/><path fill="#57a52c" d="M 126.253906 188.9375 C 124.199219 188.9375 122.539062 190.601562 122.539062 192.65625 C 122.539062 194.710938 124.199219 196.375 126.253906 196.375 C 128.308594 196.375 129.96875 194.710938 129.96875 192.65625 C 129.96875 190.601562 128.308594 188.9375 126.253906 188.9375 Z M 126.253906 188.9375 " fill-opacity="1" fill-rule="nonzero"/><path fill="#f68820" d="M 154.511719 143.179688 C 154.511719 143.589844 154.429688 143.988281 154.273438 144.367188 C 154.117188 144.746094 153.894531 145.082031 153.601562 145.371094 C 153.3125 145.664062 152.976562 145.886719 152.597656 146.042969 C 152.21875 146.203125 151.824219 146.28125 151.414062 146.28125 C 151.003906 146.28125 150.609375 146.203125 150.230469 146.042969 C 149.851562 145.886719 149.515625 145.664062 149.226562 145.371094 C 148.933594 145.082031 148.710938 144.746094 148.554688 144.367188 C 148.398438 143.988281 148.316406 143.589844 148.316406 143.179688 C 148.316406 142.769531 148.398438 142.375 148.554688 141.996094 C 148.710938 141.613281 148.933594 141.277344 149.226562 140.988281 C 149.515625 140.699219 149.851562 140.472656 150.230469 140.316406 C 150.609375 140.160156 151.003906 140.082031 151.414062 140.082031 C 151.824219 140.082031 152.21875 140.160156 152.597656 140.316406 C 152.976562 140.472656 153.3125 140.699219 153.601562 140.988281 C 153.894531 141.277344 154.117188 141.613281 154.273438 141.996094 C 154.429688 142.375 154.511719 142.769531 154.511719 143.179688 Z M 154.511719 143.179688 " fill-opacity="1" fill-rule="nonzero"/><path fill="#f6c02b" d="M 124.0625 127.320312 C 124.0625 128 124.609375 128.542969 125.289062 128.542969 C 125.96875 128.542969 126.511719 128 126.511719 127.320312 C 126.511719 126.636719 125.96875 126.09375 125.289062 126.09375 C 124.609375 126.09375 124.0625 126.636719 124.0625 127.320312 Z M 124.0625 127.320312 " fill-opacity="1" fill-rule="nonzero"/><path fill="#f68820" d="M 117.285156 89.683594 C 117.285156 90.078125 117.207031 90.457031 117.058594 90.824219 C 116.90625 91.1875 116.691406 91.507812 116.414062 91.789062 C 116.132812 92.066406 115.8125 92.285156 115.445312 92.433594 C 115.082031 92.585938 114.703125 92.660156 114.308594 92.660156 C 113.914062 92.660156 113.535156 92.585938 113.167969 92.433594 C 112.804688 92.285156 112.484375 92.066406 112.203125 91.789062 C 111.925781 91.507812 111.710938 91.1875 111.558594 90.824219 C 111.410156 90.457031 111.332031 90.078125 111.332031 89.683594 C 111.332031 89.289062 111.410156 88.90625 111.558594 88.542969 C 111.710938 88.175781 111.925781 87.855469 112.203125 87.574219 C 112.484375 87.296875 112.804688 87.082031 113.167969 86.929688 C 113.535156 86.777344 113.914062 86.703125 114.308594 86.703125 C 114.703125 86.703125 115.082031 86.777344 115.445312 86.929688 C 115.8125 87.082031 116.132812 87.296875 116.414062 87.574219 C 116.691406 87.855469 116.90625 88.175781 117.058594 88.542969 C 117.207031 88.90625 117.285156 89.289062 117.285156 89.683594 Z M 117.285156 89.683594 " fill-opacity="1" fill-rule="nonzero"/><path fill="#f68820" d="M 193.804688 101.765625 C 193.804688 101.929688 193.773438 102.085938 193.710938 102.238281 C 193.648438 102.390625 193.558594 102.523438 193.441406 102.640625 C 193.328125 102.757812 193.191406 102.847656 193.042969 102.910156 C 192.890625 102.972656 192.730469 103.003906 192.566406 103.003906 C 192.402344 103.003906 192.246094 102.972656 192.09375 102.910156 C 191.941406 102.847656 191.808594 102.757812 191.691406 102.640625 C 191.574219 102.523438 191.484375 102.390625 191.421875 102.238281 C 191.359375 102.085938 191.328125 101.929688 191.328125 101.765625 C 191.328125 101.601562 191.359375 101.441406 191.421875 101.289062 C 191.484375 101.136719 191.574219 101.003906 191.691406 100.886719 C 191.808594 100.769531 191.941406 100.679688 192.09375 100.617188 C 192.246094 100.554688 192.402344 100.523438 192.566406 100.523438 C 192.730469 100.523438 192.890625 100.554688 193.042969 100.617188 C 193.191406 100.679688 193.328125 100.769531 193.441406 100.886719 C 193.558594 101.003906 193.648438 101.136719 193.710938 101.289062 C 193.773438 101.441406 193.804688 101.601562 193.804688 101.765625 Z M 193.804688 101.765625 " fill-opacity="1" fill-rule="nonzero"/><path fill="#f6c02b" d="M 217.878906 92.480469 C 217.878906 92.851562 217.808594 93.210938 217.664062 93.554688 C 217.523438 93.902344 217.320312 94.203125 217.054688 94.46875 C 216.792969 94.730469 216.488281 94.933594 216.144531 95.078125 C 215.800781 95.222656 215.441406 95.292969 215.070312 95.292969 C 214.695312 95.292969 214.339844 95.222656 213.996094 95.078125 C 213.648438 94.933594 213.347656 94.730469 213.082031 94.46875 C 212.820312 94.203125 212.617188 93.902344 212.472656 93.554688 C 212.332031 93.210938 212.261719 92.851562 212.261719 92.480469 C 212.261719 92.105469 212.332031 91.75 212.472656 91.402344 C 212.617188 91.058594 212.820312 90.753906 213.082031 90.492188 C 213.347656 90.226562 213.648438 90.023438 213.996094 89.882812 C 214.339844 89.738281 214.695312 89.667969 215.070312 89.667969 C 215.441406 89.667969 215.800781 89.738281 216.144531 89.882812 C 216.488281 90.023438 216.792969 90.226562 217.054688 90.492188 C 217.320312 90.753906 217.523438 91.058594 217.664062 91.402344 C 217.808594 91.75 217.878906 92.105469 217.878906 92.480469 Z M 217.878906 92.480469 " fill-opacity="1" fill-rule="nonzero"/><g fill="#00bf63" fill-opacity="1"><g transform="translate(11.238951, 325.522404)"><g><path d="M 8.546875 -14.984375 L 8.546875 0 L 4.109375 0 L 4.109375 -30.25 L 8.546875 -30.25 L 8.546875 -16.734375 L 22.390625 -16.734375 L 22.390625 -30.25 L 26.828125 -30.25 L 26.828125 0 L 22.390625 0 L 22.390625 -14.984375 Z M 8.546875 -14.984375 "/></g></g></g><g fill="#00bf63" fill-opacity="1"><g transform="translate(42.17224, 325.522404)"><g><path d="M 4.109375 0 L 4.109375 -30.25 L 22.4375 -30.25 L 21.984375 -27.1875 L 13.484375 -28.609375 C 11.992188 -28.609375 10.347656 -28.347656 8.546875 -27.828125 L 8.546875 -16.734375 L 18.6875 -16.734375 L 18.6875 -14.984375 L 8.546875 -14.984375 L 8.546875 -1.640625 L 22.71875 -3.0625 L 22.25 0 Z M 4.109375 0 "/></g></g></g><g fill="#00bf63" fill-opacity="1"><g transform="translate(67.850985, 325.522404)"><g><path d="M 0.453125 0 L 14.03125 -30.984375 L 14.71875 -30.984375 L 28.296875 0 L 23.3125 0 L 19.875 -8.234375 L 6.3125 -8.234375 L 2.921875 0 Z M 7 -9.96875 L 19.15625 -9.96875 L 13.109375 -24.765625 Z M 7 -9.96875 "/></g></g></g><g fill="#00bf63" fill-opacity="1"><g transform="translate(96.591072, 325.522404)"><g><path d="M 4.109375 0 L 4.109375 -30.25 L 8.59375 -30.25 L 8.59375 -2.46875 C 10.445312 -1.914062 11.941406 -1.640625 13.078125 -1.640625 L 21.34375 -3.0625 L 20.796875 0 Z M 4.109375 0 "/></g></g></g><g fill="#00bf63" fill-opacity="1"><g transform="translate(118.842941, 325.522404)"><g><path d="M 14.4375 0 L 10.015625 0 L 10.015625 -28.0625 C 8.972656 -28.300781 7.9375 -28.421875 6.90625 -28.421875 L 0.734375 -27.015625 L 0.453125 -30.25 L 24 -30.25 L 23.765625 -27.015625 L 17.546875 -28.421875 C 16.515625 -28.421875 15.476562 -28.300781 14.4375 -28.0625 Z M 14.4375 0 "/></g></g></g><g fill="#00bf63" fill-opacity="1"><g transform="translate(143.288011, 325.522404)"><g><path d="M 8.546875 -14.984375 L 8.546875 0 L 4.109375 0 L 4.109375 -30.25 L 8.546875 -30.25 L 8.546875 -16.734375 L 22.390625 -16.734375 L 22.390625 -30.25 L 26.828125 -30.25 L 26.828125 0 L 22.390625 0 L 22.390625 -14.984375 Z M 8.546875 -14.984375 "/></g></g></g><g fill="#00bf63" fill-opacity="1"><g transform="translate(174.2213, 325.522404)"><g><path d="M 15.671875 0 L 11.25 0 L 11.25 -11.25 L 0.921875 -30.25 L 5.890625 -30.25 L 14.34375 -12.890625 L 22.25 -30.25 L 24.546875 -30.25 L 15.671875 -11.46875 Z M 15.671875 0 "/></g></g></g><g fill="#00bf63" fill-opacity="1"><g transform="translate(199.671584, 325.522404)"><g/></g></g><g fill="#00bf63" fill-opacity="1"><g transform="translate(211.094516, 325.522404)"><g><path d="M 8.546875 -16.734375 L 18.234375 -16.734375 L 18.234375 -14.984375 L 8.546875 -14.984375 L 8.546875 0 L 4.109375 0 L 4.109375 -30.25 L 21.984375 -30.25 L 21.984375 -27.1875 L 13.53125 -28.609375 C 12.007812 -28.609375 10.347656 -28.347656 8.546875 -27.828125 Z M 8.546875 -16.734375 "/></g></g></g><g fill="#00bf63" fill-opacity="1"><g transform="translate(233.072221, 325.522404)"><g><path d="M 8.59375 -14.4375 L 8.59375 0 L 4.109375 0 L 4.109375 -30.25 L 13.984375 -30.25 C 17.054688 -30.25 19.578125 -29.5625 21.546875 -28.1875 C 23.515625 -26.820312 24.5 -25.019531 24.5 -22.78125 C 24.5 -20.539062 23.710938 -18.773438 22.140625 -17.484375 C 20.578125 -16.191406 18.453125 -15.300781 15.765625 -14.8125 L 28.015625 0 L 22.71875 0.640625 L 12.109375 -14.4375 Z M 8.59375 -15.8125 L 11.515625 -15.8125 C 17.003906 -15.8125 19.75 -17.972656 19.75 -22.296875 C 19.75 -23.035156 19.566406 -23.859375 19.203125 -24.765625 C 18.492188 -26.691406 17 -27.957031 14.71875 -28.5625 C 12.644531 -28.5625 10.601562 -28.300781 8.59375 -27.78125 Z M 8.59375 -15.8125 "/></g></g></g><g fill="#00bf63" fill-opacity="1"><g transform="translate(262.223526, 325.522404)"><g><path d="M 8.3125 -30.25 L 8.3125 0 L 4.109375 0 L 4.109375 -30.25 Z M 8.3125 -30.25 "/></g></g></g><g fill="#00bf63" fill-opacity="1"><g transform="translate(274.65167, 325.522404)"><g><path d="M 4.109375 0 L 4.109375 -30.25 L 12.75 -30.25 C 16.34375 -30.25 19.585938 -29.488281 22.484375 -27.96875 C 24.035156 -27.175781 25.390625 -26.1875 26.546875 -25 C 27.710938 -23.8125 28.644531 -22.296875 29.34375 -20.453125 C 30.039062 -18.609375 30.390625 -16.5625 30.390625 -14.3125 C 30.390625 -11.070312 29.582031 -8.34375 27.96875 -6.125 C 25.007812 -2.039062 20.226562 0 13.625 0 Z M 12.703125 -1.546875 C 16.578125 -1.546875 19.6875 -2.6875 22.03125 -4.96875 C 24.375 -7.257812 25.546875 -10.613281 25.546875 -15.03125 C 25.546875 -18.445312 24.613281 -21.363281 22.75 -23.78125 C 20.894531 -26.207031 18.492188 -27.816406 15.546875 -28.609375 C 12.890625 -28.609375 10.570312 -28.289062 8.59375 -27.65625 L 8.59375 -1.96875 C 9.570312 -1.6875 10.941406 -1.546875 12.703125 -1.546875 Z M 12.703125 -1.546875 "/></g></g></g><g fill="#00bf63" fill-opacity="1"><g transform="translate(307.001409, 325.522404)"><g><path d="M 23.265625 -13.03125 L 27.703125 -13.03125 L 27.703125 -1 C 25.078125 0.03125 21.921875 0.546875 18.234375 0.546875 C 13.753906 0.546875 9.898438 -0.640625 6.671875 -3.015625 C 5.085938 -4.203125 3.820312 -5.765625 2.875 -7.703125 C 1.9375 -9.640625 1.46875 -11.78125 1.46875 -14.125 C 1.46875 -16.46875 1.832031 -18.578125 2.5625 -20.453125 C 3.289062 -22.328125 4.238281 -23.890625 5.40625 -25.140625 C 6.582031 -26.390625 7.945312 -27.457031 9.5 -28.34375 C 12.394531 -29.976562 15.582031 -30.796875 19.0625 -30.796875 C 20.394531 -30.796875 21.835938 -30.644531 23.390625 -30.34375 C 24.953125 -30.039062 26.144531 -29.722656 26.96875 -29.390625 L 26.515625 -26.328125 C 22.398438 -28.066406 18.984375 -28.9375 16.265625 -28.9375 C 13.191406 -28.132812 10.765625 -26.5 8.984375 -24.03125 C 7.203125 -21.570312 6.3125 -18.554688 6.3125 -14.984375 C 6.3125 -10.535156 7.484375 -7.097656 9.828125 -4.671875 C 12.171875 -2.253906 15.265625 -1.046875 19.109375 -1.046875 C 20.628906 -1.046875 22.015625 -1.203125 23.265625 -1.515625 Z M 23.265625 -13.03125 "/></g></g></g><g fill="#00bf63" fill-opacity="1"><g transform="translate(338.071752, 325.522404)"><g><path d="M 4.109375 0 L 4.109375 -30.25 L 22.4375 -30.25 L 21.984375 -27.1875 L 13.484375 -28.609375 C 11.992188 -28.609375 10.347656 -28.347656 8.546875 -27.828125 L 8.546875 -16.734375 L 18.6875 -16.734375 L 18.6875 -14.984375 L 8.546875 -14.984375 L 8.546875 -1.640625 L 22.71875 -3.0625 L 22.25 0 Z M 4.109375 0 "/></g></g></g></svg>