<svg xmlns="http://www.w3.org/2000/svg" xmlns:xlink="http://www.w3.org/1999/xlink" width="500" zoomAndPan="magnify" viewBox="0 0 375 374.999991" height="500" preserveAspectRatio="xMidYMid meet" version="1.0"><defs><clipPath id="f5484fbf41"><path d="M 128 285 L 192 285 L 192 347.808594 L 128 347.808594 Z M 128 285 " clip-rule="nonzero"/></clipPath><clipPath id="4a8b90caa3"><path d="M 72 27.558594 L 99 27.558594 L 99 65 L 72 65 Z M 72 27.558594 " clip-rule="nonzero"/></clipPath></defs><path fill="#157a2c" d="M 324.828125 79.9375 C 325.894531 79.347656 326.910156 78.648438 327.769531 77.742188 C 333.675781 71.625 332.34375 60.75 324.785156 53.433594 C 321.320312 50.078125 317.179688 48.085938 313.105469 47.453125 C 313.445312 42.46875 310.050781 36.644531 304.078125 32.953125 C 296.382812 28.195312 287.402344 28.761719 284.027344 34.242188 L 283.894531 34.539062 C 283.507812 34.445312 283.144531 34.332031 282.738281 34.289062 C 275.679688 33.382812 269.363281 37.234375 268.617188 42.875 C 268.574219 43.328125 268.59375 43.757812 268.617188 44.1875 C 264.003906 43.351562 259.726562 45.390625 259 48.878906 C 258.253906 52.457031 261.488281 56.152344 266.242188 57.171875 C 270.519531 58.078125 274.523438 56.492188 275.859375 53.566406 C 277.171875 54.132812 278.574219 54.566406 280.113281 54.769531 C 281.109375 54.90625 282.058594 54.90625 283.011719 54.859375 C 282.941406 57.667969 284.820312 60.839844 288.058594 62.832031 C 291.132812 64.738281 294.574219 65.054688 297.039062 63.945312 C 297.765625 68.023438 299.914062 72.167969 303.398438 75.542969 C 304.28125 76.402344 305.230469 77.175781 306.207031 77.855469 C 305.886719 79.960938 306.113281 82.273438 306.953125 84.558594 C 309.167969 90.5625 314.851562 93.960938 319.648438 92.195312 C 323.96875 90.585938 326.074219 85.332031 324.828125 79.9375 Z M 271.695312 45.230469 L 271.46875 44.507812 C 270.902344 41.425781 273.597656 38.320312 277.488281 37.574219 C 277.964844 37.484375 278.417969 37.4375 278.890625 37.414062 C 275.023438 38.320312 272.421875 41.832031 273.078125 45.414062 L 273.347656 46.226562 C 273.574219 46.886719 273.867188 47.496094 274.296875 48.039062 C 273.03125 47.382812 272.148438 46.410156 271.695312 45.230469 Z M 284.277344 43.261719 C 283.757812 40.472656 285.023438 37.710938 287.308594 35.625 C 288.9375 34.152344 291.089844 33.019531 293.578125 32.542969 C 294.300781 32.386719 295.027344 32.316406 295.726562 32.296875 C 292.898438 32.953125 290.570312 34.515625 288.9375 36.53125 C 287.105469 38.820312 286.179688 41.695312 286.722656 44.640625 C 287.015625 46.183594 287.671875 47.5625 288.578125 48.742188 C 286.335938 47.5625 284.730469 45.640625 284.277344 43.261719 Z M 285.5 56.785156 C 285.339844 55.992188 285.410156 55.222656 285.636719 54.472656 C 286.15625 52.867188 287.535156 51.527344 289.414062 50.984375 L 290.183594 50.78125 C 290.570312 50.714844 290.953125 50.691406 291.339844 50.691406 C 290.773438 50.804688 290.273438 51.007812 289.800781 51.257812 C 288.644531 51.867188 287.71875 52.84375 287.195312 54.019531 C 286.722656 55.109375 286.5625 56.355469 286.835938 57.625 C 287.015625 58.53125 287.402344 59.34375 287.921875 60.046875 C 286.699219 59.324219 285.792969 58.191406 285.5 56.785156 Z M 303.988281 58.644531 C 302.585938 60.09375 301.632812 61.8125 301.046875 63.671875 C 300.707031 60.839844 301.363281 58.097656 302.992188 55.96875 C 303.21875 55.675781 303.398438 55.359375 303.671875 55.085938 C 305.664062 53.023438 308.421875 52.117188 311.363281 52.1875 C 314.851562 52.277344 318.5625 53.773438 321.570312 56.695312 C 322.25 57.351562 322.835938 58.03125 323.378906 58.757812 C 317.609375 53.523438 309.035156 53.410156 303.988281 58.644531 Z M 312.902344 74.386719 C 312.066406 74.796875 311.363281 75.363281 310.820312 76.019531 C 311.230469 74.660156 312.15625 73.503906 313.425781 72.871094 C 315.980469 71.648438 319.082031 73.050781 320.347656 76.019531 C 320.507812 76.382812 320.621094 76.742188 320.710938 77.105469 C 319.332031 74.207031 315.890625 72.960938 312.902344 74.386719 Z M 304.667969 77.628906 L 304.6875 77.492188 C 296.363281 76.878906 286.8125 81.296875 281.609375 86.734375 C 285.65625 80.933594 289.097656 73.007812 289.59375 65.324219 C 288.804688 65.007812 287.988281 64.667969 287.242188 64.191406 C 286.222656 63.558594 285.339844 62.8125 284.570312 62.019531 C 282.648438 66.796875 280.542969 71.441406 278.257812 76.289062 C 279.503906 70.378906 277.648438 63.285156 274.910156 57.101562 C 273.867188 57.851562 272.667969 58.4375 271.289062 58.734375 C 278.214844 72.53125 271.671875 89.40625 265.40625 94.371094 L 283.011719 105.265625 C 287.378906 95.820312 295.523438 87.390625 305.164062 83.972656 C 304.53125 81.863281 304.351562 79.710938 304.667969 77.628906 Z M 304.667969 77.628906 " fill-opacity="1" fill-rule="nonzero"/><path fill="#ba9874" d="M 190.074219 140.066406 C 177.785156 149.445312 173.824219 166.164062 178.894531 172.800781 C 183.960938 179.4375 193.804688 172.914062 206.09375 163.535156 C 218.382812 154.15625 228.453125 145.480469 223.382812 138.839844 C 218.3125 132.179688 202.359375 130.683594 190.074219 140.066406 Z M 184.84375 155.242188 C 183.328125 160.542969 183.667969 165.574219 185.886719 168.496094 C 186.519531 169.3125 187.222656 169.902344 187.992188 170.308594 C 189.371094 171.011719 188.738281 172.054688 186.15625 171.917969 C 184.574219 171.847656 183.238281 171.191406 182.175781 169.789062 C 178.148438 164.507812 181.292969 151.234375 191.066406 143.78125 C 191.160156 143.710938 191.226562 143.667969 191.316406 143.597656 C 191.453125 143.484375 186.90625 147.949219 184.84375 155.242188 Z M 184.84375 155.242188 " fill-opacity="1" fill-rule="nonzero"/><path fill="#ba9874" d="M 203.46875 167.929688 C 205.574219 177.21875 202.15625 189.203125 211.117188 190.269531 C 229.402344 192.398438 224.964844 173.253906 217.90625 164.960938 C 216.4375 163.242188 214.898438 161.675781 213.3125 160.316406 C 211.433594 161.835938 209.464844 163.421875 207.269531 165.097656 C 205.957031 166.074219 204.714844 167.023438 203.46875 167.929688 Z M 203.46875 167.929688 " fill-opacity="1" fill-rule="nonzero"/><path fill="#f64b31" d="M 101.910156 195.25 C 100.28125 195.703125 98.222656 196.226562 96.160156 196.65625 C 97.949219 199.308594 99.398438 202.207031 99.464844 202.367188 L 101.09375 205.671875 L 97.65625 204.382812 C 97.453125 204.292969 93.195312 202.683594 89.734375 200.894531 C 88.492188 204.359375 86.65625 207.824219 86.542969 208.007812 L 85.253906 210.40625 L 83.964844 207.984375 C 83.851562 207.78125 81.769531 203.769531 80.546875 200.078125 C 77.085938 201.867188 72.855469 203.476562 72.648438 203.542969 L 69.210938 204.835938 L 70.816406 201.550781 C 70.886719 201.390625 72.332031 198.492188 74.121094 195.839844 C 70.25 195.046875 66.292969 193.847656 65.542969 193.621094 C 56.71875 198.421875 50.835938 206.898438 50.835938 216.570312 C 50.835938 231.566406 64.933594 243.757812 82.335938 243.757812 C 99.738281 243.757812 113.859375 231.613281 113.878906 216.617188 C 113.925781 207.9375 109.242188 200.234375 101.910156 195.25 Z M 59.660156 202.59375 C 61.765625 199.375 65.203125 197.359375 66.449219 197.425781 C 67.71875 197.515625 66.675781 199.488281 64.867188 202.296875 C 63.03125 205.128906 60.90625 207.78125 59.367188 208.050781 C 57.851562 208.367188 57.578125 205.785156 59.660156 202.59375 Z M 61.3125 232.359375 C 57.21875 228.191406 54.75 222.824219 54.75 216.933594 C 54.75 215.753906 54.863281 214.597656 55.066406 213.464844 C 55.40625 211.5625 57.261719 210.160156 58.867188 210.316406 C 60.476562 210.476562 61.042969 212.355469 60.589844 214.53125 C 60.339844 215.824219 60.179688 217.160156 60.179688 218.542969 C 60.179688 223.457031 61.902344 228.035156 64.867188 231.816406 C 69.777344 238.046875 67.988281 239.113281 61.3125 232.359375 Z M 61.3125 232.359375 " fill-opacity="1" fill-rule="nonzero"/><path fill="#157a2c" d="M 93.628906 195.636719 C 98.289062 194.910156 104.464844 193.007812 104.464844 193.007812 C 104.464844 193.007812 97.835938 191.402344 93.105469 190.96875 C 95.460938 188.183594 97.679688 183.992188 97.679688 183.992188 C 97.679688 183.992188 92.222656 185.917969 88.625 187.820312 C 88.152344 185.011719 86.453125 181.273438 86.453125 181.273438 C 86.453125 181.273438 83.804688 184.851562 82.71875 187.570312 C 79.257812 185.488281 72.648438 183.175781 72.648438 183.175781 C 72.648438 183.175781 74.867188 187.367188 77.222656 190.15625 C 72.492188 190.585938 65.859375 192.195312 65.859375 192.195312 C 65.859375 192.195312 72.039062 194.097656 76.699219 194.820312 C 74.371094 197.652344 72.152344 202.183594 72.152344 202.183594 C 72.152344 202.183594 77.96875 199.988281 81.453125 197.925781 C 82.378906 201.867188 85.253906 207.304688 85.253906 207.304688 C 85.253906 207.304688 87.789062 202.59375 88.875 198.761719 C 92.359375 200.824219 98.128906 203 98.128906 203 C 98.128906 203 95.957031 198.492188 93.628906 195.636719 Z M 93.628906 195.636719 " fill-opacity="1" fill-rule="nonzero"/><path fill="#57a52c" d="M 340.875 103.65625 C 344.742188 106.398438 343.679688 111.042969 342.820312 112.945312 C 341.847656 115.144531 340.738281 116.003906 341.03125 116.390625 C 341.007812 116.546875 343 115.960938 344.449219 113.21875 C 345.875 110.839844 346.734375 105.085938 342.09375 101.957031 C 337.910156 99.285156 330.847656 99.714844 328.722656 105.515625 C 328.789062 108.640625 332.929688 110.566406 334.898438 108.347656 C 336.730469 106.695312 337.636719 104.335938 337.070312 102.140625 C 332.816406 93.871094 324.964844 97.449219 325.734375 97.269531 C 325.011719 97.246094 332.976562 94.914062 336.054688 102.433594 C 337.183594 105.96875 331.1875 110.363281 330.464844 105.5625 C 331.480469 102.636719 338.023438 101.1875 340.875 103.65625 Z M 340.875 103.65625 " fill-opacity="1" fill-rule="nonzero"/><path fill="#57a52c" d="M 327.792969 141.289062 C 334.945312 128.078125 341.753906 113.71875 343.882812 109.074219 C 344.425781 110.136719 344.921875 111.246094 344.921875 112.449219 C 344.921875 113.015625 345.082031 113.558594 345.308594 114.035156 C 345.261719 114.171875 345.195312 114.28125 345.148438 114.441406 C 343.746094 119.742188 344.019531 125.339844 343.5 130.777344 C 342.933594 136.871094 342.390625 142.964844 341.9375 149.058594 C 341.847656 150.214844 342.367188 151.074219 343.089844 151.597656 C 336.753906 161.789062 326.59375 167.882812 318.898438 169.449219 C 310.753906 171.238281 305.820312 169.5625 305.886719 169.71875 C 306.636719 169.515625 319.332031 156.917969 327.792969 141.289062 Z M 327.792969 141.289062 " fill-opacity="1" fill-rule="nonzero"/><path fill="#57a52c" d="M 345.242188 109.207031 C 345.46875 108.371094 345.578125 107.828125 345.558594 107.714844 C 345.535156 107.644531 345.648438 107.691406 345.828125 107.78125 L 345.511719 109.277344 C 345.421875 109.277344 345.355469 109.230469 345.242188 109.207031 Z M 345.242188 109.207031 " fill-opacity="1" fill-rule="nonzero"/><path fill="#57a52c" d="M 344.742188 120.738281 C 345.148438 123.003906 347.527344 124.523438 350.0625 124.136719 C 350.332031 124.09375 350.605469 124.023438 350.851562 123.933594 C 351.054688 124.613281 351.261719 125.292969 351.464844 125.996094 C 351.101562 125.972656 350.738281 125.996094 350.378906 126.042969 C 347.117188 126.539062 344.765625 129.28125 345.058594 132.203125 C 345.195312 135.125 347.980469 137.503906 351.238281 137.480469 C 352.121094 137.480469 352.910156 137.277344 353.660156 136.914062 C 353.75 137.6875 353.816406 138.457031 353.863281 139.226562 C 353.070312 138.820312 352.164062 138.59375 351.214844 138.59375 C 347.910156 138.636719 345.308594 141.0625 345.148438 144.027344 C 344.992188 146.996094 347.414062 149.691406 350.648438 150.054688 C 351.667969 150.167969 352.617188 150.011719 353.476562 149.648438 C 353.363281 150.464844 353.230469 151.277344 353.070312 152.117188 C 352.324219 151.617188 351.464844 151.277344 350.511719 151.164062 C 347.253906 150.824219 344.378906 152.957031 343.859375 155.878906 C 343.40625 158.800781 345.398438 161.746094 348.636719 162.492188 C 349.109375 162.605469 349.585938 162.628906 350.039062 162.628906 C 349.835938 163.195312 349.609375 163.761719 349.40625 164.304688 C 349.066406 164.125 348.703125 163.964844 348.316406 163.875 C 345.804688 163.308594 343.386719 164.691406 342.75 166.910156 C 342.117188 169.109375 343.429688 171.488281 345.738281 172.394531 C 344.515625 174.773438 343.40625 176.628906 342.59375 177.71875 C 342.503906 177.851562 342.410156 177.964844 342.320312 178.078125 L 342.207031 177.964844 C 341.4375 172.640625 337.886719 157.871094 338.339844 143.597656 C 339.515625 129.597656 343.722656 114.941406 345.105469 109.707031 C 345.714844 110.792969 346.710938 112.855469 347.820312 115.574219 C 345.578125 116.414062 344.222656 118.609375 344.742188 120.738281 Z M 344.742188 120.738281 " fill-opacity="1" fill-rule="nonzero"/><path fill="#57a52c" d="M 345.558594 107.714844 C 345.105469 106.761719 365.199219 120.378906 363.839844 144.867188 C 362.753906 168.722656 342.410156 181.453125 342.230469 180.003906 L 342.230469 179.824219 C 343.476562 180.957031 355.605469 159.230469 355.175781 144.707031 C 356.691406 129.144531 345.988281 107.304688 345.488281 107.871094 Z M 345.558594 107.714844 " fill-opacity="1" fill-rule="nonzero"/><path fill="#57a52c" d="M 242.890625 77.492188 C 242.910156 77.492188 242.957031 77.46875 242.957031 77.421875 C 242.957031 77.402344 242.933594 77.378906 242.910156 77.355469 C 234.222656 76.175781 227.703125 77.082031 220.238281 78.667969 C 215.597656 79.667969 211.027344 80.890625 206.480469 82.203125 C 214.148438 74.457031 223.335938 69.085938 234.246094 69.019531 C 241.644531 68.972656 250.582031 72.914062 256.988281 76.628906 C 251.828125 81.34375 245.648438 84.921875 238.953125 86.917969 C 228.746094 89.953125 217.5 89.226562 207.699219 85.058594 C 211.933594 83.609375 216.210938 82.226562 220.53125 81.046875 C 227.796875 79.101562 235.285156 77.648438 242.890625 77.492188 Z M 242.890625 77.492188 " fill-opacity="1" fill-rule="nonzero"/><path fill="#a4c52c" d="M 309.464844 130.707031 C 309.488281 130.683594 309.507812 130.683594 309.554688 130.707031 C 309.578125 130.730469 309.601562 130.777344 309.578125 130.796875 C 306 136.800781 301.160156 141.832031 295.863281 146.316406 C 292.582031 149.105469 289.121094 151.664062 285.566406 154.15625 C 296.8125 154.15625 306.636719 149.421875 312.179688 141.128906 C 315.9375 135.511719 317.679688 128.304688 317.363281 120.605469 C 310.277344 120.964844 303.738281 122.984375 298.464844 126.585938 C 290.433594 132.089844 285.453125 141.21875 284.503906 151.867188 C 288.035156 149.738281 291.496094 147.519531 294.777344 145.117188 C 300.34375 141.015625 305.503906 136.394531 309.464844 130.707031 Z M 309.464844 130.707031 " fill-opacity="1" fill-rule="nonzero"/><path fill="#a4c52c" d="M 220.667969 220.511719 C 220.644531 220.488281 220.667969 220.445312 220.691406 220.421875 C 220.710938 220.398438 220.757812 220.398438 220.78125 220.421875 C 225.398438 225.699219 228.65625 231.863281 231.304688 238.273438 C 232.933594 242.261719 234.289062 246.363281 235.558594 250.484375 C 239.042969 239.769531 237.546875 228.960938 231.394531 221.125 C 227.207031 215.800781 220.917969 211.925781 213.492188 209.863281 C 211.636719 216.730469 211.546875 223.570312 213.335938 229.6875 C 216.074219 239.042969 223.222656 246.609375 233.046875 250.800781 C 232.09375 246.792969 231.078125 242.804688 229.808594 238.929688 C 227.636719 232.382812 224.855469 226.039062 220.667969 220.511719 Z M 220.667969 220.511719 " fill-opacity="1" fill-rule="nonzero"/><path fill="#57a52c" d="M 67.535156 127.558594 C 67.511719 127.535156 67.535156 127.492188 67.558594 127.46875 C 67.582031 127.445312 67.625 127.445312 67.648438 127.46875 C 72.265625 132.746094 75.523438 138.910156 78.171875 145.320312 C 79.800781 149.308594 81.160156 153.410156 82.425781 157.53125 C 85.910156 146.816406 84.417969 136.007812 78.261719 128.171875 C 74.074219 122.847656 67.785156 118.972656 60.363281 116.910156 C 58.507812 123.777344 58.417969 130.617188 60.203125 136.734375 C 62.941406 146.089844 70.09375 153.65625 79.914062 157.847656 C 78.964844 153.839844 77.945312 149.851562 76.679688 145.976562 C 74.527344 139.40625 71.722656 133.085938 67.535156 127.558594 Z M 67.535156 127.558594 " fill-opacity="1" fill-rule="nonzero"/><path fill="#157a2c" d="M 220.214844 54.722656 C 220.238281 54.699219 220.261719 54.699219 220.28125 54.722656 C 220.304688 54.746094 220.304688 54.769531 220.304688 54.792969 C 217.160156 60.613281 214.46875 63.964844 210.144531 67.660156 C 207.453125 69.949219 203.558594 71.988281 200.664062 74.046875 C 209.894531 74.027344 217.953125 70.105469 222.5 63.285156 C 225.578125 58.664062 226.980469 52.753906 226.710938 46.410156 C 220.894531 46.726562 215.53125 48.378906 211.207031 51.371094 C 204.625 55.902344 200.550781 63.421875 199.78125 72.167969 C 202.675781 70.402344 205.503906 68.589844 208.222656 66.59375 C 212.769531 63.21875 216.980469 59.414062 220.214844 54.722656 Z M 220.214844 54.722656 " fill-opacity="1" fill-rule="nonzero"/><path fill="#157a2c" d="M 335.871094 192.035156 C 335.871094 192.011719 335.871094 191.988281 335.847656 191.988281 C 335.828125 191.988281 335.804688 191.988281 335.804688 192.011719 C 333.40625 196.339844 332.386719 199.375 331.800781 203.589844 C 331.4375 206.195312 331.730469 209.480469 331.59375 212.128906 C 327.90625 206.308594 327.136719 199.648438 329.605469 194.074219 C 331.277344 190.269531 334.425781 187.003906 338.519531 184.648438 C 340.667969 188.433594 341.753906 192.488281 341.644531 196.40625 C 341.4375 202.386719 338.339844 207.960938 333.15625 211.949219 C 333.113281 209.410156 333.113281 206.898438 333.269531 204.40625 C 333.542969 200.144531 334.21875 195.976562 335.871094 192.035156 Z M 335.871094 192.035156 " fill-opacity="1" fill-rule="nonzero"/><path fill="#157a2c" d="M 125.714844 36.238281 C 125.738281 36.238281 125.761719 36.238281 125.761719 36.191406 C 125.761719 36.167969 125.761719 36.144531 125.738281 36.144531 C 121.097656 34.46875 117.929688 33.925781 113.699219 34.015625 C 111.074219 34.0625 107.882812 34.855469 105.257812 35.148438 C 110.417969 30.574219 116.867188 28.785156 122.773438 30.347656 C 126.777344 31.410156 130.488281 34.015625 133.476562 37.6875 C 130.082031 40.40625 126.257812 42.128906 122.367188 42.601562 C 116.4375 43.328125 110.441406 41.152344 105.6875 36.644531 C 108.179688 36.191406 110.667969 35.804688 113.15625 35.578125 C 117.363281 35.195312 121.597656 35.238281 125.714844 36.238281 Z M 125.714844 36.238281 " fill-opacity="1" fill-rule="nonzero"/><path fill="#a4c52c" d="M 128.65625 228.304688 C 128.65625 228.28125 128.65625 228.261719 128.632812 228.261719 C 128.613281 228.261719 128.589844 228.261719 128.589844 228.261719 C 125.445312 232.066406 123.882812 234.851562 122.523438 238.886719 C 121.6875 241.378906 121.371094 244.664062 120.757812 247.222656 C 118.203125 240.8125 118.675781 234.128906 122.140625 229.097656 C 124.492188 225.675781 128.183594 223.050781 132.640625 221.484375 C 134.042969 225.609375 134.382812 229.800781 133.523438 233.605469 C 132.210938 239.429688 128.160156 244.34375 122.296875 247.3125 C 122.707031 244.820312 123.179688 242.351562 123.816406 239.925781 C 124.855469 235.847656 126.328125 231.863281 128.65625 228.304688 Z M 128.65625 228.304688 " fill-opacity="1" fill-rule="nonzero"/><path fill="#a4c52c" d="M 35.675781 179.734375 C 35.675781 179.710938 35.652344 179.6875 35.605469 179.6875 C 35.582031 179.6875 35.5625 179.710938 35.5625 179.734375 C 35.242188 186.417969 35.832031 190.699219 37.644531 196.15625 C 38.773438 199.554688 41.082031 203.339844 42.507812 206.625 C 34.542969 201.777344 29.632812 194.1875 29.269531 185.917969 C 29.019531 180.300781 30.898438 174.453125 34.429688 169.128906 C 39.292969 172.4375 43.050781 176.699219 45.246094 181.523438 C 48.574219 188.886719 48.164062 197.515625 44.273438 205.46875 C 42.6875 202.433594 41.195312 199.375 39.90625 196.25 C 37.6875 190.96875 36.035156 185.464844 35.675781 179.734375 Z M 35.675781 179.734375 " fill-opacity="1" fill-rule="nonzero"/><path fill="#f64b31" d="M 278.777344 125.703125 C 278.257812 121.058594 275.339844 117.660156 270.835938 116.773438 C 266.875 116.003906 262.847656 118.339844 261.355469 121.984375 C 260.066406 125.113281 260.199219 128.601562 260.382812 131.953125 C 256.804688 128.871094 253.050781 125.679688 248.433594 124.726562 C 244.132812 123.84375 240.039062 125.792969 238.316406 129.871094 C 236.121094 135.058594 238.542969 138.570312 242.253906 142.125 C 250.085938 149.625 259.792969 155.0625 270.226562 158.050781 C 275.136719 148.652344 279.957031 136.257812 278.777344 125.703125 Z M 278.777344 125.703125 " fill-opacity="1" fill-rule="nonzero"/><path fill="#f68820" d="M 44.160156 151.957031 C 47.28125 148.96875 48.121094 144.867188 46.242188 141.0625 C 44.566406 137.707031 40.585938 136.078125 37.054688 137.027344 C 34.042969 137.84375 31.554688 139.929688 29.179688 141.945312 C 29.429688 137.574219 29.632812 132.996094 27.730469 129.054688 C 25.964844 125.382812 22.210938 123.480469 18.226562 124.523438 C 13.15625 125.835938 11.957031 129.597656 11.460938 134.355469 C 10.398438 144.367188 11.890625 154.585938 15.578125 163.941406 C 25.242188 162.265625 37.078125 158.800781 44.160156 151.957031 Z M 44.160156 151.957031 " fill-opacity="1" fill-rule="nonzero"/><path fill="#f6c02b" d="M 159.773438 152.367188 C 158.300781 162.335938 149.070312 169.222656 139.113281 167.75 C 129.175781 166.277344 122.296875 157.03125 123.746094 147.066406 C 124.222656 143.800781 125.558594 140.878906 127.433594 138.480469 L 127.414062 138.480469 C 135.785156 127.785156 135.535156 126.609375 135.808594 118.859375 C 135.832031 118.472656 135.851562 118.113281 135.898438 117.726562 C 136.734375 112.039062 142.007812 108.097656 147.6875 108.9375 C 153.367188 109.773438 157.304688 115.054688 156.46875 120.738281 C 156.402344 121.125 156.332031 121.488281 156.242188 121.851562 C 154.273438 129.371094 153.707031 130.414062 158.664062 143.054688 L 158.640625 143.054688 C 159.816406 145.933594 160.246094 149.105469 159.773438 152.367188 Z M 159.773438 152.367188 " fill-opacity="1" fill-rule="nonzero"/><path fill="#157a2c" d="M 125.941406 107.441406 L 125.785156 106.648438 C 125.671875 106.171875 125.558594 105.695312 125.398438 105.222656 C 123.113281 98.128906 115.488281 94.210938 108.402344 96.523438 C 101.320312 98.808594 97.40625 106.445312 99.691406 113.535156 C 99.851562 114.011719 100.03125 114.464844 100.210938 114.917969 L 100.550781 115.664062 C 103.289062 121.738281 103.628906 122.507812 101.164062 134.332031 C 100.394531 137.957031 100.597656 141.742188 101.726562 145.273438 C 104.308594 153.273438 111.164062 158.664062 118.972656 159.796875 C 117.570312 157.214844 116.707031 154.40625 116.640625 151.503906 C 116.484375 143.574219 120.851562 138.117188 125.058594 132.816406 C 126.03125 131.589844 127.003906 130.390625 127.910156 129.144531 C 129.515625 126.949219 129.855469 124.636719 130.265625 121.941406 C 130.46875 120.648438 130.671875 119.289062 131.03125 117.886719 C 127.300781 113.964844 126.9375 112.265625 125.941406 107.441406 Z M 107.996094 147.675781 C 108.289062 148.582031 108.628906 149.421875 109.039062 150.257812 C 109.695312 151.640625 108.539062 151.234375 106.957031 148.878906 C 106.027344 147.496094 105.257812 145.953125 104.714844 144.277344 C 103.695312 141.152344 103.605469 137.933594 104.21875 134.945312 C 107 121.644531 106.253906 120.71875 103.085938 113.625 C 102.929688 113.285156 102.792969 112.945312 102.679688 112.5625 C 101.910156 110.207031 102.046875 107.78125 102.859375 105.628906 C 104.261719 101.980469 105.710938 102.433594 105.214844 105.515625 C 104.917969 107.328125 105.054688 109.230469 105.644531 111.089844 C 105.777344 111.519531 105.9375 111.90625 106.117188 112.3125 C 109.785156 120.46875 110.644531 121.554688 107.453125 136.894531 C 106.707031 140.359375 106.820312 144.050781 107.996094 147.675781 Z M 107.996094 147.675781 " fill-opacity="1" fill-rule="nonzero"/><path fill="#157a2c" d="M 161.605469 141.921875 C 157.191406 130.683594 157.417969 129.847656 159.09375 123.4375 L 159.296875 122.644531 C 159.433594 122.167969 159.523438 121.691406 159.589844 121.191406 C 160.675781 113.832031 155.5625 106.941406 148.1875 105.855469 C 140.832031 104.769531 133.953125 109.886719 132.867188 117.273438 C 132.796875 117.773438 132.753906 118.246094 132.730469 118.746094 L 132.707031 119.5625 C 132.480469 126.199219 132.457031 127.0625 125.015625 136.574219 C 122.726562 139.5 121.234375 142.964844 120.691406 146.632812 C 118.996094 158.257812 127.050781 169.128906 138.683594 170.828125 C 150.3125 172.527344 161.152344 164.464844 162.851562 152.820312 C 163.371094 149.148438 162.941406 145.386719 161.605469 141.921875 Z M 159.773438 152.367188 C 158.300781 162.335938 149.070312 169.222656 139.113281 167.75 C 129.175781 166.277344 122.296875 157.03125 123.746094 147.066406 C 124.222656 143.800781 125.558594 140.878906 127.433594 138.480469 L 127.414062 138.480469 C 135.785156 127.785156 135.535156 126.609375 135.808594 118.859375 C 135.832031 118.472656 135.851562 118.113281 135.898438 117.726562 C 136.734375 112.039062 142.007812 108.097656 147.6875 108.9375 C 153.367188 109.773438 157.304688 115.054688 156.46875 120.738281 C 156.402344 121.125 156.332031 121.488281 156.242188 121.851562 C 154.273438 129.371094 153.707031 130.414062 158.664062 143.054688 L 158.640625 143.054688 C 159.816406 145.933594 160.246094 149.105469 159.773438 152.367188 Z M 159.773438 152.367188 " fill-opacity="1" fill-rule="nonzero"/><path fill="#f68820" d="M 144.746094 133.992188 C 138.160156 133.019531 131.894531 138.636719 130.738281 146.519531 C 129.585938 154.40625 133.996094 161.585938 140.558594 162.539062 C 147.144531 163.511719 153.414062 157.894531 154.566406 150.011719 C 155.746094 142.125 151.332031 134.945312 144.746094 133.992188 Z M 136.238281 143.914062 C 135.492188 145.320312 134.96875 146.929688 134.722656 148.652344 C 134.496094 150.125 134.496094 151.574219 134.699219 152.933594 C 135.039062 155.289062 134.066406 155.152344 133.25 152.183594 C 132.777344 150.464844 132.664062 148.582031 132.933594 146.632812 C 133.136719 145.183594 133.566406 143.847656 134.15625 142.625 C 135.152344 140.539062 137.257812 139.066406 138.09375 139.160156 C 138.953125 139.25 137.527344 141.492188 136.238281 143.914062 Z M 147.257812 137.460938 C 146.21875 137.300781 145.199219 137.347656 144.203125 137.527344 C 142.527344 137.84375 140.71875 138.320312 139.972656 138.070312 C 139.226562 137.820312 139.746094 136.894531 141.398438 136.507812 C 142.371094 136.304688 143.390625 136.234375 144.429688 136.394531 C 144.972656 136.484375 145.515625 136.621094 146.015625 136.800781 C 146.851562 137.121094 147.4375 137.503906 147.371094 137.480469 C 147.324219 137.460938 147.28125 137.460938 147.257812 137.460938 Z M 147.257812 137.460938 " fill-opacity="1" fill-rule="nonzero"/><path fill="#157a2c" d="M 279.976562 215.664062 C 274.296875 210.453125 271.085938 198.742188 271.492188 191.289062 C 273.753906 190.8125 276.222656 190.496094 278.484375 190.496094 C 274.820312 198.289062 275.972656 208.890625 282.625 214.804688 Z M 279.976562 215.664062 " fill-opacity="1" fill-rule="nonzero"/><path fill="#157a2c" d="M 263.617188 202.253906 C 270.019531 202.976562 274.546875 209.660156 274.546875 209.660156 C 274.546875 209.660156 268.664062 215.210938 262.257812 214.484375 C 255.855469 213.761719 251.328125 207.054688 251.328125 207.054688 C 251.328125 207.054688 257.191406 201.527344 263.617188 202.253906 Z M 263.617188 202.253906 " fill-opacity="1" fill-rule="nonzero"/><path fill="#f64b31" d="M 291.132812 195.117188 C 284.753906 197.359375 279.277344 204.539062 278.484375 211.609375 C 271.378906 212.199219 264.070312 217.476562 261.648438 223.796875 C 258.527344 231.929688 265.15625 240.585938 270.902344 245.839844 C 279.457031 253.65625 292.582031 255.355469 301.996094 247.652344 C 304.101562 245.929688 305.933594 243.417969 306.726562 240.699219 C 309.441406 239.996094 312.019531 238.226562 313.785156 236.167969 C 321.75 226.96875 320.4375 213.785156 312.859375 204.992188 C 307.8125 199.101562 299.371094 192.214844 291.132812 195.117188 Z M 306.90625 211.359375 C 305.007812 208.367188 303.355469 205.378906 300.074219 203.613281 C 297.355469 202.140625 291.453125 200.371094 287.71875 201.574219 C 295.320312 197.675781 312.882812 201.367188 306.90625 211.359375 Z M 306.90625 211.359375 " fill-opacity="1" fill-rule="nonzero"/><path fill="#7f3068" d="M 136.871094 86.125 C 143.773438 87.390625 150.269531 88.546875 156.535156 90.859375 C 159.773438 92.035156 162.941406 93.507812 166.085938 95.457031 C 168.191406 96.769531 170.5 98.242188 172.898438 99.558594 C 173.667969 98.902344 174.617188 98.242188 175.65625 97.65625 C 173.371094 96.523438 171.085938 95.117188 168.980469 93.804688 L 167.625 92.964844 C 164.5 91.015625 161.199219 89.429688 157.53125 88.09375 C 151.21875 85.785156 144.8125 84.605469 138.027344 83.359375 L 137.390625 83.246094 C 122.636719 80.527344 121.777344 73.503906 122.410156 68.476562 C 122.976562 63.921875 124.246094 60.183594 126.191406 57.238281 C 125.535156 58.984375 124.96875 60.886719 124.5625 62.992188 C 123.566406 68.269531 124.019531 75.722656 139.382812 79.597656 L 140.039062 79.757812 C 147.121094 81.523438 153.820312 83.199219 160.316406 86.078125 C 164.09375 87.730469 167.464844 89.632812 170.632812 91.898438 L 171.992188 92.875 C 173.757812 94.144531 175.679688 95.523438 177.625 96.75 C 177.964844 96.613281 178.28125 96.453125 178.621094 96.339844 C 177.46875 94.6875 176.675781 92.625 176.269531 90.15625 L 175.953125 88.230469 L 177.921875 88.253906 C 178.011719 88.253906 184.257812 88.433594 188.441406 89.816406 C 188.351562 86.691406 189.167969 83.085938 191.292969 81.183594 C 187.109375 70.671875 177.039062 59.820312 169.707031 54.996094 C 154.679688 45.117188 123.269531 37.84375 119.46875 68.136719 C 118.042969 79.824219 127.027344 84.289062 136.871094 86.125 Z M 136.871094 86.125 " fill-opacity="1" fill-rule="nonzero"/><path fill="#157a2c" d="M 172.917969 101.824219 C 177.832031 104.269531 182.515625 106.242188 188.058594 105.675781 C 191.339844 105.355469 194.125 105.3125 195.796875 107.847656 L 198.808594 105.128906 C 195.414062 101.4375 196.410156 98.71875 196.5 96.953125 C 196.613281 94.824219 196.792969 91.898438 196.113281 89.859375 C 195.277344 87.277344 193.851562 84.582031 192.539062 82.226562 C 189.960938 84.355469 189.6875 89.953125 190.570312 92.875 C 189.9375 90.8125 179.867188 89.882812 177.921875 89.859375 C 178.464844 93.144531 179.84375 96.316406 182.945312 97.996094 C 180.003906 96.386719 174.796875 99.625 172.917969 101.824219 Z M 172.917969 101.824219 " fill-opacity="1" fill-rule="nonzero"/><path fill="#157a2c" d="M 137.050781 300.507812 C 136.804688 300.191406 136.507812 299.871094 136.238281 299.578125 C 130.128906 293.144531 114.195312 292.960938 106.003906 296.269531 L 104.488281 292.351562 C 114.105469 288.769531 130.601562 288.339844 139.203125 296.585938 C 139.609375 296.972656 139.972656 297.402344 140.332031 297.832031 Z M 137.050781 300.507812 " fill-opacity="1" fill-rule="nonzero"/><path fill="#157a2c" d="M 140.289062 294.660156 C 136.621094 290.96875 134.359375 284.964844 133.410156 278.78125 C 132.503906 272.574219 132.910156 266.183594 135.605469 261.585938 L 139.203125 263.738281 C 137.277344 266.886719 136.691406 272.617188 137.550781 278.167969 C 138.34375 283.71875 140.582031 289.109375 143.230469 291.714844 C 143.253906 291.738281 143.277344 291.761719 143.320312 291.808594 L 140.445312 294.867188 C 140.445312 294.796875 140.378906 294.730469 140.289062 294.660156 Z M 140.289062 294.660156 " fill-opacity="1" fill-rule="nonzero"/><path fill="#157a2c" d="M 136.847656 293.484375 C 129.71875 286.234375 124.992188 273.707031 124.675781 265.890625 L 128.859375 265.753906 C 128.972656 272.074219 133.679688 284.511719 139.8125 290.492188 C 141.308594 291.988281 142.84375 293.074219 144.339844 293.6875 L 142.753906 297.585938 C 140.605469 296.699219 138.636719 295.25 136.847656 293.484375 Z M 136.847656 293.484375 " fill-opacity="1" fill-rule="nonzero"/><path fill="#157a2c" d="M 138.816406 293.371094 C 136.644531 292.035156 134.472656 290.265625 132.390625 288.183594 C 126.28125 282.089844 120.984375 273.660156 118 268.019531 L 114.289062 269.992188 C 117.433594 275.878906 122.820312 284.558594 129.425781 291.148438 C 131.441406 293.144531 133.566406 294.957031 135.808594 296.429688 C 136.714844 295.339844 137.730469 294.320312 138.816406 293.371094 Z M 138.816406 293.371094 " fill-opacity="1" fill-rule="nonzero"/><path fill="#157a2c" d="M 108.085938 283.449219 L 108.425781 279.257812 C 119.085938 280.253906 128.542969 289.429688 136.125 294.546875 L 133.75 298.015625 C 125.875 292.488281 116.460938 284.035156 108.085938 283.449219 Z M 108.085938 283.449219 " fill-opacity="1" fill-rule="nonzero"/><g clip-path="url(#f5484fbf41)"><path fill="#f68820" d="M 132.480469 288.65625 C 127.640625 293.527344 127.164062 301.09375 134.699219 310.363281 C 134.089844 309.613281 133.523438 308.867188 133 308.117188 C 136.871094 304.3125 141.011719 300.960938 146.148438 298.625 C 143.253906 301.617188 137.820312 306.011719 134.699219 310.363281 C 135.695312 311.585938 136.828125 312.832031 138.09375 314.121094 C 137.59375 313.625 137.164062 313.148438 136.714844 312.648438 C 140.628906 308.777344 144.835938 305.355469 150.042969 302.953125 C 147.167969 305.921875 141.78125 310.316406 138.636719 314.621094 C 139.316406 315.277344 140.039062 315.980469 140.875 316.726562 C 144.722656 312.945312 148.84375 309.636719 153.933594 307.304688 C 151.171875 310.15625 146.058594 314.347656 142.867188 318.515625 C 144.179688 319.648438 145.605469 320.875 147.121094 322.121094 C 146.488281 321.597656 145.855469 321.078125 145.265625 320.578125 C 148.957031 317.023438 152.960938 313.875 157.824219 311.652344 C 155.199219 314.371094 150.449219 318.269531 147.257812 322.234375 C 148.074219 322.914062 148.933594 323.59375 149.816406 324.292969 C 153.34375 320.988281 157.125 318.085938 161.71875 315.980469 C 159.25 318.515625 154.90625 322.121094 151.738281 325.835938 C 151.195312 325.40625 150.652344 324.972656 150.109375 324.566406 C 151.511719 325.675781 152.960938 326.808594 154.433594 327.964844 C 157.734375 324.953125 161.3125 322.300781 165.585938 320.351562 C 163.300781 322.707031 159.410156 325.972656 156.332031 329.390625 C 170.632812 340.175781 187.492188 350.6875 191.066406 347.085938 C 196.542969 341.582031 168.9375 305.152344 157.917969 294.164062 C 146.917969 283.199219 137.957031 283.152344 132.480469 288.65625 Z M 175.996094 342.667969 C 175.476562 342.371094 174.957031 342.054688 174.4375 341.761719 C 176.519531 340.242188 178.710938 338.882812 181.15625 337.773438 C 179.84375 339.132812 177.945312 340.832031 175.996094 342.667969 Z M 170.835938 339.542969 C 170.273438 339.203125 169.730469 338.816406 169.140625 338.453125 C 171.605469 336.503906 174.277344 334.785156 177.265625 333.425781 C 175.65625 335.078125 173.214844 337.207031 170.835938 339.542969 Z M 165.882812 336.257812 C 165.292969 335.847656 164.707031 335.441406 164.117188 335.03125 C 166.898438 332.699219 169.910156 330.636719 173.394531 329.050781 C 171.515625 331 168.574219 333.539062 165.882812 336.257812 Z M 161.0625 332.878906 C 160.449219 332.449219 159.839844 331.996094 159.230469 331.542969 C 162.308594 328.847656 165.609375 326.492188 169.503906 324.726562 C 167.398438 326.878906 163.980469 329.777344 161.0625 332.878906 Z M 161.0625 332.878906 " fill-opacity="1" fill-rule="nonzero"/></g><path fill="#57a52c" d="M 90.300781 71.78125 C 94.214844 67.636719 97.882812 66.820312 103.3125 67.070312 C 95.980469 63.808594 88.851562 62.425781 81.542969 65.871094 C 76.226562 68.363281 70.136719 72.417969 68.214844 78.285156 C 67.082031 81.773438 66.992188 86.824219 71.542969 87.210938 C 78.738281 87.777344 84.257812 78.171875 90.300781 71.78125 Z M 90.300781 71.78125 " fill-opacity="1" fill-rule="nonzero"/><path fill="#57a52c" d="M 61.351562 90.867188 L 67.386719 78.589844 L 73.476562 81.59375 L 67.441406 93.871094 Z M 61.351562 90.867188 " fill-opacity="1" fill-rule="nonzero"/><path fill="#57a52c" d="M 75.660156 42.242188 C 73.601562 39.296875 71.109375 36.597656 69.234375 34.695312 C 70.5 38.253906 70.523438 41.085938 70.003906 44.144531 C 70.886719 44.9375 71.675781 45.773438 72.421875 46.613281 C 73.464844 45.117188 74.527344 43.667969 75.660156 42.242188 Z M 75.660156 42.242188 " fill-opacity="1" fill-rule="nonzero"/><path fill="#57a52c" d="M 95.574219 63.46875 C 97.925781 61.472656 100.550781 59.84375 103.742188 59.707031 C 101.183594 58.304688 98.039062 57.511719 94.828125 57.238281 C 94.214844 59.230469 93.535156 61.179688 92.835938 63.039062 C 93.71875 63.128906 94.644531 63.265625 95.574219 63.46875 Z M 95.574219 63.46875 " fill-opacity="1" fill-rule="nonzero"/><path fill="#57a52c" d="M 77.109375 68.972656 C 78.214844 62.878906 78.171875 57.871094 75.929688 53.660156 C 72.605469 47.429688 68.984375 43.011719 58.640625 38.207031 C 72.832031 51.074219 52.644531 69.765625 62.398438 81.910156 C 71.40625 93.125 76 75.089844 77.109375 68.972656 Z M 65.023438 81.613281 C 64.707031 81.296875 64.414062 80.957031 64.097656 80.550781 C 60.273438 75.792969 61.902344 69.699219 63.800781 62.652344 C 64.117188 61.472656 64.773438 59.550781 65.226562 57.625 C 65.882812 54.8125 65.476562 52.753906 65.636719 53.113281 C 65.726562 53.339844 65.792969 53.546875 65.859375 53.773438 C 67.671875 59.097656 65.589844 63.808594 65.160156 69.382812 C 64.570312 76.675781 65.566406 82.179688 65.023438 81.613281 Z M 65.023438 81.613281 " fill-opacity="1" fill-rule="nonzero"/><path fill="#157a2c" d="M 180.476562 217.339844 C 182.898438 216.207031 191.542969 214.304688 189.664062 210.839844 C 187.265625 206.375 176.835938 212.695312 174.707031 214.847656 C 171.628906 208.707031 175.839844 203.023438 174.027344 197.246094 C 171.269531 188.410156 162.171875 193.6875 162.375 201.480469 C 153.664062 189.066406 136.667969 200.621094 148.773438 208.480469 C 155.292969 212.695312 158.820312 210.226562 165.566406 213.011719 C 171.042969 215.277344 172.488281 218.789062 172.941406 223.117188 C 173.167969 223.09375 173.417969 223.117188 173.667969 223.183594 C 175.703125 223.75 177.785156 224.136719 179.324219 225.472656 C 181.65625 224.863281 184.394531 224.90625 187.242188 224.679688 C 200.84375 223.617188 188.625 216.683594 180.476562 217.339844 Z M 180.476562 217.339844 " fill-opacity="1" fill-rule="nonzero"/><path fill="#7f3068" d="M 174.796875 222.324219 C 165.269531 219.492188 155.472656 224.203125 152.914062 232.859375 C 149.25 245.25 163.394531 249.398438 161.402344 265.574219 C 168.191406 251.550781 183.261719 257.054688 187.402344 243.097656 C 189.960938 234.46875 184.324219 225.15625 174.796875 222.324219 Z M 155.269531 236.074219 C 154.953125 237.117188 154.839844 238.09375 154.769531 239.019531 C 154.410156 237.34375 154.433594 235.554688 155.042969 233.492188 C 157.261719 226.039062 165.835938 221.984375 174.164062 224.453125 C 175.363281 224.816406 176.472656 225.292969 177.511719 225.859375 C 167.601562 223.296875 157.734375 227.761719 155.269531 236.074219 Z M 155.269531 236.074219 " fill-opacity="1" fill-rule="nonzero"/><path fill="#f64b31" d="M 50.609375 86.734375 C 50.15625 86.53125 49.679688 86.328125 49.207031 86.101562 C 49.273438 87.914062 49.117188 89.613281 49.09375 89.703125 L 48.84375 92.332031 L 47.261719 90.222656 C 47.167969 90.109375 45.359375 87.6875 44.070312 85.488281 C 42.238281 86.644531 40.109375 87.550781 39.996094 87.59375 L 38.480469 88.230469 L 38.570312 86.578125 C 38.59375 86.441406 38.75 83.789062 39.316406 81.570312 C 36.828125 81.070312 33.953125 80.1875 33.820312 80.140625 L 31.304688 79.347656 L 33.683594 78.238281 C 33.773438 78.195312 35.3125 77.46875 37.03125 76.925781 C 36.761719 76.652344 36.488281 76.359375 36.21875 76.0625 C 30.761719 75.136719 25.421875 76.8125 22.480469 80.957031 C 18.089844 87.1875 15.917969 103.429688 23.566406 108.847656 C 31.214844 114.261719 45.789062 106.785156 50.179688 100.53125 C 52.960938 96.613281 52.941406 91.402344 50.609375 86.734375 Z M 35.378906 85.648438 C 35.675781 85.851562 35.539062 86.554688 35.0625 87.210938 C 34.609375 87.867188 34 88.230469 33.707031 88.027344 C 33.410156 87.820312 33.546875 87.121094 34.023438 86.464844 C 34.496094 85.804688 35.109375 85.445312 35.378906 85.648438 Z M 27.574219 96.726562 C 27.867188 96.929688 27.730469 97.632812 27.257812 98.289062 C 26.78125 98.945312 26.167969 99.308594 25.898438 99.105469 C 25.605469 98.902344 25.738281 98.199219 26.214844 97.542969 C 26.667969 96.90625 27.277344 96.523438 27.574219 96.726562 Z M 28.023438 88.59375 C 28.320312 88.796875 28.183594 89.5 27.707031 90.15625 C 27.234375 90.8125 26.621094 91.175781 26.351562 90.972656 C 26.054688 90.765625 26.191406 90.066406 26.667969 89.40625 C 27.121094 88.75 27.730469 88.386719 28.023438 88.59375 Z M 22.140625 95.207031 C 21.554688 95.164062 21.101562 94.617188 20.851562 93.644531 C 20.058594 90.359375 22.34375 84.945312 24.199219 82.316406 C 26.078125 79.644531 28.660156 78.78125 30.378906 78.535156 C 26.804688 80.664062 25.355469 85.671875 24.722656 89.519531 C 24.496094 90.972656 24.765625 93.507812 23.523438 94.597656 C 23.023438 95.050781 22.550781 95.253906 22.140625 95.207031 Z M 25.015625 106.671875 C 24.722656 106.46875 24.855469 105.765625 25.332031 105.109375 C 25.785156 104.449219 26.394531 104.089844 26.691406 104.292969 C 26.984375 104.496094 26.824219 105.199219 26.375 105.855469 C 25.921875 106.511719 25.308594 106.875 25.015625 106.671875 Z M 32.84375 95.570312 C 32.550781 95.367188 32.6875 94.664062 33.164062 94.007812 C 33.636719 93.351562 34.226562 92.988281 34.519531 93.191406 C 34.8125 93.394531 34.679688 94.097656 34.203125 94.753906 C 33.75 95.410156 33.140625 95.773438 32.84375 95.570312 Z M 32.394531 103.726562 C 32.097656 103.523438 32.234375 102.820312 32.710938 102.164062 C 33.164062 101.503906 33.773438 101.144531 34.066406 101.347656 C 34.363281 101.550781 34.203125 102.253906 33.75 102.910156 C 33.296875 103.542969 32.6875 103.929688 32.394531 103.726562 Z M 40.222656 92.625 C 39.929688 92.421875 40.0625 91.71875 40.539062 91.0625 C 41.015625 90.40625 41.625 90.042969 41.898438 90.246094 C 42.191406 90.449219 42.054688 91.152344 41.582031 91.808594 C 41.128906 92.464844 40.515625 92.828125 40.222656 92.625 Z M 39.363281 100.167969 C 39.066406 99.964844 39.203125 99.261719 39.679688 98.605469 C 40.15625 97.949219 40.742188 97.585938 41.035156 97.789062 C 41.332031 97.996094 41.195312 98.695312 40.71875 99.355469 C 40.269531 100.011719 39.65625 100.375 39.363281 100.167969 Z M 46.738281 97.222656 C 46.445312 97.019531 46.582031 96.316406 47.054688 95.660156 C 47.53125 95.003906 48.121094 94.640625 48.414062 94.84375 C 48.707031 95.050781 48.574219 95.75 48.097656 96.410156 C 47.621094 97.066406 47.011719 97.429688 46.738281 97.222656 Z M 46.738281 97.222656 " fill-opacity="1" fill-rule="nonzero"/><path fill="#157a2c" d="M 48.050781 84.402344 C 50.835938 85.851562 54.863281 87.347656 54.863281 87.347656 C 54.863281 87.347656 51.761719 84.039062 49.320312 82 C 51.535156 81.59375 54.140625 80.480469 54.140625 80.480469 C 54.140625 80.480469 50.519531 79.28125 47.894531 78.78125 C 48.550781 77.289062 48.867188 74.863281 48.867188 74.863281 C 48.867188 74.863281 46.242188 75.519531 44.726562 76.382812 C 43.503906 74.046875 40.675781 70.421875 40.675781 70.421875 C 40.675781 70.421875 40.492188 73.253906 40.855469 75.476562 C 38.117188 73.867188 33.953125 72.03125 33.953125 72.03125 C 33.953125 72.03125 36.714844 75.339844 39.023438 77.46875 C 36.804688 77.898438 34.089844 79.167969 34.089844 79.167969 C 34.089844 79.167969 38.003906 80.390625 40.605469 80.777344 C 39.816406 82.972656 39.589844 86.644531 39.589844 86.644531 C 39.589844 86.644531 42.53125 85.398438 44.410156 84.039062 C 45.628906 86.351562 48.074219 89.613281 48.074219 89.613281 C 48.074219 89.613281 48.390625 86.621094 48.050781 84.402344 Z M 48.050781 84.402344 " fill-opacity="1" fill-rule="nonzero"/><path fill="#57a52c" d="M 241.125 172.640625 C 237.660156 177.695312 237.1875 184.355469 239.742188 190.765625 C 240.355469 188.183594 240.671875 184.921875 241.507812 182.429688 C 242.867188 178.398438 244.429688 175.609375 247.574219 171.804688 C 247.574219 171.78125 247.617188 171.78125 247.617188 171.804688 C 247.640625 171.828125 247.640625 171.828125 247.640625 171.847656 C 245.308594 175.40625 243.839844 179.394531 242.777344 183.472656 C 242.140625 185.894531 241.691406 188.363281 241.257812 190.855469 C 247.097656 187.890625 251.171875 182.996094 252.484375 177.152344 C 253.34375 173.320312 253.003906 169.152344 251.601562 165.03125 C 247.164062 166.59375 243.453125 169.222656 241.125 172.640625 Z M 241.125 172.640625 " fill-opacity="1" fill-rule="nonzero"/><path fill="#f6c02b" d="M 192.246094 285.578125 C 192.425781 285.488281 192.605469 285.464844 192.765625 285.464844 C 199.691406 284.082031 208.289062 282.40625 216.753906 277.761719 C 223.585938 274.339844 229.378906 269.921875 234.222656 266.046875 C 229.492188 268.496094 223.109375 272.484375 214.535156 273.480469 C 200.253906 276.039062 191.160156 270.851562 186.882812 272.527344 C 184.824219 273.523438 184.9375 279.050781 190.730469 284.285156 C 191.179688 284.761719 191.722656 285.125 192.246094 285.578125 Z M 192.246094 285.578125 " fill-opacity="1" fill-rule="nonzero"/><path fill="#f6c02b" d="M 228.359375 290.46875 C 236.167969 282.996094 245.761719 272.234375 247.144531 259.457031 C 241.101562 262.535156 231.527344 273.09375 217.929688 279.914062 C 201.023438 289.203125 183.488281 287.09375 181.449219 292.578125 C 180.636719 295.046875 184.484375 299.328125 193.058594 301.957031 C 198.398438 303.632812 205.710938 304.085938 213.492188 302.613281 C 218.132812 299.351562 223.542969 295.363281 228.359375 290.46875 Z M 228.359375 290.46875 " fill-opacity="1" fill-rule="nonzero"/><path fill="#f6c02b" d="M 256.398438 250.757812 C 253.253906 250.847656 252.191406 250.304688 249.15625 250.234375 C 252.753906 268.019531 239.96875 282.722656 230.105469 292.191406 C 217.542969 305.039062 201.660156 311.019531 202.519531 316.410156 C 202.496094 321.214844 224.605469 323.820312 243.433594 305.445312 C 250.46875 298.355469 255.96875 288.542969 256.558594 278.351562 C 256.828125 274.226562 256.105469 270.421875 255.402344 266.386719 C 255.199219 264.960938 254.476562 250.800781 256.398438 250.757812 Z M 256.398438 250.757812 " fill-opacity="1" fill-rule="nonzero"/><path fill="#f6c02b" d="M 58.621094 38.207031 C 58.621094 38.207031 58.640625 38.207031 58.640625 38.230469 C 58.640625 38.183594 58.621094 38.183594 58.621094 38.207031 C 58.4375 38.09375 58.4375 38.09375 58.621094 38.207031 Z M 58.621094 38.207031 " fill-opacity="1" fill-rule="nonzero"/><g clip-path="url(#4a8b90caa3)"><path fill="#f6c02b" d="M 91.726562 62.902344 C 91.996094 62.925781 92.316406 62.96875 92.585938 62.992188 C 92.675781 62.992188 92.746094 63.015625 92.835938 63.015625 C 93.535156 61.15625 94.214844 59.210938 94.828125 57.214844 C 98.71875 44.574219 100.414062 30.371094 95.460938 27.921875 C 92.675781 26.5625 88.265625 29.078125 83.578125 33.472656 C 84.144531 33.109375 85.027344 33.132812 85.867188 33.542969 C 86.996094 34.085938 87.585938 35.171875 87.199219 35.941406 C 86.816406 36.710938 85.59375 36.894531 84.484375 36.351562 C 83.355469 35.804688 82.765625 34.71875 83.148438 33.949219 C 83.242188 33.769531 83.398438 33.609375 83.578125 33.472656 C 80.953125 35.917969 78.238281 38.976562 75.660156 42.242188 C 74.550781 43.667969 73.464844 45.117188 72.421875 46.589844 C 72.46875 46.636719 72.492188 46.679688 72.535156 46.726562 C 72.628906 46.816406 72.695312 46.929688 72.785156 47.019531 C 73.734375 46.523438 75.183594 46.546875 76.542969 47.203125 C 78.464844 48.152344 79.484375 49.988281 78.828125 51.324219 C 78.441406 52.117188 77.539062 52.527344 76.472656 52.546875 C 76.585938 52.753906 76.699219 52.980469 76.8125 53.183594 C 77.3125 54.132812 77.71875 55.132812 78.035156 56.195312 C 78.984375 55.789062 80.320312 55.878906 81.566406 56.492188 C 83.488281 57.441406 84.507812 59.277344 83.851562 60.589844 C 83.195312 61.925781 81.113281 62.222656 79.210938 61.292969 C 79.054688 61.226562 78.917969 61.132812 78.78125 61.042969 C 78.804688 61.339844 78.804688 61.632812 78.828125 61.949219 C 78.851562 61.972656 78.871094 61.972656 78.894531 61.972656 C 80.277344 62.652344 81.179688 63.808594 81.339844 64.894531 C 82.585938 64.304688 83.851562 63.898438 85.140625 63.558594 C 84.554688 62.71875 84.371094 61.792969 84.734375 61.042969 C 85.390625 59.707031 87.472656 59.414062 89.394531 60.363281 C 90.59375 60.953125 91.433594 61.925781 91.726562 62.902344 Z M 95.414062 52.164062 C 94.78125 53.453125 92.972656 53.886719 91.410156 53.09375 C 89.824219 52.320312 89.054688 50.621094 89.710938 49.332031 C 90.347656 48.039062 92.15625 47.609375 93.71875 48.402344 C 95.300781 49.195312 96.070312 50.871094 95.414062 52.164062 Z M 97 46.523438 C 96.570312 47.429688 95.144531 47.632812 93.851562 47 C 92.5625 46.339844 91.863281 45.09375 92.316406 44.210938 C 92.746094 43.304688 94.171875 43.101562 95.460938 43.734375 C 96.75 44.371094 97.429688 45.617188 97 46.523438 Z M 98.085938 41.3125 C 97.699219 42.082031 96.476562 42.261719 95.347656 41.71875 C 94.214844 41.175781 93.628906 40.089844 94.011719 39.316406 C 94.398438 38.546875 95.617188 38.367188 96.726562 38.910156 C 97.859375 39.453125 98.46875 40.542969 98.085938 41.3125 Z M 98.109375 37.03125 C 97.8125 37.617188 96.910156 37.753906 96.070312 37.324219 C 95.234375 36.917969 94.78125 36.101562 95.074219 35.535156 C 95.371094 34.945312 96.273438 34.832031 97.113281 35.238281 C 97.949219 35.625 98.402344 36.441406 98.109375 37.03125 Z M 93.308594 28.671875 C 93.605469 28.082031 94.507812 27.945312 95.347656 28.375 C 96.183594 28.785156 96.636719 29.597656 96.34375 30.164062 C 96.046875 30.753906 95.144531 30.890625 94.304688 30.460938 C 93.46875 30.050781 93.015625 29.238281 93.308594 28.671875 Z M 90.777344 31.730469 C 91.230469 30.800781 92.699219 30.574219 94.058594 31.253906 C 95.414062 31.910156 96.140625 33.203125 95.664062 34.152344 C 95.210938 35.082031 93.742188 35.308594 92.382812 34.628906 C 91.046875 33.972656 90.324219 32.679688 90.777344 31.730469 Z M 92.089844 35.332031 C 93.761719 36.144531 94.644531 37.753906 94.078125 38.910156 C 93.515625 40.066406 91.703125 40.335938 90.027344 39.523438 C 88.355469 38.683594 87.472656 37.097656 88.039062 35.917969 C 88.605469 34.765625 90.414062 34.515625 92.089844 35.332031 Z M 86.523438 31.296875 C 86.816406 30.710938 87.722656 30.574219 88.558594 31.003906 C 89.394531 31.410156 89.847656 32.226562 89.554688 32.792969 C 89.261719 33.382812 88.355469 33.519531 87.515625 33.089844 C 86.679688 32.703125 86.226562 31.886719 86.523438 31.296875 Z M 84.984375 40.769531 C 85.640625 39.429688 87.722656 39.136719 89.644531 40.066406 C 91.566406 41.015625 92.585938 42.851562 91.929688 44.1875 C 91.273438 45.503906 89.191406 45.820312 87.292969 44.867188 C 85.34375 43.917969 84.328125 42.082031 84.984375 40.769531 Z M 89.238281 49.648438 C 88.582031 50.984375 86.5 51.28125 84.597656 50.328125 C 82.675781 49.375 81.65625 47.542969 82.3125 46.226562 C 82.96875 44.890625 85.050781 44.597656 86.972656 45.527344 C 88.851562 46.5 89.871094 48.335938 89.238281 49.648438 Z M 79.6875 37.980469 C 80.140625 37.074219 81.542969 36.871094 82.832031 37.503906 C 84.121094 38.140625 84.824219 39.386719 84.371094 40.292969 C 83.917969 41.199219 82.539062 41.402344 81.226562 40.769531 C 79.9375 40.132812 79.234375 38.886719 79.6875 37.980469 Z M 77.878906 46.433594 C 76.382812 45.707031 75.636719 44.144531 76.089844 42.898438 C 76.089844 42.898438 76.113281 42.875 76.113281 42.875 C 76.113281 42.875 76.113281 42.851562 76.113281 42.851562 C 76.136719 42.808594 76.136719 42.738281 76.179688 42.671875 C 76.8125 41.378906 78.625 40.949219 80.183594 41.742188 C 81.769531 42.511719 82.539062 44.210938 81.882812 45.503906 C 81.25 46.792969 79.4375 47.226562 77.878906 46.433594 Z M 86.542969 55.132812 C 85.886719 56.46875 83.804688 56.761719 81.90625 55.8125 C 79.980469 54.859375 78.964844 53.023438 79.621094 51.710938 C 80.277344 50.375 82.359375 50.078125 84.28125 51.007812 C 86.160156 51.960938 87.179688 53.816406 86.542969 55.132812 Z M 89.261719 59.457031 C 87.335938 58.507812 86.316406 56.671875 86.972656 55.359375 C 87.628906 54.019531 89.710938 53.726562 91.636719 54.679688 C 93.558594 55.628906 94.578125 57.464844 93.921875 58.800781 C 93.242188 60.09375 91.160156 60.410156 89.261719 59.457031 Z M 89.261719 59.457031 " fill-opacity="1" fill-rule="nonzero"/></g><path fill="#f64b31" d="M 241.847656 46.386719 C 245.21875 46.386719 247.957031 43.644531 247.957031 40.269531 C 247.957031 36.894531 245.21875 34.152344 241.847656 34.152344 C 238.476562 34.152344 235.738281 36.894531 235.738281 40.269531 C 235.738281 43.644531 238.476562 46.386719 241.847656 46.386719 Z M 241.847656 46.386719 " fill-opacity="1" fill-rule="nonzero"/><path fill="#f68820" d="M 243.339844 62.902344 C 244.992188 62.902344 246.351562 61.566406 246.351562 59.890625 C 246.351562 58.234375 244.992188 56.875 243.339844 56.875 C 241.691406 56.875 240.332031 58.210938 240.332031 59.890625 C 240.332031 61.566406 241.667969 62.902344 243.339844 62.902344 Z M 243.339844 62.902344 " fill-opacity="1" fill-rule="nonzero"/><path fill="#f64b31" d="M 348.226562 77.128906 C 344.902344 77.128906 342.230469 79.824219 342.230469 83.132812 C 342.230469 86.464844 344.921875 89.136719 348.226562 89.136719 C 351.53125 89.136719 354.222656 86.441406 354.222656 83.132812 C 354.246094 79.824219 351.554688 77.128906 348.226562 77.128906 Z M 348.226562 77.128906 " fill-opacity="1" fill-rule="nonzero"/><path fill="#f68820" d="M 357.210938 96.410156 C 355.558594 96.410156 354.222656 97.746094 354.222656 99.398438 C 354.222656 101.050781 355.558594 102.390625 357.210938 102.390625 C 358.863281 102.390625 360.199219 101.050781 360.199219 99.398438 C 360.199219 97.746094 358.863281 96.410156 357.210938 96.410156 Z M 357.210938 96.410156 " fill-opacity="1" fill-rule="nonzero"/><path fill="#f6c02b" d="M 286.40625 167.929688 C 284.324219 167.929688 282.625 169.628906 282.625 171.714844 C 282.625 173.796875 284.324219 175.496094 286.40625 175.496094 C 288.488281 175.496094 290.183594 173.796875 290.183594 171.714844 C 290.183594 169.628906 288.507812 167.929688 286.40625 167.929688 Z M 286.40625 167.929688 " fill-opacity="1" fill-rule="nonzero"/><path fill="#f68820" d="M 274.523438 265.164062 C 271.445312 265.164062 268.933594 267.65625 268.933594 270.761719 C 268.933594 273.863281 271.425781 276.355469 274.523438 276.355469 C 277.601562 276.355469 280.113281 273.863281 280.113281 270.761719 C 280.113281 267.65625 277.601562 265.164062 274.523438 265.164062 Z M 274.523438 265.164062 " fill-opacity="1" fill-rule="nonzero"/><path fill="#f6c02b" d="M 165.609375 278.644531 C 165.609375 279.019531 165.539062 279.382812 165.394531 279.726562 C 165.25 280.074219 165.046875 280.382812 164.78125 280.648438 C 164.515625 280.914062 164.210938 281.117188 163.863281 281.261719 C 163.519531 281.40625 163.15625 281.476562 162.78125 281.476562 C 162.40625 281.476562 162.046875 281.40625 161.699219 281.261719 C 161.351562 281.117188 161.046875 280.914062 160.78125 280.648438 C 160.515625 280.382812 160.3125 280.074219 160.167969 279.726562 C 160.023438 279.382812 159.953125 279.019531 159.953125 278.644531 C 159.953125 278.269531 160.023438 277.90625 160.167969 277.5625 C 160.3125 277.214844 160.515625 276.90625 160.78125 276.640625 C 161.046875 276.375 161.351562 276.171875 161.699219 276.027344 C 162.046875 275.882812 162.40625 275.8125 162.78125 275.8125 C 163.15625 275.8125 163.519531 275.882812 163.863281 276.027344 C 164.210938 276.171875 164.515625 276.375 164.78125 276.640625 C 165.046875 276.90625 165.25 277.214844 165.394531 277.5625 C 165.539062 277.90625 165.609375 278.269531 165.609375 278.644531 Z M 165.609375 278.644531 " fill-opacity="1" fill-rule="nonzero"/><path fill="#57a52c" d="M 95.84375 254.449219 C 92.765625 254.449219 90.277344 256.941406 90.277344 260.023438 C 90.277344 263.101562 92.765625 265.59375 95.84375 265.59375 C 98.921875 265.59375 101.410156 263.101562 101.410156 260.023438 C 101.410156 256.941406 98.921875 254.449219 95.84375 254.449219 Z M 95.84375 254.449219 " fill-opacity="1" fill-rule="nonzero"/><path fill="#f68820" d="M 138.183594 185.894531 C 138.183594 186.199219 138.152344 186.503906 138.09375 186.800781 C 138.035156 187.101562 137.949219 187.390625 137.832031 187.671875 C 137.714844 187.953125 137.570312 188.222656 137.402344 188.476562 C 137.234375 188.730469 137.039062 188.964844 136.824219 189.179688 C 136.609375 189.394531 136.375 189.585938 136.121094 189.757812 C 135.867188 189.925781 135.601562 190.070312 135.320312 190.1875 C 135.039062 190.304688 134.75 190.390625 134.449219 190.449219 C 134.152344 190.511719 133.847656 190.539062 133.546875 190.539062 C 133.242188 190.539062 132.9375 190.511719 132.640625 190.449219 C 132.339844 190.390625 132.050781 190.304688 131.769531 190.1875 C 131.488281 190.070312 131.222656 189.925781 130.96875 189.757812 C 130.714844 189.585938 130.480469 189.394531 130.265625 189.179688 C 130.050781 188.964844 129.855469 188.730469 129.6875 188.476562 C 129.519531 188.222656 129.375 187.953125 129.257812 187.671875 C 129.144531 187.390625 129.054688 187.101562 128.996094 186.800781 C 128.9375 186.503906 128.90625 186.199219 128.90625 185.894531 C 128.90625 185.589844 128.9375 185.289062 128.996094 184.988281 C 129.054688 184.691406 129.144531 184.398438 129.257812 184.117188 C 129.375 183.835938 129.519531 183.570312 129.6875 183.316406 C 129.855469 183.0625 130.050781 182.828125 130.265625 182.613281 C 130.480469 182.394531 130.714844 182.203125 130.96875 182.035156 C 131.222656 181.863281 131.488281 181.722656 131.769531 181.605469 C 132.050781 181.488281 132.339844 181.398438 132.640625 181.339844 C 132.9375 181.28125 133.242188 181.25 133.546875 181.25 C 133.847656 181.25 134.152344 181.28125 134.449219 181.339844 C 134.75 181.398438 135.039062 181.488281 135.320312 181.605469 C 135.601562 181.722656 135.867188 181.863281 136.121094 182.035156 C 136.375 182.203125 136.609375 182.394531 136.824219 182.613281 C 137.039062 182.828125 137.234375 183.0625 137.402344 183.316406 C 137.570312 183.570312 137.714844 183.835938 137.832031 184.117188 C 137.949219 184.398438 138.035156 184.691406 138.09375 184.988281 C 138.152344 185.289062 138.183594 185.589844 138.183594 185.894531 Z M 138.183594 185.894531 " fill-opacity="1" fill-rule="nonzero"/><path fill="#f6c02b" d="M 92.5625 162.128906 C 92.5625 163.148438 93.378906 163.964844 94.398438 163.964844 C 95.414062 163.964844 96.230469 163.148438 96.230469 162.128906 C 96.230469 161.109375 95.414062 160.296875 94.398438 160.296875 C 93.378906 160.296875 92.5625 161.109375 92.5625 162.128906 Z M 92.5625 162.128906 " fill-opacity="1" fill-rule="nonzero"/><path fill="#f68820" d="M 82.402344 105.742188 C 82.402344 106.035156 82.375 106.324219 82.316406 106.613281 C 82.261719 106.898438 82.175781 107.179688 82.0625 107.449219 C 81.953125 107.722656 81.816406 107.976562 81.652344 108.222656 C 81.488281 108.464844 81.304688 108.691406 81.097656 108.898438 C 80.890625 109.105469 80.664062 109.289062 80.421875 109.453125 C 80.179688 109.617188 79.921875 109.753906 79.652344 109.867188 C 79.378906 109.976562 79.101562 110.0625 78.816406 110.121094 C 78.527344 110.175781 78.238281 110.207031 77.945312 110.207031 C 77.652344 110.207031 77.363281 110.175781 77.074219 110.121094 C 76.789062 110.0625 76.507812 109.976562 76.238281 109.867188 C 75.96875 109.753906 75.710938 109.617188 75.46875 109.453125 C 75.226562 109.289062 75 109.105469 74.792969 108.898438 C 74.585938 108.691406 74.402344 108.464844 74.238281 108.222656 C 74.074219 107.976562 73.9375 107.722656 73.828125 107.449219 C 73.714844 107.179688 73.628906 106.898438 73.574219 106.613281 C 73.515625 106.324219 73.488281 106.035156 73.488281 105.742188 C 73.488281 105.449219 73.515625 105.160156 73.574219 104.871094 C 73.628906 104.585938 73.714844 104.304688 73.828125 104.035156 C 73.9375 103.761719 74.074219 103.507812 74.238281 103.261719 C 74.402344 103.019531 74.585938 102.792969 74.792969 102.585938 C 75 102.378906 75.226562 102.195312 75.46875 102.03125 C 75.710938 101.867188 75.96875 101.730469 76.238281 101.617188 C 76.507812 101.507812 76.789062 101.421875 77.074219 101.363281 C 77.363281 101.308594 77.652344 101.277344 77.945312 101.277344 C 78.238281 101.277344 78.527344 101.308594 78.816406 101.363281 C 79.101562 101.421875 79.378906 101.507812 79.652344 101.617188 C 79.921875 101.730469 80.179688 101.867188 80.421875 102.03125 C 80.664062 102.195312 80.890625 102.378906 81.097656 102.585938 C 81.304688 102.792969 81.488281 103.019531 81.652344 103.261719 C 81.816406 103.507812 81.953125 103.761719 82.0625 104.035156 C 82.175781 104.304688 82.261719 104.585938 82.316406 104.871094 C 82.375 105.160156 82.402344 105.449219 82.402344 105.742188 Z M 82.402344 105.742188 " fill-opacity="1" fill-rule="nonzero"/><path fill="#f68820" d="M 197.066406 123.84375 C 197.066406 124.089844 197.019531 124.328125 196.921875 124.554688 C 196.828125 124.78125 196.695312 124.984375 196.523438 125.15625 C 196.347656 125.332031 196.148438 125.464844 195.917969 125.558594 C 195.691406 125.652344 195.457031 125.703125 195.210938 125.703125 C 194.964844 125.703125 194.726562 125.652344 194.5 125.558594 C 194.273438 125.464844 194.070312 125.332031 193.898438 125.15625 C 193.722656 124.984375 193.589844 124.78125 193.496094 124.554688 C 193.402344 124.328125 193.355469 124.089844 193.355469 123.84375 C 193.355469 123.597656 193.402344 123.359375 193.496094 123.132812 C 193.589844 122.90625 193.722656 122.703125 193.898438 122.53125 C 194.070312 122.355469 194.273438 122.222656 194.5 122.128906 C 194.726562 122.03125 194.964844 121.984375 195.210938 121.984375 C 195.457031 121.984375 195.691406 122.03125 195.917969 122.128906 C 196.148438 122.222656 196.347656 122.355469 196.523438 122.53125 C 196.695312 122.703125 196.828125 122.90625 196.921875 123.132812 C 197.019531 123.359375 197.066406 123.597656 197.066406 123.84375 Z M 197.066406 123.84375 " fill-opacity="1" fill-rule="nonzero"/><path fill="#f6c02b" d="M 233.136719 109.933594 C 233.136719 110.210938 233.109375 110.484375 233.054688 110.753906 C 233 111.027344 232.921875 111.289062 232.816406 111.546875 C 232.710938 111.800781 232.578125 112.042969 232.425781 112.273438 C 232.273438 112.503906 232.097656 112.71875 231.902344 112.914062 C 231.707031 113.109375 231.496094 113.285156 231.265625 113.4375 C 231.035156 113.589844 230.792969 113.71875 230.539062 113.828125 C 230.28125 113.933594 230.019531 114.011719 229.746094 114.066406 C 229.476562 114.121094 229.203125 114.148438 228.925781 114.148438 C 228.652344 114.148438 228.375 114.121094 228.105469 114.066406 C 227.835938 114.011719 227.570312 113.933594 227.316406 113.828125 C 227.0625 113.71875 226.816406 113.589844 226.589844 113.4375 C 226.359375 113.285156 226.144531 113.109375 225.949219 112.914062 C 225.753906 112.71875 225.582031 112.503906 225.425781 112.273438 C 225.273438 112.042969 225.144531 111.800781 225.039062 111.546875 C 224.933594 111.289062 224.851562 111.027344 224.796875 110.753906 C 224.746094 110.484375 224.71875 110.210938 224.71875 109.933594 C 224.71875 109.65625 224.746094 109.382812 224.796875 109.113281 C 224.851562 108.839844 224.933594 108.578125 225.039062 108.320312 C 225.144531 108.066406 225.273438 107.824219 225.425781 107.59375 C 225.582031 107.363281 225.753906 107.148438 225.949219 106.953125 C 226.144531 106.757812 226.359375 106.582031 226.589844 106.429688 C 226.816406 106.277344 227.0625 106.144531 227.316406 106.039062 C 227.570312 105.933594 227.835938 105.855469 228.105469 105.800781 C 228.375 105.746094 228.652344 105.71875 228.925781 105.71875 C 229.203125 105.71875 229.476562 105.746094 229.746094 105.800781 C 230.019531 105.855469 230.28125 105.933594 230.539062 106.039062 C 230.792969 106.144531 231.035156 106.277344 231.265625 106.429688 C 231.496094 106.582031 231.707031 106.757812 231.902344 106.953125 C 232.097656 107.148438 232.273438 107.363281 232.425781 107.59375 C 232.578125 107.824219 232.710938 108.066406 232.816406 108.320312 C 232.921875 108.578125 233 108.839844 233.054688 109.113281 C 233.109375 109.382812 233.136719 109.65625 233.136719 109.933594 Z M 233.136719 109.933594 " fill-opacity="1" fill-rule="nonzero"/></svg>